<svg width="170" height="168" viewBox="0 0 170 168" fill="none" xmlns="http://www.w3.org/2000/svg">
<path d="M160.944 73.7695C158.605 65.3681 166.041 65.044 166.205 54.2186C166.272 49.7912 163.849 45.282 158.02 43.2135C155.155 42.1974 152.299 41.4987 149.75 39.8823C143.941 36.199 144.046 29.1904 142.461 23.2159C138.981 10.0938 125.587 -0.331081 112.029 0.00804508C102.255 0.252066 93.4189 0.551982 84.5085 8.85703C78.4114 14.54 74.4489 21.5324 68.7885 27.3909C62.7939 33.5949 55.4893 36.5715 47.2872 38.565C39.5301 40.45 31.0918 42.6929 25.1547 48.3459C19.5751 53.658 20.3885 59.2142 22.7805 65.7368C25.4189 72.9294 19.6985 77.8227 13.7339 80.6238C8.7118 82.9818 0.305131 87.7784 0.0301311 96.6228C-0.820286 124.017 16.561 124.127 23.0414 126.731C82.6555 150.683 105.533 132.209 130.811 132.582C156.009 132.954 170.454 102.447 169.578 93.463C168.468 82.0558 162.578 79.636 160.944 73.7695Z" fill="#DEEDF2"/>
<path d="M137.335 9.87109C136.651 4.30744 131.914 0 126.173 0C119.963 0 114.927 5.04195 114.927 11.2618C114.927 12.2822 115.063 13.2709 115.317 14.2108C115.222 14.2121 115.127 14.2155 115.033 14.221L114.927 14.2123V14.228C111.706 14.4704 109.167 17.1648 109.167 20.4529C109.167 23.7409 111.706 26.4353 114.927 26.6777V26.6963H155.872V26.6957H155.872C158.382 26.6957 160.417 24.6577 160.417 22.1442C160.417 19.6306 158.382 17.5929 155.872 17.5929H155.872V17.5927L145.498 16.7363C145.546 16.426 145.57 16.1082 145.57 15.7847C145.57 12.3371 142.78 9.54216 139.337 9.54216C138.637 9.54216 137.963 9.65782 137.335 9.87109Z" fill="#9BC3D3"/>
<path d="M113.68 41.8254C114.147 38.0004 117.382 35.0391 121.302 35.0391C125.544 35.0391 128.983 38.5054 128.983 42.7815C128.983 43.4831 128.89 44.1628 128.717 44.809C128.782 44.8099 128.846 44.8122 128.911 44.816L128.983 44.81V44.8208C131.183 44.9874 132.917 46.8399 132.917 49.1004C132.917 51.3609 131.183 53.2133 128.983 53.38V53.3928H101.02V53.3923H101.02C99.3064 53.3923 97.9167 51.9913 97.9167 50.2632C97.9167 48.5351 99.3064 47.1342 101.02 47.1342H101.02V47.1341L108.105 46.5452C108.073 46.3319 108.056 46.1135 108.056 45.8911C108.056 43.5208 109.962 41.5993 112.313 41.5993C112.791 41.5993 113.251 41.6788 113.68 41.8254Z" fill="#EFF6F9"/>
<path d="M34.4769 18.4969C35.4247 9.95225 41.9866 3.33691 49.9396 3.33691C58.5438 3.33691 65.5193 11.0803 65.5193 20.6327C65.5193 22.1998 65.3317 23.7183 64.9795 25.1618C65.1118 25.1638 65.243 25.169 65.3734 25.1774L65.5201 25.164V25.1882C69.9825 25.5604 73.5 29.6985 73.5 34.7483C73.5 39.798 69.9825 43.9361 65.5201 44.3083V44.3369H8.79605V44.3359H8.79587C5.31893 44.3359 2.5 41.2061 2.5 37.3458C2.5 33.4854 5.31893 30.356 8.79587 30.356H8.79605V30.3557L23.1673 29.0404C23.1017 28.5639 23.0677 28.0758 23.0677 27.579C23.0677 22.2842 26.9339 17.9917 31.7033 17.9917C32.6735 17.9917 33.6063 18.1693 34.4769 18.4969Z" fill="#EFF6F9"/>
<path d="M115.437 109.023C95.393 107.949 74.2912 112.803 63.5932 116.488C57.184 118.695 55.4234 122.747 48.719 123.844C35.2541 126.047 3.63713 126.699 3.01196 129.944C1.78119 136.334 12.448 139.748 37.0501 142.703C36.5189 143.14 40.0465 151.135 59.881 152.94C67.7294 153.655 80.8936 152.943 85.9422 151.382C93.7023 148.982 101.763 147.693 109.882 147.508C138.762 146.854 161.409 143.571 161.674 138.607C161.763 136.948 160.096 134.649 157.484 133.311C155.856 132.478 158.246 131.775 158.801 131.575C165.616 129.12 169.439 126.378 169.578 124.201C170.015 117.371 144.86 110.6 115.437 109.023Z" fill="#C3DEE7"/>
<path d="M60.6216 54.7928L55.5884 46.2485C54.3297 43.6421 53.2047 40.9724 52.247 38.2407C51.7784 36.9035 51.3495 35.5547 51.1162 34.5137C50.7964 33.0829 50.5589 31.6509 50.5574 30.535L50.557 29.569C50.5551 29.3442 50.5725 29.1241 50.6059 28.9074C50.8825 27.1183 52.278 25.6722 54.1119 25.3666C55.88 25.0739 57.6425 25.9263 58.5145 27.493L59.808 29.8957L71.0837 50.8258C82.9517 66.6926 95.0372 79.8171 108.219 91.6597L111.076 131.109L76.2119 150.675L67.2775 135.712C64.538 131.124 62.2384 126.287 60.4092 121.265L55.5836 108.017L48.8209 94.786L51.0955 75.1906C50.1104 74.9183 49.2173 74.2701 48.6609 73.2651C48.0777 72.2112 47.9968 70.9512 48.4413 69.8318L50.4525 64.7595C51.0142 63.3435 51.7941 62.0347 52.7569 60.8771L52.7728 60.7405C55.1207 58.4893 57.9625 56.7584 60.6216 54.7928Z" fill="#FFC4B8"/>
<path d="M51.091 98.0979L51.0298 98.1323C49.345 99.1051 47.1926 98.5998 46.1145 96.9758L40.5388 88.5709C39.4453 86.9233 39.6532 84.7347 41.0341 83.3206L41.7519 82.5874C41.9245 82.4108 42.108 82.2554 42.3004 82.1208C44.179 80.8004 46.8892 81.4332 47.9329 83.6083L51.7236 91.5234L52.5754 93.2987C53.4103 95.0413 52.7632 97.133 51.091 98.0979Z" fill="#FFC4B8"/>
<path fill-rule="evenodd" clip-rule="evenodd" d="M83.7761 127.146C84.2098 125.666 84.8074 124.327 85.4988 123.129C87.6337 110.108 93.7639 98.6825 102.38 90.5701L98.3175 82.3024C88.8774 72.929 79.9204 62.6355 71.084 50.8216L71.0591 50.7754C66.2825 51.2125 63.2409 53.3864 61.8789 57.2418L65.5495 65.2163L65.5465 65.214L65.5493 65.2201L60.889 66.671L55.3421 73.7889L55.0467 74.1218L55.0213 74.1507L55.0201 74.1519L54.9905 74.1853L54.7556 74.3899L54.6706 74.4665L54.6557 74.4771L54.6037 74.5224L54.3845 74.6689L54.2941 74.7328L54.2653 74.7485L54.1874 74.8006L53.9817 74.9033L53.8964 74.9499L53.8541 74.9671L53.7473 75.0204L53.5571 75.0876L53.4817 75.1181L53.4273 75.1334L53.2888 75.1823L53.117 75.2204L53.0544 75.2379L52.9902 75.2485L52.8178 75.2866L52.6672 75.3016L52.619 75.3095L52.5485 75.3133L52.3399 75.3339L52.213 75.3315L52.1796 75.3332L52.0017 75.3274L51.8607 75.3246L51.7226 75.3055L51.6372 75.2969L51.5353 75.2797L51.386 75.2591L51.2362 75.22L51.0958 75.1864L49.9574 84.993L49.6923 87.2782L51.7238 91.5199L52.5756 93.2951C53.4104 95.0379 52.7633 97.1296 51.0911 98.0944L51.03 98.1289L50.6335 98.3276L50.9781 99.0018L55.5831 108.011C56.4945 110.516 59.0992 111.13 60.7508 111.519C61.5895 111.716 62.1825 111.856 62.1831 112.156C62.2 120.781 72.4586 121.983 78.1754 121.983C80.3842 121.983 81.9157 121.804 81.9157 121.804L82.7817 127.091C82.8278 127.372 83.0549 127.518 83.284 127.518C83.4929 127.518 83.7026 127.396 83.7761 127.146ZM51.2494 91.5459H51.3214C51.4555 91.5445 51.5895 91.5375 51.7235 91.5243L47.9329 83.6087C47.2579 82.2027 45.8863 81.4408 44.4931 81.4352H44.4616C44.201 81.4361 43.94 81.4638 43.6827 81.5184C43.1982 81.6216 42.7278 81.8207 42.3003 82.1212H42.2998L47.6859 89.6911C48.5368 90.8862 49.8788 91.5347 51.2494 91.5459Z" fill="#F4A48D"/>
<path d="M83.256 121.377L50.1496 116.311C46.473 115.747 43.949 112.307 44.5123 108.626L58.0256 20.3411C58.589 16.6604 62.0261 14.1324 65.7037 14.6952L98.809 19.7624C102.487 20.3256 105.01 23.7656 104.446 27.4463L90.9336 115.732C90.3703 119.413 86.9333 121.94 83.256 121.377Z" fill="#9E3667"/>
<path d="M81.2228 121.066L48.1165 115.998C44.4399 115.436 41.9159 111.995 42.4791 108.315L55.9919 20.0295C56.5558 16.3489 59.9929 13.8209 63.67 14.3836L96.7759 19.4512C100.453 20.0135 102.977 23.4539 102.413 27.1347L88.9004 115.42C88.3371 119.101 84.8994 121.629 81.2228 121.066Z" fill="white"/>
<path d="M101.841 30.8853L89.3492 112.496C88.9607 115.033 85.8108 116.655 83.2783 116.268L46.8107 110.686C44.2767 110.298 42.5395 107.928 42.9278 105.391L55.4194 23.7802C55.8078 21.2427 58.1745 19.4991 60.709 19.8869L97.1756 25.4688C99.7083 25.8564 102.229 28.348 101.841 30.8853Z" fill="white"/>
<path fill-rule="evenodd" clip-rule="evenodd" d="M88.7378 22.3873C89.3502 22.4813 89.9231 22.0601 90.0166 21.4471C90.1107 20.8335 89.6901 20.2607 89.0779 20.1668C88.4654 20.0733 87.8926 20.494 87.7985 21.1076C87.7049 21.7206 88.125 22.2939 88.7378 22.3873ZM72.437 19.3484C72.7559 19.3973 73.0542 19.178 73.1033 18.8583C73.1522 18.5385 72.9331 18.2399 72.6138 18.1909C72.2944 18.142 71.9959 18.3614 71.9475 18.6811C71.898 19.0008 72.1175 19.2995 72.437 19.3484ZM70.8621 18.5152C70.8131 18.8345 70.5148 19.0544 70.1959 19.0055C69.8764 18.956 69.6574 18.6579 69.7064 18.3381C69.7554 18.0183 70.0538 17.799 70.3726 17.8479C70.6921 17.8968 70.9111 18.1955 70.8621 18.5152ZM77.0425 19.7764L82.4031 20.5969C82.5733 20.6233 82.7323 20.5064 82.7583 20.3359C82.7843 20.1655 82.6674 20.0064 82.4971 19.9805L77.1365 19.1598C76.9668 19.134 76.8078 19.2505 76.7813 19.4209C76.7554 19.5913 76.8718 19.7505 77.0425 19.7764Z" fill="#DEEDF2"/>
<path d="M83.2516 121.357L50.1452 116.291C46.4686 115.727 43.9446 112.287 44.5079 108.605L58.0212 20.3206C58.5846 16.6399 62.0217 14.1119 65.6993 14.6747L98.8046 19.7419C102.482 20.3051 105.006 23.7451 104.442 27.4257L90.9292 115.711C90.3659 119.392 86.9289 121.919 83.2516 121.357Z" fill="#9E3667"/>
<path d="M81.2182 121.045L48.1118 115.978C44.4352 115.416 41.9113 111.975 42.4744 108.294L55.9873 20.009C56.5511 16.3284 59.9882 13.8004 63.6654 14.3631L96.7712 19.4307C100.448 19.993 102.973 23.4334 102.409 27.1142L88.8957 115.399C88.3324 119.08 84.8947 121.608 81.2182 121.045Z" fill="white"/>
<path d="M101.836 30.8648L89.3445 112.476C88.9561 115.013 85.8061 116.635 83.2736 116.247L46.8061 110.665C44.272 110.277 42.5349 107.907 42.9231 105.37L55.4147 23.7597C55.8031 21.2222 58.1698 19.4786 60.7044 19.8664L97.171 25.4483C99.7036 25.8359 102.224 28.3275 101.836 30.8648Z" fill="white"/>
<path d="M89.7586 109.774L89.3447 112.475C89.3232 112.611 89.2952 112.744 89.2586 112.873C88.6217 115.179 85.6704 116.614 83.2743 116.247L46.8069 110.665C44.5731 110.323 42.9564 108.441 42.8738 106.261C42.8626 105.967 42.8773 105.67 42.9238 105.369L43.3372 102.668L89.7586 109.774Z" fill="#CEDEE7"/>
<path d="M89.7584 109.774L89.3446 112.475C89.323 112.611 89.2951 112.744 89.2584 112.873L89.234 112.87L89.3432 112.158L42.9717 105.06L43.3372 102.668L89.7584 109.774Z" fill="#EC0000"/>
<path fill-rule="evenodd" clip-rule="evenodd" d="M60.9749 90.0958L48.8469 88.2393L46.9884 100.381L59.117 102.237L60.9749 90.0958ZM62.7674 90.3702L74.8953 92.2267L73.0369 104.368L60.9094 102.512L62.7674 90.3702ZM76.688 92.5011L88.8164 94.3575L86.9579 106.499L74.8295 104.643L76.688 92.5011Z" fill="#CEDEE7"/>
<path fill-rule="evenodd" clip-rule="evenodd" d="M88.7334 22.3668C89.3458 22.4608 89.9187 22.0396 90.0122 21.4266C90.1064 20.813 89.6857 20.2402 89.0735 20.1463C88.461 20.0528 87.8882 20.4735 87.7941 21.087C87.7006 21.7001 88.1206 22.2734 88.7334 22.3668ZM72.4326 19.3279C72.7515 19.3768 73.0498 19.1575 73.0989 18.8377C73.1478 18.518 72.9287 18.2194 72.6095 18.1704C72.29 18.1215 71.9915 18.3409 71.9431 18.6606C71.8936 18.9803 72.1131 19.279 72.4326 19.3279ZM70.8577 18.4947C70.8087 18.814 70.5104 19.0339 70.1915 18.985C69.872 18.9355 69.653 18.6374 69.702 18.3176C69.751 17.9978 70.0494 17.7785 70.3682 17.8274C70.6877 17.8763 70.9067 18.175 70.8577 18.4947ZM77.0381 19.7559L82.3987 20.5764C82.5689 20.6028 82.728 20.4859 82.7539 20.3154C82.7799 20.145 82.663 19.9859 82.4927 19.96L77.1321 19.1393C76.9625 19.1135 76.8034 19.2299 76.7769 19.4004C76.751 19.5708 76.8674 19.73 77.0381 19.7559Z" fill="#DEEDF2"/>
<path d="M101.836 30.8643L99.8485 43.8519L53.4271 36.7468L55.415 23.7593C55.8034 21.2218 58.1702 19.4779 60.7047 19.866L97.1713 25.4479C99.7039 25.8354 102.225 28.327 101.836 30.8643Z" fill="#EC0000"/>
<path d="M96.9881 62.5613L50.5677 55.4562L53.426 36.7834L99.8459 43.8884L96.9881 62.5613Z" fill="#DEEDF2"/>
<path d="M94.5512 52.5973C94.0926 55.5949 91.2929 57.6538 88.2985 57.1952C85.3043 56.7368 83.2486 53.9353 83.707 50.9376C84.1666 47.9399 86.9658 45.8812 89.9606 46.3396C92.955 46.7977 95.0101 49.5997 94.5512 52.5973Z" fill="#CEDEE7"/>
<path d="M81.2742 50.0335L56.4039 46.2272L56.2623 47.1521L81.1326 50.9589L81.2742 50.0335Z" fill="white"/>
<path d="M97.0026 62.4706L94.1444 81.1436L47.725 74.0379L49.0205 65.5704L49.4404 62.8229L50.5832 55.3655L58.1531 56.5247L59.082 56.6676L60.9997 56.9597L61.0878 56.9729L97.0026 62.4706Z" fill="#9BC3D3"/>
<path d="M91.6351 71.6495C91.1765 74.6471 88.3768 76.7059 85.3824 76.2474C82.3882 75.7889 80.3325 72.9874 80.7909 69.9898C81.25 66.9921 84.0497 64.9333 87.044 65.3913C90.0389 65.8498 92.094 68.6518 91.6351 71.6495Z" fill="#DEEDF2"/>
<path d="M73.6516 68.0139L56.592 65.4031L56.4504 66.3285L73.5101 68.9394L73.6516 68.0139Z" fill="#DEEDF2"/>
<path d="M44.4983 70.0455L43.5364 70.8041C41.6813 72.2681 41.1018 74.8311 42.1451 76.9519L47.4644 87.7668C48.4922 89.8571 50.9653 90.7876 53.114 89.8934L53.1901 89.8617C55.32 88.9751 56.4079 86.5948 55.6849 84.4018L51.6661 72.205C50.6728 69.1904 46.9889 68.0805 44.4983 70.0455Z" fill="#FFC4B8"/>
<path d="M85.3815 142.795L84.7581 141.506C84.069 140.083 83.5817 138.58 83.3079 137.038C83.029 135.497 82.9636 133.919 83.1155 132.343C83.7938 125.285 85.4716 118.391 88.0708 111.86C90.2924 106.282 93.1847 100.97 96.7081 96.0456L97.424 95.0436C99.0674 92.7438 99.7476 89.8927 99.3196 87.097L98.9043 84.4078C98.3859 81.0254 98.3149 77.5908 98.6982 74.1905C98.6982 74.1905 99.4061 63.6121 103.515 56.5261C104.086 55.5429 104.986 54.8305 105.979 54.3798C106.972 53.9288 108.092 53.7616 109.215 53.9358C109.657 54.0041 110.056 54.1774 110.391 54.4298C111.102 54.9582 111.527 55.8321 111.447 56.7734L110.673 66.0159L110.653 66.2551L115.02 94.8821C115.533 98.2424 115.501 101.66 114.93 105.01L112.788 122.724L110.985 137.62L110.985 137.621L121.269 155.453L128.37 167.768H86.0679L76.3084 150.846L76.1462 150.564L75.7742 149.918L85.1047 143L85.3808 142.795L85.3815 142.795Z" fill="#FFC4B8"/>
</svg>
