<svg width="56" height="62" viewBox="0 0 56 62" fill="none" xmlns="http://www.w3.org/2000/svg">
<path d="M34.0966 50.2366C29.3007 53.6474 22.4951 55.3001 16.7222 55.2633L17.3702 51.1697L19.1315 40.0598L30.6404 41.8854L36.5722 43.3645L40.4065 43.9703L40.5272 43.8057L40.5818 43.9989L43.0304 52.5306L34.0973 50.2367L34.0966 50.2366Z" fill="#34466B"/>
<path d="M36.191 48.6302C25.6535 52.3913 13.5375 48.2385 7.75577 38.3207C1.30817 27.2572 5.1839 13.2089 16.4137 6.94396C27.6436 0.678432 41.9743 4.56739 48.4224 15.6303C54.2028 25.5494 51.6866 37.8659 43.0122 44.8241L42.9991 52.5563L36.191 48.6302Z" fill="white"/>
</svg>
