<svg width="11" height="6" viewBox="0 0 11 6" fill="none" xmlns="http://www.w3.org/2000/svg">
<path fill-rule="evenodd" clip-rule="evenodd" d="M5.00079 6C4.73355 5.99889 4.47786 5.89096 4.29079 5.70029L0.290793 1.70415C-0.0969309 1.31449 -0.0969309 0.685174 0.290793 0.295513C0.478559 0.106383 0.734155 0 1.00079 0C1.26743 0 1.52303 0.106383 1.71079 0.295513L5.00079 3.58234L8.29079 0.295513C8.47856 0.106383 8.73415 0 9.00079 0C9.26743 0 9.52303 0.106383 9.71079 0.295513C10.0985 0.685174 10.0985 1.31449 9.71079 1.70415L5.71079 5.70029C5.52372 5.89096 5.26804 5.99889 5.00079 6Z" fill="#EC0000"/>
<mask id="mask0" mask-type="alpha" maskUnits="userSpaceOnUse" x="0" y="0" width="11" height="6">
<path fill-rule="evenodd" clip-rule="evenodd" d="M5.00079 6C4.73355 5.99889 4.47786 5.89096 4.29079 5.70029L0.290793 1.70415C-0.0969309 1.31449 -0.0969309 0.685174 0.290793 0.295513C0.478559 0.106383 0.734155 0 1.00079 0C1.26743 0 1.52303 0.106383 1.71079 0.295513L5.00079 3.58234L8.29079 0.295513C8.47856 0.106383 8.73415 0 9.00079 0C9.26743 0 9.52303 0.106383 9.71079 0.295513C10.0985 0.685174 10.0985 1.31449 9.71079 1.70415L5.71079 5.70029C5.52372 5.89096 5.26804 5.99889 5.00079 6Z" fill="white"/>
</mask>
<g mask="url(#mask0)">
</g>
</svg>
