<svg width="187" height="170" viewBox="0 0 187 170" fill="none" xmlns="http://www.w3.org/2000/svg">
<path fill-rule="evenodd" clip-rule="evenodd" d="M72.5308 159.054C72.0391 158.78 71.5569 158.503 71.084 158.223C61.5613 152.583 48.9451 148.902 35.2727 147.519C26.9739 146.679 19.0333 144.472 12.6169 140.898C-4.18911 131.536 -4.2082 116.438 12.5751 107.063C19.9789 102.928 29.4194 100.617 39.0999 100.13C47.3874 99.7131 55.1738 97.6984 60.9236 94.3464C60.9977 94.3033 61.0724 94.2604 61.147 94.2179C70.9557 88.6422 86.8226 88.587 96.7502 94.0965C96.8071 94.1279 96.8635 94.1596 96.9194 94.1914C99.5714 95.6911 103.399 96.346 107.108 95.9447C128.254 93.6567 150.995 97.0755 167.373 106.202C193.542 120.785 193.542 144.471 167.373 159.054C141.182 173.649 98.7207 173.649 72.5308 159.054Z" fill="#DEEDF2"/>
<path fill-rule="evenodd" clip-rule="evenodd" d="M133.282 127.212C133.282 129.709 123.142 131.732 110.635 131.732C98.1278 131.732 87.9885 129.709 87.9885 127.212C87.9885 124.716 98.1278 122.692 110.635 122.692C123.142 122.692 133.282 124.716 133.282 127.212Z" fill="#9BC3D3"/>
<path fill-rule="evenodd" clip-rule="evenodd" d="M122.637 108.193C120.556 111.923 116.949 114.219 113.654 114.232C112.661 114.236 111.699 114.031 110.813 113.598C110.421 113.406 110.057 113.174 109.726 112.907C106.837 110.611 106.357 105.78 108.778 101.42C110.51 98.3112 113.304 96.2035 116.095 95.5826C117.663 95.2284 119.226 95.3421 120.602 96.0156C124.135 97.7472 125.185 102.54 123.183 107.091C123.024 107.459 122.842 107.83 122.637 108.193ZM122.777 92.1108C120.901 91.1925 118.778 90.9913 116.641 91.4024C112.488 92.1895 108.279 95.2896 105.703 99.916C101.798 106.93 103.114 114.805 108.638 117.503C108.993 117.678 109.357 117.822 109.726 117.944C110.803 118.303 111.942 118.452 113.104 118.408C117.765 118.233 122.791 114.954 125.712 109.698C126.192 108.836 126.589 107.966 126.916 107.091C129.23 100.83 127.625 94.4808 122.777 92.1108Z" fill="#C3DEE7"/>
<path fill-rule="evenodd" clip-rule="evenodd" d="M117.621 83.917C117.621 83.9389 117.616 83.9564 117.611 83.9783V83.9871L116.641 91.4031L116.095 95.5833L114.588 107.092L113.654 114.233L113.104 118.408L112.829 120.529C112.511 122.939 111.391 125.086 109.726 126.747C107.56 128.925 104.472 130.267 101.084 130.267H95.7039C90.2445 130.267 85.5597 126.782 84.2392 121.928C84.1271 121.539 84.0432 121.137 83.9824 120.73L79.8249 93.1827L78.4345 83.9871C78.4298 83.9651 78.4252 83.9389 78.4252 83.917H117.621Z" fill="#C3DEE7"/>
<path fill-rule="evenodd" clip-rule="evenodd" d="M117.621 83.917C117.621 83.9389 117.616 83.9564 117.611 83.9783V83.9871L116.641 91.4031L116.095 95.5833L114.588 107.092L113.654 114.233L113.104 118.408L112.829 120.529C112.511 122.939 111.391 125.086 109.726 126.747C107.56 128.925 104.472 130.267 101.084 130.267H98.205C99.5768 129.668 100.809 128.824 101.83 127.797C103.496 126.135 104.616 123.988 104.933 121.579L105.209 119.458L105.759 115.282L106.693 108.142L108.2 96.6328L108.746 92.4525L109.716 85.0364V85.0276C109.721 85.0059 109.726 84.9884 109.726 84.9665" fill="white"/>
<path fill-rule="evenodd" clip-rule="evenodd" d="M117.62 83.9173C117.62 84.4564 115.599 84.9471 112.302 85.3121C108.729 85.7056 103.652 85.9538 98.0214 85.9538C92.3907 85.9538 87.3138 85.7056 83.7405 85.3121C80.4441 84.9471 78.4232 84.4564 78.4232 83.9173C78.4232 82.7935 87.1981 81.8809 98.0214 81.8809C108.845 81.8809 117.62 82.7935 117.62 83.9173Z" fill="#990000"/>
<path fill-rule="evenodd" clip-rule="evenodd" d="M116.46 49.2554L103.594 65.2464C100.921 68.5669 99.6151 72.6768 99.9149 76.8226L100.283 81.8948L100.509 85.0112L100.577 85.9362C99.7404 85.9474 98.8875 85.9536 98.0213 85.9536C97.2483 85.9536 96.4862 85.9487 95.7372 85.9399C95.2708 85.9337 94.8097 85.9263 94.3553 85.9176L93.9114 85.0112L92.4201 81.9658L86.9403 70.7781C83.4981 63.7574 85.4532 55.4557 91.7287 50.4245C95.9437 47.0455 98.1933 42.2024 98.1933 37.2734C98.1933 34.558 97.5096 31.8127 96.0956 29.2753L83.7115 7.06665C82.3175 4.57287 83.4942 1.49896 86.2648 0.390863C86.9217 0.126876 87.6135 0 88.301 0C89.7857 0 91.2381 0.602556 92.2444 1.70939L95.4719 5.26641L115.779 27.6493C121.379 33.821 121.662 42.7863 116.46 49.2554Z" fill="#DEEDF2"/>
<path fill-rule="evenodd" clip-rule="evenodd" d="M83.7082 129.056C83.0986 129.567 55.8892 144.959 55.8892 144.959C55.8892 144.959 20.8226 126.61 22.0305 126.937C23.2384 127.263 83.7082 129.056 83.7082 129.056Z" fill="#9BC3D3"/>
<path fill-rule="evenodd" clip-rule="evenodd" d="M83.7082 129.056L50.7998 112.016L22.0305 126.937L50.9462 141.921L59.0301 141.846L83.7082 129.056Z" fill="#FFE99F"/>
<path fill-rule="evenodd" clip-rule="evenodd" d="M54.9223 137.656L59.029 141.846L50.9465 141.921L54.9223 137.656Z" fill="#D39E00"/>
<path fill-rule="evenodd" clip-rule="evenodd" d="M52.5542 134.675C52.5562 134.609 52.5594 134.542 52.5614 134.476C52.7034 134.469 52.8436 134.462 52.9647 134.457C53.1103 134.449 53.3041 134.44 53.4498 134.432C53.7415 134.418 54.1292 134.4 54.421 134.385C54.7121 134.372 55.1005 134.353 55.391 134.339C55.5371 134.332 55.7322 134.322 55.8771 134.316C56.0329 134.308 56.2166 134.299 56.3986 134.29L56.3991 134.291C56.5489 134.283 60.7738 133.986 61.3625 133.981L61.3663 133.976L61.3995 133.98C61.4101 133.981 61.4202 133.981 61.4202 133.981L61.4255 133.983L120.952 141.421L122.036 142.043L122.119 143.897L121.118 145.131L61.5305 137.686L61.4872 137.661C59.7057 137.107 57.6633 136.244 55.889 135.7C54.7776 135.357 53.6662 135.015 52.5542 134.675Z" fill="#9BC3D3"/>
<path fill-rule="evenodd" clip-rule="evenodd" d="M53.0277 133.387C53.1697 133.38 53.3099 133.373 53.4317 133.366C53.5765 133.36 53.7704 133.351 53.916 133.343C54.2078 133.329 54.5955 133.311 54.8873 133.296C55.1783 133.283 55.5668 133.264 55.8585 133.249C56.0035 133.243 56.1985 133.234 56.3429 133.226C56.4992 133.22 56.6829 133.21 56.8649 133.201L56.3547 134.609C55.2438 134.269 54.1325 133.927 53.0205 133.586C53.0225 133.52 53.0269 133.452 53.0277 133.387Z" fill="black"/>
<path fill-rule="evenodd" clip-rule="evenodd" d="M56.865 133.201C57.0224 133.194 61.6763 132.867 61.892 132.892C61.8701 133.076 61.8141 133.119 61.6059 133.368C61.1104 133.96 60.8568 134.981 61.1777 135.692C61.317 136.003 61.7993 136.525 62.0273 136.595C60.2277 136.043 58.1538 135.161 56.356 134.61C56.0691 134.343 56.5381 133.279 56.865 133.201Z" fill="#FFC4B8"/>
<path fill-rule="evenodd" clip-rule="evenodd" d="M120.503 143.42L60.916 135.976L61.9972 136.597L121.584 144.041L120.503 143.42Z" fill="#D39E00"/>
<path fill-rule="evenodd" clip-rule="evenodd" d="M120.419 141.566L60.8317 134.122L60.9153 135.976L120.504 143.42L120.419 141.566Z" fill="#D39E00"/>
<path fill-rule="evenodd" clip-rule="evenodd" d="M121.419 140.332L61.8322 132.888L60.8323 134.121L120.418 141.566L121.419 140.332Z" fill="#FFCC33"/>
<path fill-rule="evenodd" clip-rule="evenodd" d="M120.419 141.566L120.504 143.419L121.584 144.042L122.585 142.807L122.503 140.954L121.42 140.332L120.419 141.566Z" fill="#D39E00"/>
</svg>
