<svg width="200" height="118" viewBox="0 0 200 118" fill="none" xmlns="http://www.w3.org/2000/svg">
<path fill-rule="evenodd" clip-rule="evenodd" d="M197.03 21.9236C197.03 34.0316 187.213 43.8472 175.106 43.8472C162.997 43.8472 153.182 34.0316 153.182 21.9236C153.182 9.81562 162.997 0 175.106 0C187.213 0 197.03 9.81562 197.03 21.9236Z" fill="#D8EDEE"/>
<path fill-rule="evenodd" clip-rule="evenodd" d="M63.9675 44.5896C63.9675 56.6976 54.1519 66.5133 42.0439 66.5133C32.927 66.5133 25.1105 60.948 21.8042 53.0292C20.7198 50.432 20.1202 47.5809 20.1202 44.5896C20.1202 32.4817 29.9358 22.666 42.0439 22.666C47.545 22.666 52.573 24.6929 56.4209 28.0386C61.045 32.0585 63.9675 37.9827 63.9675 44.5896Z" fill="#D8EDEE"/>
<path fill-rule="evenodd" clip-rule="evenodd" d="M63.8445 76.8963C62.7692 79.5367 63.223 82.5681 65.0466 84.7831L69.1856 89.8061C69.6948 90.4231 70.0872 91.079 70.3746 91.7544C70.5861 92.253 70.7408 92.7633 70.84 93.275C71.7111 97.782 68.3627 102.546 63.1691 102.546H45.5554C39.8466 102.546 36.0753 96.6111 38.5 91.4464L40.029 88.1937C41.59 84.8675 40.6155 80.9046 37.6887 78.6808L33.032 75.1465L30.8027 73.4537C26.1371 69.912 26.9045 62.6841 32.209 60.1996C35.13 58.8319 36.6967 55.9974 36.6967 53.1292C36.6967 51.0398 35.8652 48.9314 34.1189 47.3593L32.3316 45.7511C27.5217 41.4207 29.7844 33.458 36.1526 32.3001L50.3261 29.7253C55.4527 28.7935 60.0323 33.0555 59.4662 38.2333L59.2459 40.2571C58.8039 44.3033 61.554 48.0069 65.5572 48.7562L65.9497 48.8307C70.9145 49.761 73.6965 55.0918 71.6162 59.6921L63.9612 76.625C63.9204 76.7154 63.8824 76.8044 63.8445 76.8963Z" fill="#D8EDEE"/>
<path fill-rule="evenodd" clip-rule="evenodd" d="M20.1379 44.5185V44.5115C20.1379 44.5025 20.1379 44.4934 20.1381 44.4844C20.1379 44.4959 20.1379 44.5069 20.1379 44.5185Z" fill="#D8EDEE"/>
<path fill-rule="evenodd" clip-rule="evenodd" d="M34.4343 58.6632C32.6131 58.4881 30.8576 58.0888 29.1955 57.4933C23.7677 55.5488 20.1394 50.4215 20.1202 44.6566C20.1202 44.6498 20.1202 44.6431 20.1202 44.6363V44.527C20.1202 44.5166 20.1202 44.5068 20.1204 44.4965C20.1204 44.4685 20.1207 44.4405 20.1209 44.4125C20.2121 32.4161 30.0559 22.666 42.0412 22.666C42.0779 22.666 42.1138 22.6662 42.1505 22.6663C44.274 22.6768 46.326 22.9893 48.2658 23.5629C52.5989 24.8443 55.9548 28.0592 57.4611 32.1097C56.0326 30.5622 53.9908 29.5944 51.752 29.5944C51.2871 29.5944 50.8134 29.6362 50.3354 29.7232L36.1624 32.299C29.7945 33.4574 27.5318 41.4233 32.3415 45.7554L34.1287 47.3643C35.875 48.937 36.7065 51.0463 36.7065 53.1365C36.7065 55.1642 35.924 57.1751 34.4343 58.6632Z" fill="#B9DBDE"/>
<path fill-rule="evenodd" clip-rule="evenodd" d="M36.5619 58.7692C35.8497 58.7692 35.1455 58.7351 34.4508 58.6683C35.9404 57.1801 36.7229 55.169 36.7229 53.1411C36.7229 51.0507 35.8914 48.9412 34.1452 47.3683L32.3581 45.7593C27.5485 41.4267 29.8111 33.46 36.1788 32.3015L50.3513 29.7254C50.8293 29.6384 51.303 29.5967 51.7679 29.5967C54.0066 29.5967 56.0484 30.5645 57.4768 32.1122C58.0337 33.6102 58.3378 35.2228 58.3448 36.8935C58.345 36.9214 58.345 36.9492 58.3451 36.9771V37.0177C58.345 37.0591 58.3448 37.1006 58.3445 37.142C58.2605 49.1538 48.5736 58.7692 36.5619 58.7692Z" fill="#B9DBDE"/>
<path fill-rule="evenodd" clip-rule="evenodd" d="M152.617 57.6025H131.817C109.669 57.6025 89.205 69.4241 78.1314 88.6141H57.6956L40.8416 117.822H62.4257C72.76 117.822 82.3095 112.305 87.477 103.35C88.3966 101.757 90.0962 100.775 91.9354 100.775H111.004C121.337 100.775 130.887 95.2585 136.054 86.3037L152.617 57.6025Z" fill="#D8EDEE"/>
<path fill-rule="evenodd" clip-rule="evenodd" d="M154.455 32.2842H133.655C111.509 32.2842 91.0441 44.1057 79.9707 63.2958H59.5345L42.6803 92.5034H64.2646C74.5992 92.5034 84.1488 86.9871 89.3163 78.0321C90.2358 76.4386 91.9355 75.4568 93.7746 75.4568H112.842C123.177 75.4568 132.727 69.9402 137.895 60.9854L154.455 32.2842Z" fill="#D8EDEE"/>
<path fill-rule="evenodd" clip-rule="evenodd" d="M81.4356 89.1401L70.8216 93.2793L47.055 102.546H45.5221C39.8101 102.546 36.0366 96.614 38.4628 91.4515L39.9926 88.2002C41.5546 84.8756 40.5795 80.9142 37.6511 78.6914L32.9915 75.1587C39.1371 74.2536 46.0536 73.8193 52.9277 74.5698C56.6135 74.9707 60.2878 75.714 63.822 76.9079C69.8976 78.9598 75.5629 82.3439 80.1787 87.6229C80.6064 88.1111 81.0253 88.6169 81.4356 89.1401Z" fill="#FFFFFE"/>
<path fill-rule="evenodd" clip-rule="evenodd" d="M162.17 76.3721C162.17 77.0418 162.197 77.7045 162.251 78.3595H126.886L104.692 39.9003H82.7106L71.4688 20.4173L71.3651 20.2381L61.8104 3.67773H88.5759C101.393 3.67773 113.235 10.5198 119.642 21.6241C120.214 22.6134 121.024 23.4117 121.98 23.9632C122.935 24.5161 124.031 24.8182 125.171 24.8182H148.818C161.633 24.8182 173.475 31.6603 179.884 42.766C182.36 47.0553 180.606 52.5379 176.11 54.608C167.881 58.3956 162.17 66.7166 162.17 76.3721Z" fill="#D8EDEE"/>
<path fill-rule="evenodd" clip-rule="evenodd" d="M155.304 39.8226C140.109 42.0552 124.492 46.9523 114.631 57.072L114.304 56.5059L90.0488 51.1552L82.7321 39.8999L71.487 20.4164L71.3834 20.2372L65.2758 9.65332H71.2521C84.0726 9.65332 95.9187 16.4956 102.327 27.6001C102.898 28.5896 103.709 29.3878 104.664 29.9393C105.62 30.4924 106.717 30.7944 107.858 30.7944H131.511C140.409 30.7944 148.836 34.0907 155.304 39.8226Z" fill="#B8DCDE"/>
<path fill-rule="evenodd" clip-rule="evenodd" d="M25.3889 98.4237C25.9032 98.3871 26.4152 98.3631 26.927 98.3326L28.4581 98.2601C28.9679 98.2337 29.4759 98.218 29.9834 98.1991C30.4909 98.1807 30.9997 98.135 31.5064 98.1042C32.5204 98.0399 33.5307 97.9805 34.5375 97.927C35.5453 97.8555 36.5496 97.7622 37.5509 97.6845L39.0499 97.5684L40.5429 97.4074L42.0312 97.2465L42.7733 97.1704C43.0205 97.1453 43.2675 97.1222 43.5134 97.0831C44.4976 96.9401 45.4787 96.8098 46.4564 96.6755C46.7008 96.6402 46.9458 96.6126 47.1888 96.5714L47.9167 96.445L49.3689 96.1932C53.2292 95.5049 57.0023 94.6207 60.6294 93.4562C61.5291 93.1434 62.4237 92.8255 63.3188 92.5239C64.2023 92.1863 65.0737 91.8271 65.9477 91.484C66.0562 91.4394 66.1668 91.4 66.2742 91.3529L66.5951 91.2077L67.2361 90.9181L68.5154 90.3425L68.8349 90.1992C68.9407 90.15 69.0433 90.0933 69.1474 90.041L69.771 89.7223L71.0184 89.0937C74.3109 87.3542 77.4303 85.3383 80.3967 83.0705C81.8849 81.9422 83.326 80.7387 84.7509 79.5006C85.1042 79.1857 85.4612 78.8784 85.8112 78.5582L86.8596 77.5956L87.9022 76.6188L88.9346 75.6234C91.673 72.9422 94.3436 70.1193 96.9874 67.1924C98.3114 65.7315 99.6367 64.2579 100.954 62.7597L104.933 58.251L106.943 55.9852L107.952 54.8493L108.457 54.2808C108.534 54.1924 108.644 54.0755 108.742 53.9681L109.042 53.6418C110.652 51.908 112.386 50.3187 114.201 48.8796C117.844 46.0044 121.797 43.7417 125.843 41.9294C126.349 41.7049 126.855 41.4779 127.366 41.2706C127.874 41.0573 128.383 40.8452 128.896 40.6494C129.406 40.4465 129.92 40.254 130.436 40.0713L131.208 39.7932L131.981 39.5298C134.044 38.825 136.123 38.2282 138.206 37.7001C142.375 36.6545 146.565 35.9181 150.751 35.4294C151.273 35.3654 151.797 35.3086 152.319 35.2543C152.842 35.1955 153.366 35.1488 153.888 35.1038L154.672 35.0362L155.455 34.9828L157.022 34.8766C159.11 34.7211 161.194 34.6843 163.276 34.625C167.437 34.5865 171.579 34.7104 175.697 35.0125C179.816 35.3338 183.909 35.8171 187.967 36.4791C192.022 37.1526 196.054 37.9655 200 39.1213C195.905 39.3929 191.86 39.7029 187.831 40.0659C183.806 40.4249 179.806 40.8447 175.837 41.3234C171.867 41.8212 167.93 42.3946 164.032 43.0415C162.091 43.4126 160.144 43.7152 158.227 44.1391L156.787 44.4282L156.067 44.5725L155.351 44.7302L153.922 45.0522C153.446 45.1593 152.972 45.2686 152.501 45.3845C150.611 45.8439 148.735 46.3246 146.886 46.8603C146.423 46.994 145.961 47.1246 145.502 47.2648C145.042 47.4003 144.583 47.5389 144.129 47.685L143.444 47.9006L142.766 48.1256L142.087 48.3495L141.412 48.58C139.617 49.1955 137.855 49.8704 136.13 50.5868L135.484 50.8574L134.847 51.1393L134.21 51.4221L133.58 51.7139C133.158 51.903 132.744 52.1048 132.331 52.3061C131.913 52.5031 131.508 52.7149 131.102 52.9238C129.481 53.7693 127.906 54.6571 126.413 55.631C126.038 55.8724 125.677 56.1277 125.305 56.3698L124.225 57.1316C123.879 57.3969 123.526 57.6563 123.181 57.9234C122.846 58.1983 122.5 58.4628 122.171 58.7434C120.844 59.8491 119.609 61.0246 118.492 62.2771L118.278 62.5097C118.207 62.5893 118.142 62.6568 118.054 62.7592L117.556 63.3281L116.558 64.4668L114.552 66.7503C113.202 68.2665 111.848 69.7918 110.467 71.3087L108.376 73.5765C107.672 74.331 106.97 75.088 106.247 75.8326C103.378 78.8259 100.375 81.7779 97.1626 84.5781L95.9491 85.6219L94.7157 86.6511L93.456 87.657C93.0352 87.9914 92.6024 88.3162 92.1764 88.6454C90.4607 89.9559 88.673 91.1935 86.8367 92.369C83.1513 94.7015 79.2242 96.7288 75.1292 98.2875C71.0383 99.8556 66.8027 100.98 62.5497 101.649C58.2945 102.314 54.0329 102.546 49.8299 102.457L48.2553 102.412L47.4699 102.388C47.2083 102.377 46.9472 102.351 46.6862 102.333C45.6425 102.253 44.6019 102.177 43.5645 102.089C42.5284 101.987 41.4974 101.844 40.4684 101.715C39.9544 101.648 39.4402 101.589 38.9284 101.512L37.3975 101.251L35.8717 100.983C35.3642 100.889 34.8559 100.812 34.3518 100.699C33.3431 100.481 32.3379 100.258 31.3361 100.029C30.836 99.9086 30.3347 99.8034 29.8372 99.6712C29.34 99.5388 28.8434 99.4091 28.3484 99.2693L26.865 98.8558C26.3722 98.7114 25.8795 98.5736 25.3889 98.4237Z" fill="#FFFFFE"/>
<path fill-rule="evenodd" clip-rule="evenodd" d="M111.139 12.1995L114.993 3.35938L111.139 12.1995Z" fill="#B8DCDE"/>
<path fill-rule="evenodd" clip-rule="evenodd" d="M118.883 34.9894C118.883 29.7458 114.632 25.4951 109.388 25.4951C104.145 25.4951 99.8939 29.7458 99.8939 34.9894C99.8939 40.2329 104.145 44.4838 109.388 44.4838C114.632 44.4838 118.883 40.2329 118.883 34.9894Z" fill="#B8DCDE"/>
<path fill-rule="evenodd" clip-rule="evenodd" d="M144.731 32.3904C144.731 29.3437 142.261 26.874 139.215 26.874C136.168 26.874 133.699 29.3437 133.699 32.3904C133.699 35.4367 136.168 37.9066 139.215 37.9066C142.261 37.9066 144.731 35.4367 144.731 32.3904Z" fill="#B8DCDE"/>
<path fill-rule="evenodd" clip-rule="evenodd" d="M104.967 58.2388C103.598 57.8444 102.522 56.9239 102.511 55.0064V54.9486C102.512 54.6342 102.542 54.294 102.604 53.9248L107.779 55.067L106.954 55.9965L104.967 58.2388Z" fill="#B9DBDE"/>
<path fill-rule="evenodd" clip-rule="evenodd" d="M107.784 55.0561L102.617 53.9166C102.765 53.0237 103.101 51.9637 103.668 50.7093C104.777 48.2541 106.293 46.1689 108.099 44.4013C108.519 44.4575 108.944 44.4864 109.378 44.4864C113.496 44.4864 117.003 41.8674 118.323 38.2038C123.587 36.2465 129.358 35.3746 134.459 35.042C135.108 36.2109 136.17 37.119 137.447 37.57C135.597 38.0675 133.75 38.6197 131.919 39.2616C130.887 39.6212 129.856 40.0028 128.831 40.4107C127.807 40.8196 126.791 41.2599 125.778 41.7215C123.752 42.6437 121.764 43.698 119.816 44.867C117.871 46.0411 115.986 47.3612 114.172 48.8108C112.469 50.1987 110.832 51.7095 109.321 53.3601C109.232 53.4524 109.147 53.5453 109.06 53.6385L108.759 53.9651C108.661 54.0725 108.552 54.1895 108.474 54.278L107.969 54.8469L107.784 55.0561Z" fill="#9BCBCF"/>
<path fill-rule="evenodd" clip-rule="evenodd" d="M105.04 58.2394C105.01 58.2311 104.979 58.2226 104.95 58.214L106.92 55.9635L107.738 55.0305L107.922 54.82L108.424 54.2477C108.501 54.1586 108.609 54.041 108.707 53.9328L109.005 53.6043C109.092 53.5105 109.176 53.4171 109.264 53.3242C109.178 53.4183 109.093 53.5131 109.01 53.6081L108.439 54.262L107.944 54.8399L106.954 55.995L105.04 58.2394Z" fill="#D8EDEE"/>
<path fill-rule="evenodd" clip-rule="evenodd" d="M109.345 44.4837C108.91 44.4837 108.483 44.4546 108.062 44.3983C110.912 41.6134 114.48 39.6147 118.317 38.1895C116.993 41.8599 113.475 44.4837 109.345 44.4837Z" fill="#9BCBCF"/>
<path fill-rule="evenodd" clip-rule="evenodd" d="M143.14 36.2798C143.508 35.9041 143.824 35.4756 144.074 35.0068C146.349 35.1144 147.973 35.2813 148.621 35.3548C148.589 35.3591 148.559 35.3636 148.528 35.3678C148.528 35.3678 148.528 35.3677 148.526 35.3677C147.795 35.4716 147.061 35.5833 146.33 35.7035C145.265 35.8776 144.202 36.0694 143.14 36.2798Z" fill="#9BCBCF"/>
<path fill-rule="evenodd" clip-rule="evenodd" d="M137.405 37.588C136.123 37.1338 135.057 36.2193 134.406 35.042C136.366 34.9139 138.228 34.8652 139.924 34.8652C141.481 34.8652 142.901 34.9062 144.13 34.9644C143.879 35.4359 143.562 35.867 143.191 36.245C141.497 36.5805 139.803 36.9636 138.115 37.3988C137.878 37.461 137.642 37.5241 137.405 37.588Z" fill="#9BCBCF"/>
<path fill-rule="evenodd" clip-rule="evenodd" d="M200 39.11C195.896 39.4789 191.848 39.8441 187.823 40.2589C183.8 40.6684 179.805 41.1202 175.843 41.6365C167.922 42.673 160.113 43.9391 152.564 45.738C148.79 46.63 145.086 47.6595 141.5 48.8729C137.912 50.073 134.451 51.4837 131.192 53.1105C127.942 54.7522 124.895 56.6241 122.218 58.8002C120.87 59.8775 119.629 61.0425 118.479 62.2671L118.265 62.4978C118.193 62.5766 118.128 62.6439 118.038 62.7452L117.533 63.3085L116.521 64.4364C115.846 65.1884 115.172 65.9451 114.487 66.6953C113.121 68.1975 111.751 69.71 110.354 71.2111C108.955 72.7095 107.542 74.2121 106.094 75.6964C103.199 78.6646 100.179 81.5886 96.957 84.3649C95.3441 85.75 93.6891 87.1084 91.9632 88.3952C91.5319 88.7174 91.1018 89.0397 90.662 89.3536L90.0058 89.8266L89.3412 90.2911C88.4546 90.9095 87.5442 91.5005 86.6299 92.0846C82.9584 94.4042 79.0413 96.3986 74.9735 97.9569C70.9027 99.5098 66.6928 100.627 62.4653 101.307C60.3502 101.641 58.2328 101.882 56.12 102.02C55.0643 102.099 54.009 102.138 52.9566 102.168L51.3797 102.193C50.8547 102.194 50.3304 102.186 49.8068 102.18C47.7123 102.142 45.6292 102.037 43.5616 101.848C43.0446 101.806 42.5288 101.745 42.0137 101.694L41.2417 101.613L40.4713 101.516L38.9348 101.317L37.4047 101.086C36.8949 101.012 36.3874 100.923 35.8803 100.834C35.3736 100.743 34.8665 100.662 34.3619 100.563C33.353 100.363 32.3453 100.174 31.3448 99.941C30.8446 99.828 30.3438 99.7226 29.8453 99.6034C29.3468 99.4868 28.8499 99.3597 28.3531 99.2368C27.3594 98.9939 26.373 98.7136 25.3889 98.4378C25.9015 98.4168 26.4117 98.4055 26.9221 98.3899C27.4322 98.3745 27.9408 98.3698 28.4502 98.3476C28.9592 98.3308 29.468 98.3096 29.9749 98.2992C30.4819 98.2865 30.9894 98.2598 31.496 98.2407C33.522 98.1582 35.5378 98.0484 37.5423 97.9068C39.5467 97.7685 41.5389 97.5765 43.5162 97.3578C45.4932 97.1341 47.4531 96.8521 49.393 96.5291C53.2722 95.8767 57.0631 94.9878 60.7129 93.8276C64.3619 92.6631 67.8619 91.2119 71.1753 89.4589C74.4963 87.7187 77.623 85.6638 80.6041 83.3811C81.3466 82.8047 82.0818 82.2187 82.8066 81.614L83.3515 81.1629L83.8909 80.7024C84.2517 80.398 84.6064 80.0826 84.9618 79.7688C86.3783 78.5079 87.7739 77.2054 89.1372 75.8504C94.6014 70.4439 99.7279 64.4051 104.998 58.3051L106.978 56.0128L107.974 54.8649L108.472 54.2906L109.046 53.6409C110.628 51.8804 112.352 50.2768 114.15 48.8107C115.963 47.3615 117.846 46.0418 119.79 44.868C121.737 43.6994 123.724 42.6453 125.748 41.7234C126.76 41.262 127.776 40.8217 128.799 40.413C129.824 40.0052 130.853 39.6237 131.884 39.2642C133.948 38.5407 136.031 37.931 138.116 37.3852C142.293 36.3123 146.492 35.5588 150.686 35.0511C154.881 34.5506 159.07 34.2936 163.241 34.2398C167.411 34.1868 171.565 34.3386 175.691 34.6764C179.816 35.0154 183.914 35.539 187.974 36.2525C190.004 36.6116 192.024 37.0198 194.033 37.4857C196.038 37.9621 198.036 38.4642 200 39.11Z" fill="#FFFFFE"/>
<path fill-rule="evenodd" clip-rule="evenodd" d="M157.921 38.2315L157.672 37.6111L155.569 37.868C155.569 37.868 155.584 37.8724 155.607 37.8841L154.311 37.9979L149.956 38.414L149.858 38.4227V38.4198L149.956 38.414L149.838 38.1571C149.838 38.1571 147.92 38.3352 146.925 38.376C146.872 38.1745 146.834 38.0359 146.819 37.9979C146.686 37.6432 146.42 37.4054 146.083 37.268L145.682 36.8287C145.64 36.7951 145.657 36.728 145.709 36.7193C145.709 36.7193 147.252 36.6405 147.509 36.6052C147.531 36.6025 147.551 36.6084 147.57 36.6201C147.676 36.69 147.967 36.9236 148.121 36.8667C148.246 36.82 148.243 36.7309 148.243 36.7309C148.434 36.7689 148.83 36.6842 149.099 36.6157C149.263 36.5748 149.379 36.4273 149.384 36.258L149.39 35.8171C149.395 35.6303 149.26 35.4683 149.077 35.4392C148.926 35.4143 148.736 35.3852 148.543 35.3604C146.719 35.6186 144.893 35.9252 143.07 36.2885C142.554 37.4168 142.467 40.0472 144.499 43.8556C142.701 43.9417 140.536 43.2059 139.807 43.0863C138.009 42.7914 136.107 42.7987 134.441 43.5285C132.773 44.2569 131.39 45.8204 131.259 47.6361C134.977 46.2405 139.164 46.769 143.043 46.0682C142.527 46.3341 142.116 46.5558 141.95 46.6655L141.948 46.664L141.255 46.9486L141.666 48.0548C141.666 48.0548 142.394 47.9164 142.434 47.9077C142.636 47.8974 143.029 47.8711 143.526 47.839C144.008 47.8068 144.587 47.766 145.193 47.725C146.616 47.3004 148.054 46.9003 149.504 46.5238C149.369 46.3573 149.225 46.1736 149.081 45.9808C149.382 45.9414 149.681 45.8553 149.971 45.7181C151.143 45.1606 151.786 43.9344 151.659 42.711C151.626 42.3842 151.536 42.0544 151.385 41.7376C151.3 41.5565 151.197 41.3874 151.082 41.2326C152.537 40.6647 153.979 40.0721 154.944 39.6137C155.383 39.405 155.751 39.2284 155.924 39.1453L155.905 39.1774L157.921 38.2315ZM156.277 43.6323L155.697 43.3213C155.515 43.2251 155.294 43.2819 155.177 43.4512C155.095 43.5724 155.009 43.7256 154.962 43.8936C154.569 43.8701 154.693 44.619 154.737 44.8146C154.701 44.927 154.645 45.0321 154.574 45.1253L154.436 45.3328C155.025 45.2 155.612 45.0701 156.204 44.9446C156.319 44.6627 156.414 44.321 156.474 44.0803C156.519 43.9037 156.436 43.7198 156.277 43.6323Z" fill="#D8EDEE"/>
<path fill-rule="evenodd" clip-rule="evenodd" d="M1.80334 103.854H70.9688V100.389H1.80334V103.854Z" fill="#D8EDEE"/>
<path fill-rule="evenodd" clip-rule="evenodd" d="M163.685 27.4023C164.485 27.6646 175.064 24.9568 177.791 26.6982C180.517 28.4395 193.514 24.8584 193.514 24.8584L193.544 25.2597C193.861 29.5346 190.368 33.122 186.094 32.9118L170.04 32.1228C167.163 31.9815 164.655 30.1183 163.685 27.4023Z" fill="#D8EDEE"/>
<path fill-rule="evenodd" clip-rule="evenodd" d="M116.566 33.7518C116.566 33.7516 116.566 33.7514 116.566 33.7512H116.567C116.567 33.7514 116.567 33.7516 116.566 33.7518Z" fill="#B2B9B7"/>
<path fill-rule="evenodd" clip-rule="evenodd" d="M152.365 33.1052C152.395 32.883 152.258 32.673 152.041 32.6118C151.535 32.4676 150.657 32.241 150.333 32.2971C150.2 32.32 150.04 32.3594 149.909 32.3405C149.07 32.2204 146.644 32.0172 145.502 32.1519C144.184 32.3074 144.273 35.8836 144.273 35.8836L145.818 36.1032L148.692 35.037L147.794 33.8044C147.748 33.7587 147.778 33.6806 147.843 33.6777C147.843 33.6777 149.698 33.7943 150.007 33.7877C150.035 33.7871 150.059 33.7957 150.079 33.8134C150.195 33.9112 150.513 34.2287 150.703 34.1819C150.859 34.1431 150.867 34.0358 150.867 34.0358C151.092 34.107 151.576 34.0607 151.908 34.0161C152.11 33.989 152.269 33.8304 152.295 33.6289L152.365 33.1052Z" fill="#ED9E87"/>
<path fill-rule="evenodd" clip-rule="evenodd" d="M157.907 43.561C157.441 43.4804 157.485 44.393 157.511 44.6329C157.452 44.7616 157.373 44.8801 157.273 44.9829L154.732 48.0192C154.492 48.2674 154.141 48.3744 153.803 48.3024L151.961 47.6262L150.919 50.5777C150.919 50.5777 152.853 51.5766 154.97 50.702C156.689 49.9919 158.116 47.2737 158.438 46.1375C158.512 45.8757 158.669 45.6456 158.887 45.4811C159.183 45.2557 159.516 44.4608 159.693 43.9922C159.771 43.7862 159.698 43.5546 159.517 43.4292L158.866 42.9779C158.663 42.837 158.389 42.8746 158.227 43.0613C158.11 43.1956 157.988 43.3671 157.907 43.561Z" fill="#ED9E87"/>
<path fill-rule="evenodd" clip-rule="evenodd" d="M153.261 40.0989L153.289 39.8867C153.289 39.8867 152.998 39.9195 153.006 39.9365C153.013 39.9533 153.261 40.0989 153.261 40.0989Z" fill="#0E1E2C"/>
<path fill-rule="evenodd" clip-rule="evenodd" d="M152.539 35.9619L152.652 36.2802L152.369 36.2667L152.539 35.9619Z" fill="#0E1E2C"/>
<path fill-rule="evenodd" clip-rule="evenodd" d="M159.802 37.949C159.802 37.949 159.202 38.1589 158.436 38.4219C155.347 39.4816 148.434 41.17 147.242 41.3363L147.821 36.209L157.901 36.3996L159.69 36.4463C159.69 36.4463 160.642 36.8811 159.802 37.949Z" fill="#ED9E87"/>
<path fill-rule="evenodd" clip-rule="evenodd" d="M152.521 35.9889C152.521 35.9889 152.352 37.9971 153.218 40.1703L148.587 41.832C148.587 41.832 148.224 35.6063 148.319 35.7525C148.415 35.8988 152.521 35.9889 152.521 35.9889Z" fill="#0E1E2C"/>
<path fill-rule="evenodd" clip-rule="evenodd" d="M162.164 37.1766L159.629 38.0477C160.469 36.9607 159.406 36.4041 159.406 36.4041L161.951 36.3857L162.164 37.1766Z" fill="#AD3D67"/>
<path fill-rule="evenodd" clip-rule="evenodd" d="M150.672 46.9948C150.672 46.9948 142.759 46.6518 142.232 46.6047C141.704 46.5579 141.323 45.4333 141.931 45.0857C142.538 44.7382 147.958 42.8223 147.958 42.8223L150.672 46.9948Z" fill="#ED9E87"/>
<path fill-rule="evenodd" clip-rule="evenodd" d="M150.672 46.9948C150.672 46.9948 149.547 46.9461 148.116 46.8828C145.755 46.7782 142.562 46.634 142.233 46.6047C142.191 46.601 142.151 46.5909 142.112 46.5748C141.978 46.5198 141.858 46.3972 141.771 46.2433C141.676 46.0779 141.62 45.8763 141.62 45.6831C141.621 45.4408 141.711 45.212 141.932 45.0857C142.539 44.7382 147.958 42.8223 147.958 42.8223L150.672 46.9948Z" fill="#E67A64"/>
<path fill-rule="evenodd" clip-rule="evenodd" d="M145.799 47.0299C145.799 47.0299 145.687 45.258 144.802 43.4218L147.188 43.0342L148.373 45.8066L147.751 46.9092L145.799 47.0299Z" fill="#0E1E2C"/>
<path fill-rule="evenodd" clip-rule="evenodd" d="M146.075 46.7822L146.178 47.1005L146.287 46.8254L146.075 46.7822Z" fill="#0E1E2C"/>
<path fill-rule="evenodd" clip-rule="evenodd" d="M145.163 43.847L145.156 43.458L145.439 43.7426L145.163 43.847Z" fill="#0E1E2C"/>
<path fill-rule="evenodd" clip-rule="evenodd" d="M142.389 46.607C142.342 46.6124 141.461 46.6762 141.461 46.6762L141.125 45.3256L141.983 45.085C141.983 45.085 142.466 46.3195 142.389 46.607Z" fill="#AD3D67"/>
<path fill-rule="evenodd" clip-rule="evenodd" d="M152.9 47.7324C152.9 47.4489 151.678 46.9061 151.678 46.9061C151.678 46.9061 149.553 43.8313 149.567 42.7695C149.583 41.7079 149.613 40.3009 149.613 40.3009C149.613 40.3009 149.048 35.6477 148.977 35.3622C148.514 33.5166 145.008 33.7457 144.131 35.5976C144.096 35.6703 144.086 35.7526 144.102 35.8315C144.303 36.8122 145.723 43.7466 146.111 45.0193C146.528 46.3893 146.832 47.8726 147.792 48.9483C148.596 49.8515 150.234 50.7426 150.739 51.0054C150.848 51.0622 150.974 51.0766 151.093 51.0434C151.576 50.9071 152.906 50.3144 152.9 47.7324Z" fill="#AD3D67"/>
<path fill-rule="evenodd" clip-rule="evenodd" d="M149.859 41.6352C149.277 41.7256 149.343 42.4204 148.532 43.0907C148.169 43.3908 147.635 43.6851 146.788 43.9197L146.762 43.9269C141.042 45.5004 134.826 43.2932 129.067 44.7311C129.476 42.5822 131.34 40.9067 133.434 40.2642C135.526 39.6218 137.801 39.8723 139.906 40.4696C140.86 40.7391 143.842 42.1671 146.137 42.0344C146.159 42.033 146.183 42.0315 146.205 42.0285C146.768 41.9733 147.323 41.6425 147.872 41.2681C148.505 40.8397 149.131 40.356 149.759 40.1796L149.859 41.6352Z" fill="#F9C927"/>
<path fill-rule="evenodd" clip-rule="evenodd" d="M148.515 43.1197C148.152 43.419 147.615 43.7126 146.766 43.9466L146.739 43.9538L146.181 42.0603C146.746 42.0051 147.303 41.6752 147.853 41.3018L148.515 43.1197Z" fill="#F9C927"/>
<path fill-rule="evenodd" clip-rule="evenodd" d="M154.137 41.6577C154.122 43.1425 153.184 44.5234 151.699 45.0313C149.814 45.6759 147.762 44.6698 147.119 42.7853C146.474 40.9008 147.479 38.8522 149.366 38.2078C150.041 37.9765 150.737 37.9576 151.381 38.1155C152.537 38.3954 153.532 39.2431 153.945 40.4527C154.08 40.8524 154.143 41.2595 154.137 41.6577Z" fill="#F9C927"/>
<path fill-rule="evenodd" clip-rule="evenodd" d="M67.8218 80.4694C67.8218 80.5734 67.7683 80.676 67.6738 80.7356C67.5228 80.8293 67.3228 80.7769 67.2375 80.6209L66.9293 80.0623L67.0468 80.8935C67.0727 81.0863 66.9826 81.2764 66.8164 81.3758L66.2991 81.6851C66.0993 81.8045 65.8445 81.7646 65.6903 81.5899L64.3157 80.0331L60.6602 73.7731C59.8958 72.464 59.7278 70.8888 60.1994 69.4465L60.9043 67.291C61.8594 67.3951 63.1227 67.7335 64.1631 68.704L62.8435 71.9419L65.0191 77.798C65.1182 78.0643 65.3243 78.277 65.5882 78.3843L66.7003 78.8358C66.8759 78.9079 67.0239 79.0349 67.1216 79.1988L67.7776 80.3102C67.8079 80.3606 67.8218 80.4141 67.8218 80.4694Z" fill="#71323E"/>
<path fill-rule="evenodd" clip-rule="evenodd" d="M66.0636 81.7535H66.0401C65.9096 81.7504 65.7821 81.6941 65.6903 81.5901L64.3157 80.0333L60.6601 73.7731C60.1875 72.9639 59.943 72.0528 59.9364 71.1345V71.0595C59.9403 70.5171 60.0271 69.9728 60.1993 69.4464L60.9043 67.291H60.9057C61.8606 67.3952 63.1231 67.7338 64.1631 68.7039L62.8435 71.9418L65.0191 77.7981C65.1182 78.0644 65.3243 78.2771 65.5882 78.3845L66.7003 78.8359C66.8759 78.908 67.0239 79.035 67.1216 79.1989L67.7776 80.3104C67.8079 80.3608 67.8218 80.4143 67.8218 80.4696C67.8218 80.5736 67.7683 80.6762 67.6738 80.7358C67.6228 80.7674 67.5663 80.7825 67.5106 80.7825C67.4009 80.7825 67.2939 80.7245 67.2375 80.6211L66.9292 80.0624L67.0468 80.8936C67.0498 80.9163 67.0512 80.9388 67.0512 80.9613C67.0506 81.1299 66.9632 81.2881 66.8164 81.376L66.2991 81.6853C66.2256 81.7291 66.1444 81.7516 66.0636 81.7535Z" fill="#491D24"/>
<path fill-rule="evenodd" clip-rule="evenodd" d="M51.4498 89.0373L50.9514 92.8574L48.6917 87.4981L50.0298 86.9521L51.4498 89.0373Z" fill="#223A59"/>
<path fill-rule="evenodd" clip-rule="evenodd" d="M56.1582 71.3574L61.3709 80.3929C62.0572 81.5825 61.6504 83.1039 60.4622 83.7912L51.4541 89.0024L50.0354 86.9097L58.8309 82.0085L54.1045 74.3913L56.1582 71.3574Z" fill="#223A59"/>
<path fill-rule="evenodd" clip-rule="evenodd" d="M72.7495 62.0922C72.7894 61.9022 72.8112 61.7057 72.8112 61.504C72.8112 59.935 71.5382 58.6631 69.9678 58.6631C68.3975 58.6631 67.1243 59.935 67.1243 61.504C67.1243 61.6938 67.1438 61.8791 67.1794 62.0585L66.5318 62.3636L66.3013 66.5132L68.546 65.4664L69.1382 66.0582C69.4954 66.4149 70.0871 66.3689 70.3846 65.9609L71.1276 64.9429L71.6513 65.2045L72.175 63.5601L72.8784 62.2336L72.7495 62.0922Z" fill="#71323E"/>
<path fill-rule="evenodd" clip-rule="evenodd" d="M66.771 61.1249C66.6993 61.733 67.0155 62.3391 67.5865 62.5689C67.9163 62.7017 68.3323 62.7176 68.8086 62.4101C70.0212 61.6269 70.1779 60.7818 71.5092 61.499C72.8404 62.2162 72.9491 60.7416 72.9491 60.7416L69.9357 59.2998L67.2718 59.7299C67.2718 59.7299 66.8696 60.2889 66.771 61.1249Z" fill="#281518"/>
<path fill-rule="evenodd" clip-rule="evenodd" d="M50.3576 76.1158L48.5532 77.0146L47.5582 77.5105L45.5472 76.49H43.9051C43.6386 76.49 43.4229 76.2739 43.4229 76.0093C43.4229 75.877 43.4765 75.7568 43.5636 75.6703C43.651 75.5836 43.7719 75.5303 43.9051 75.5303H50.2183C50.5474 75.5303 50.6516 75.9698 50.3576 76.1158Z" fill="#87BEC6"/>
<path fill-rule="evenodd" clip-rule="evenodd" d="M50.3576 76.1158L48.5532 77.0146L47.5582 77.5105L45.5472 76.49H43.9051C43.6386 76.49 43.4229 76.2739 43.4229 76.0093C43.4229 75.877 43.4765 75.7568 43.5636 75.6703C43.651 75.5836 43.7719 75.5303 43.9051 75.5303H50.2183C50.5474 75.5303 50.6516 75.9698 50.3576 76.1158Z" fill="#87BEC6"/>
<path fill-rule="evenodd" clip-rule="evenodd" d="M47.1005 76.5967L51.1954 95.5403C51.2444 95.7705 51.375 95.9638 51.543 96.0912C51.7113 96.2192 51.915 96.2872 52.1242 96.2875C52.3663 96.2886 52.621 96.1908 52.8087 95.9918L63.8614 84.3431L63.3579 83.8657L52.3051 95.5142C52.249 95.5721 52.1906 95.5925 52.1242 95.5936C52.0676 95.5939 52.0089 95.5741 51.9648 95.54C51.9205 95.5052 51.8892 95.4617 51.8739 95.3937L47.7789 76.4502L47.1005 76.5967Z" fill="#87BEC6"/>
<path fill-rule="evenodd" clip-rule="evenodd" d="M48.7271 82.7795H63.0835V82.0723H48.7271V82.7795Z" fill="#87BEC6"/>
<path fill-rule="evenodd" clip-rule="evenodd" d="M51.9802 82.7795H56.1528V82.0723H51.9802V82.7795Z" fill="#63A2B2"/>
<path fill-rule="evenodd" clip-rule="evenodd" d="M64.6098 82.3284L66.6282 81.7183C67.2207 81.5391 67.6869 81.0789 67.8739 80.4878C67.9344 80.2966 67.9633 80.1034 67.9633 79.9151C67.9631 79.4073 67.7552 78.9393 67.4194 78.5989C67.0843 78.2582 66.614 78.0409 66.0934 78.041C65.9914 78.041 65.8877 78.0494 65.7833 78.0665L61.563 78.7583L66.1884 93.2461L66.8484 93.0347L62.4675 79.3132L65.8953 78.7514C65.963 78.7401 66.029 78.7349 66.0934 78.7349C66.4201 78.7351 66.7117 78.8695 66.9264 79.0865C67.1406 79.3038 67.2706 79.5994 67.2704 79.9151C67.2704 80.0329 67.2526 80.1542 67.2134 80.2781C67.0955 80.6508 66.8017 80.941 66.4279 81.0539L64.4096 81.6642L64.6099 82.3284" fill="#87BEC6"/>
<path fill-rule="evenodd" clip-rule="evenodd" d="M51.9095 96.2007L42.8331 92.9272L49.1955 83.4121L48.6158 83.0273L41.761 93.2788L51.6724 96.8534L51.9095 96.2007Z" fill="#87BEC6"/>
<path fill-rule="evenodd" clip-rule="evenodd" d="M55.3731 98.338L50.2476 96.7284L50.923 95.6152L56.1174 97.5285L55.3731 98.338Z" fill="#87BEC6"/>
<mask id="mask0" mask-type="alpha" maskUnits="userSpaceOnUse" x="50" y="95" width="7" height="4">
<path fill-rule="evenodd" clip-rule="evenodd" d="M50.2593 95.6279H56.1488V98.3278H50.2593V95.6279Z" fill="white"/>
</mask>
<g mask="url(#mask0)">
<path fill-rule="evenodd" clip-rule="evenodd" d="M55.4019 98.3275L50.2592 96.7314H50.2593L55.4019 98.3275L56.1488 97.5248L55.4019 98.3275Z" fill="#B8DCDE"/>
<path fill-rule="evenodd" clip-rule="evenodd" d="M55.4019 98.3278L50.2592 96.7318L50.2593 96.7315L50.9369 95.6279L56.1488 97.5251L55.4019 98.3278Z" fill="#63A2B2"/>
</g>
<path fill-rule="evenodd" clip-rule="evenodd" d="M66.5134 62.3408L66.2824 66.4878C66.2824 66.4878 64.4211 68.5435 62.2231 70.1898C62.116 70.2706 62.0057 70.3517 61.8972 70.4295C60.8938 71.1512 59.8384 71.7656 58.8671 72.0468C58.5765 72.1308 58.2936 72.186 58.0215 72.2041L56.2273 74.5197L57.6954 80.6277C58.1604 82.5565 58.0411 84.5787 57.3545 86.4405L54.2204 94.9434L51.7776 94.3946L54.5753 83.1724L49.982 75.223C48.2415 72.2119 49.0857 68.3492 51.9597 66.3899C54.9762 64.3354 59.667 62.3408 66.5134 62.3408Z" fill="#87BEC6"/>
<path fill-rule="evenodd" clip-rule="evenodd" d="M54.203 94.9599L56.8954 98.1967L50.9194 95.6311L51.7625 94.4131L54.203 94.9599Z" fill="#87BEC6"/>
<path fill-rule="evenodd" clip-rule="evenodd" d="M66.5465 61.4452L69.3399 63.8251C69.465 63.9317 69.6543 63.9183 69.7626 63.7951L71.1787 62.1832C71.287 62.06 71.2734 61.8736 71.1483 61.7669C71.0231 61.6601 70.8338 61.6735 70.7255 61.7969L69.5054 63.1855L66.9385 60.9987C66.8133 60.892 66.624 60.9056 66.5157 61.0288C66.4075 61.1522 66.4213 61.3386 66.5465 61.4452Z" fill="#AD3D67"/>
<path fill-rule="evenodd" clip-rule="evenodd" d="M69.1006 65.4845L69.8483 63.7478C69.9135 63.5964 69.8439 63.4209 69.6927 63.3555C69.5418 63.2903 69.3664 63.3601 69.3013 63.5115L68.5534 65.2482C68.4884 65.3994 68.558 65.5751 68.709 65.6403C68.8601 65.7057 69.0355 65.6359 69.1006 65.4845Z" fill="#AD3D67"/>
<path fill-rule="evenodd" clip-rule="evenodd" d="M68.8031 66.1561L69.1047 65.4802C69.1723 65.3288 69.1001 65.1533 68.9435 65.0879C68.7868 65.0227 68.6052 65.0925 68.5375 65.2439L68.236 65.9197C68.1685 66.0711 68.2407 66.2467 68.3972 66.312C68.5539 66.3772 68.7357 66.3075 68.8031 66.1561Z" fill="#AD3D67"/>
<path fill-rule="evenodd" clip-rule="evenodd" d="M66.2306 66.4816L67.077 66.867C67.077 66.867 67.7566 64.0072 66.4677 62.3408L66.2306 66.4816Z" fill="#7083A0"/>
<path fill-rule="evenodd" clip-rule="evenodd" d="M67.0439 93.1401C67.0439 93.4526 66.7905 93.7058 66.478 93.7058C66.1657 93.7058 65.9124 93.4526 65.9124 93.1401C65.9124 92.8276 66.1657 92.5742 66.478 92.5742C66.7905 92.5742 67.0439 92.8276 67.0439 93.1401Z" fill="#87BEC6"/>
<path fill-rule="evenodd" clip-rule="evenodd" d="M42.8925 93.1401C42.8925 93.4526 42.639 93.7058 42.3265 93.7058C42.0142 93.7058 41.761 93.4526 41.761 93.1401C41.761 92.8276 42.0142 92.5742 42.3265 92.5742C42.639 92.5742 42.8925 92.8276 42.8925 93.1401Z" fill="#87BEC6"/>
<path fill-rule="evenodd" clip-rule="evenodd" d="M68.3856 61.2746L70.134 61.1303L71.2725 62.2847L73.6209 63.26L73.5195 61.5402C73.4925 61.0847 73.1156 60.2529 73.1156 60.2529C72.9841 60.0381 72.748 59.7447 72.4797 59.4371C71.6128 58.4425 70.3265 57.9136 69.0081 58.0004C68.1077 58.06 67.3275 58.6446 67.0196 59.4908C66.6867 60.4043 67.4147 61.3547 68.3856 61.2746Z" fill="#CE242A"/>
<path fill-rule="evenodd" clip-rule="evenodd" d="M74.0165 93.1576H73.6697C73.6695 95.1398 72.8672 96.931 71.5684 98.2304C70.2692 99.5292 68.4778 100.331 66.4956 100.332C64.5137 100.332 62.7223 99.5292 61.423 98.2304C60.1243 96.931 59.3221 95.1398 59.3219 93.1576C59.3221 91.1756 60.1243 89.3844 61.423 88.085C62.7223 86.7862 64.5137 85.9841 66.4956 85.9839C68.4778 85.9841 70.2692 86.7862 71.5684 88.085C72.8672 89.3844 73.6695 91.1756 73.6697 93.1576H74.3636C74.3632 88.8124 70.8412 85.2902 66.4956 85.29C62.1504 85.2902 58.6282 88.8124 58.6281 93.1576C58.6282 97.503 62.1504 101.025 66.4956 101.026C70.8412 101.025 74.3632 97.503 74.3636 93.1576H74.0165Z" fill="#87BEC6"/>
<path fill-rule="evenodd" clip-rule="evenodd" d="M49.8298 93.1576H49.4829C49.4827 95.1398 48.6804 96.931 47.3816 98.2304C46.0824 99.5292 44.291 100.331 42.3088 100.332C40.3269 100.332 38.5355 99.5292 37.2363 98.2304C35.9375 96.931 35.1353 95.1398 35.1352 93.1576C35.1353 91.1756 35.9375 89.3844 37.2363 88.085C38.5355 86.7862 40.3267 85.9841 42.3088 85.9839C44.291 85.9841 46.0824 86.7862 47.3816 88.085C48.6804 89.3844 49.4827 91.1756 49.4829 93.1576H50.1768C50.1765 88.8124 46.6544 85.2902 42.3088 85.29C37.9637 85.2902 34.4414 88.8124 34.4413 93.1576C34.4414 97.503 37.9637 101.025 42.3088 101.026C46.6544 101.025 50.1765 97.503 50.1768 93.1576H49.8298Z" fill="#87BEC6"/>
<path fill-rule="evenodd" clip-rule="evenodd" d="M27.2984 89.0373L26.8002 92.8574L24.5403 87.4981L25.8786 86.9521L27.2984 89.0373Z" fill="#223A59"/>
<path fill-rule="evenodd" clip-rule="evenodd" d="M32.0069 71.3574L37.2196 80.3929C37.9058 81.5825 37.499 83.1039 36.3109 83.7912L27.3027 89.0024L25.884 86.9097L34.6797 82.0085L29.9531 74.3913L32.0069 71.3574Z" fill="#223A59"/>
<path fill-rule="evenodd" clip-rule="evenodd" d="M48.5276 62.0922C48.5676 61.9022 48.5892 61.7057 48.5892 61.504C48.5892 59.935 47.3161 58.6631 45.7457 58.6631C44.1755 58.6631 42.9021 59.935 42.9021 61.504C42.9021 61.6938 42.9217 61.8791 42.9574 62.0585L42.3096 62.3636L42.0792 66.5132L44.324 65.4664L44.9163 66.0582C45.2734 66.4149 45.865 66.3689 46.1626 65.9609L46.9059 64.9429L47.4293 65.2045L47.9531 63.5601L48.6563 62.2336L48.5276 62.0922Z" fill="#F3C0B2"/>
<path fill-rule="evenodd" clip-rule="evenodd" d="M42.5843 61.1249C42.5125 61.733 42.8287 62.3391 43.3999 62.5689C43.7295 62.7017 44.1456 62.7176 44.622 62.4101C45.8344 61.6269 45.9911 60.7818 47.3224 61.499C48.6536 62.2162 48.7623 60.7416 48.7623 60.7416L45.7489 59.2998L43.085 59.7299C43.085 59.7299 42.6829 60.2889 42.5843 61.1249Z" fill="#281518"/>
<path fill-rule="evenodd" clip-rule="evenodd" d="M26.1357 76.1158L24.3311 77.0146L23.3363 77.5105L21.3253 76.49H19.683C19.4166 76.49 19.2008 76.2739 19.2008 76.0093C19.2008 75.877 19.2546 75.7568 19.3417 75.6703C19.4289 75.5836 19.55 75.5303 19.683 75.5303H25.9962C26.3255 75.5303 26.4293 75.9698 26.1357 76.1158Z" fill="#87BEC6"/>
<path fill-rule="evenodd" clip-rule="evenodd" d="M26.1357 76.1158L24.3311 77.0146L23.3363 77.5105L21.3253 76.49H19.683C19.4166 76.49 19.2008 76.2739 19.2008 76.0093C19.2008 75.877 19.2546 75.7568 19.3417 75.6703C19.4289 75.5836 19.55 75.5303 19.683 75.5303H25.9962C26.3255 75.5303 26.4293 75.9698 26.1357 76.1158Z" fill="#87BEC6"/>
<path fill-rule="evenodd" clip-rule="evenodd" d="M22.9137 76.5967L27.0087 95.5403C27.0579 95.7705 27.1883 95.9638 27.3565 96.0912C27.5246 96.2192 27.7283 96.2872 27.9375 96.2875C28.1796 96.2886 28.4343 96.1908 28.622 95.9916L39.6747 84.3431L39.1709 83.8657L28.1184 95.5142C28.0621 95.5721 28.0039 95.5925 27.9375 95.5936C27.8809 95.5939 27.8222 95.5741 27.7781 95.54C27.7338 95.5052 27.7027 95.4617 27.6872 95.3937L23.5923 76.4502L22.9137 76.5967Z" fill="#87BEC6"/>
<path fill-rule="evenodd" clip-rule="evenodd" d="M24.5403 82.7795H38.8967V82.0723H24.5403V82.7795Z" fill="#87BEC6"/>
<path fill-rule="evenodd" clip-rule="evenodd" d="M27.7935 82.7795H31.966V82.0723H27.7935V82.7795Z" fill="#63A2B2"/>
<path fill-rule="evenodd" clip-rule="evenodd" d="M40.3878 82.3284L42.406 81.7183C42.9985 81.5391 43.4647 81.0789 43.6516 80.4878C43.7122 80.2966 43.7411 80.1036 43.7411 79.9151C43.7409 79.4075 43.533 78.9393 43.1973 78.5989C42.8622 78.2584 42.3919 78.0409 41.8711 78.041C41.7692 78.041 41.6656 78.0494 41.5611 78.0665L37.3408 78.7583L41.9663 93.2461L42.6263 93.0347L38.2453 79.3132L41.6732 78.7514C41.7407 78.7401 41.8069 78.7349 41.8711 78.7349C42.1981 78.7351 42.4896 78.8695 42.7043 79.0865C42.9184 79.3039 43.0484 79.5994 43.0483 79.9151C43.0483 80.0329 43.0304 80.1542 42.9913 80.2781C42.8734 80.6509 42.5796 80.9409 42.2058 81.0539L40.1876 81.6642L40.3878 82.3284Z" fill="#87BEC6"/>
<path fill-rule="evenodd" clip-rule="evenodd" d="M49.8298 93.1576H49.4829C49.4826 95.1398 48.6804 96.931 47.3817 98.2304C46.0823 99.5292 44.2911 100.332 42.3091 100.332C40.3269 100.332 38.5357 99.5292 37.2364 98.2304C35.9376 96.931 35.1355 95.1398 35.1352 93.1576C35.1355 91.1756 35.9376 89.3844 37.2364 88.085C38.5357 86.7862 40.3269 85.9841 42.3091 85.9839C44.2911 85.9841 46.0823 86.7862 47.3817 88.085C48.6804 89.3844 49.4826 91.1756 49.4829 93.1576H50.1768C50.1765 88.8124 46.6543 85.2902 42.3091 85.29C37.9638 85.2902 34.4416 88.8122 34.4413 93.1576C34.4416 97.503 37.9638 101.025 42.3091 101.026C46.6545 101.025 50.1765 97.503 50.1768 93.1576H49.8298Z" fill="#87BEC6"/>
<path fill-rule="evenodd" clip-rule="evenodd" d="M25.6433 93.1576H25.2963C25.2961 95.1398 24.4939 96.931 23.1952 98.2304C21.8958 99.5292 20.1045 100.331 18.1223 100.332C16.1403 100.332 14.349 99.5292 13.0496 98.2304C11.7509 96.931 10.9487 95.1398 10.9485 93.1576C10.9487 91.1756 11.7509 89.3844 13.0496 88.085C14.349 86.7862 16.1403 85.9841 18.1223 85.9839C20.1045 85.9841 21.8958 86.7862 23.1952 88.085C24.4939 89.3844 25.2961 91.1756 25.2963 93.1576H25.9901C25.99 88.8124 22.4678 85.2902 18.1223 85.29C13.777 85.2902 10.2548 88.8124 10.2546 93.1576C10.2548 97.503 13.777 101.025 18.1223 101.026C22.4679 101.025 25.99 97.503 25.9901 93.1576H25.6433Z" fill="#87BEC6"/>
<path fill-rule="evenodd" clip-rule="evenodd" d="M27.7581 96.2007L18.6819 92.9272L25.044 83.4121L24.4643 83.0273L17.6096 93.2788L27.5212 96.8534L27.7581 96.2007Z" fill="#87BEC6"/>
<path fill-rule="evenodd" clip-rule="evenodd" d="M42.2913 62.3408L42.0604 66.4878C42.0604 66.4878 40.1989 68.5435 38.0009 70.1898C37.8939 70.2706 37.7837 70.3517 37.6751 70.4295C36.6716 71.1512 35.6164 71.7656 34.6451 72.0468C34.3545 72.1308 34.0716 72.186 33.7993 72.2041L32.0052 74.5197L33.4734 80.6277C33.9384 82.5565 33.8191 84.5787 33.1325 86.4405L29.9984 94.9434L27.5556 94.3946L30.3532 83.1724L25.76 75.223C24.0195 72.2119 24.8636 68.3492 27.7376 66.3899C30.754 64.3354 35.445 62.3408 42.2913 62.3408Z" fill="#87BEC6"/>
<path fill-rule="evenodd" clip-rule="evenodd" d="M31.1863 98.338L26.0608 96.7284L26.7361 95.6152L31.9307 97.5285L31.1863 98.338Z" fill="#87BEC6"/>
<path fill-rule="evenodd" clip-rule="evenodd" d="M31.1863 98.338L30.8345 98.2275L26.0608 96.7284L26.7361 95.6152L31.9307 97.5285L31.1863 98.338Z" fill="#63A2B2"/>
<path fill-rule="evenodd" clip-rule="evenodd" d="M30.0164 94.9599L32.7086 98.1967L26.7327 95.6311L27.5758 94.4131L30.0164 94.9599Z" fill="#87BEC6"/>
<path fill-rule="evenodd" clip-rule="evenodd" d="M42.395 61.4452L45.1884 63.8251C45.3136 63.9317 45.5028 63.9183 45.6112 63.7951L47.0274 62.1832C47.1357 62.06 47.122 61.8736 46.9968 61.7669C46.8717 61.6601 46.6824 61.6735 46.5741 61.7969L45.3541 63.1855L42.7871 60.9987C42.662 60.892 42.4727 60.9056 42.3644 61.0288C42.2562 61.1522 42.2698 61.3386 42.395 61.4452Z" fill="#AD3D67"/>
<path fill-rule="evenodd" clip-rule="evenodd" d="M44.9156 65.488L45.6507 63.745L45.1128 63.5078L44.3777 65.2508" fill="#AD3D67"/>
<path fill-rule="evenodd" clip-rule="evenodd" d="M44.6135 66.1596L44.9081 65.4784L44.354 65.2402L44.0594 65.9214" fill="#AD3D67"/>
<path fill-rule="evenodd" clip-rule="evenodd" d="M42.0792 66.4816L42.9257 66.867C42.9257 66.867 43.6051 64.0072 42.3164 62.3408L42.0792 66.4816Z" fill="#7083A0"/>
<path fill-rule="evenodd" clip-rule="evenodd" d="M42.8925 93.1401C42.8925 93.4526 42.6392 93.7058 42.3267 93.7058C42.0143 93.7058 41.761 93.4526 41.761 93.1401C41.761 92.8276 42.0143 92.5742 42.3267 92.5742C42.6392 92.5742 42.8925 92.8276 42.8925 93.1401Z" fill="#87BEC6"/>
<path fill-rule="evenodd" clip-rule="evenodd" d="M18.6705 93.1401C18.6705 93.4526 18.4171 93.7058 18.1046 93.7058C17.7923 93.7058 17.5389 93.4526 17.5389 93.1401C17.5389 92.8276 17.7923 92.5742 18.1046 92.5742C18.4171 92.5742 18.6705 92.8276 18.6705 93.1401Z" fill="#87BEC6"/>
<path fill-rule="evenodd" clip-rule="evenodd" d="M43.6705 80.9646C43.6705 81.0688 43.617 81.1711 43.5224 81.2308C43.3716 81.3243 43.1715 81.2722 43.0861 81.1162L42.7779 80.5573L42.8954 81.3885C42.9213 81.5816 42.8314 81.7714 42.665 81.8709L42.1479 82.1802C41.9479 82.2996 41.6932 82.2597 41.5389 82.0853L40.1643 80.5284L36.5087 74.2683C35.7443 72.9593 35.5765 71.384 36.0481 69.9415L36.753 67.7861C37.708 67.89 38.9713 68.2287 40.0117 69.1993L38.6921 72.437L40.8679 78.293C40.967 78.5594 41.1729 78.7724 41.4368 78.8796L42.549 79.331C42.7245 79.4029 42.8726 79.5301 42.9702 79.6938L43.6263 80.8055C43.6567 80.8558 43.6705 80.9094 43.6705 80.9646Z" fill="#F3C0B2"/>
<path fill-rule="evenodd" clip-rule="evenodd" d="M41.372 65.5386C41.372 65.7481 41.3377 65.9501 41.2742 66.1383L41.2727 66.1411C41.2473 66.2197 41.2158 66.2948 41.1801 66.3672L40.0044 69.2364C38.9625 68.269 37.6965 67.931 36.7397 67.8275L37.6539 65.0418L37.6553 65.0382C37.8743 64.2373 38.6078 63.6494 39.4793 63.6494C40.5244 63.6494 41.372 64.4953 41.372 65.5386Z" fill="#87BEC6"/>
<path fill-rule="evenodd" clip-rule="evenodd" d="M44.1637 61.2746L45.9118 61.1303L47.0505 62.2847L49.3989 63.26L49.2975 61.5402C49.2705 61.0847 48.8936 60.2529 48.8936 60.2529C48.762 60.0381 48.5258 59.7447 48.2577 59.4371C47.3908 58.4425 46.1045 57.9136 44.7861 58.0004C43.8856 58.06 43.1054 58.6446 42.7975 59.4908C42.4648 60.4043 43.1925 61.3547 44.1637 61.2746Z" fill="#AD3D67"/>
<path fill-rule="evenodd" clip-rule="evenodd" d="M64.215 69.2364L66.3013 66.5098L63.6846 64.498L64.215 69.2364Z" fill="#87BEC6"/>
<path fill-rule="evenodd" clip-rule="evenodd" d="M64.1911 69.1999L63.3413 71.276L72.2064 72.8568L71.8094 74.6107L61.3057 73.8471C60.0219 73.7535 59.1866 72.4554 59.6337 71.2491L60.918 67.7861L62.1138 67.7864C62.7153 67.7864 63.284 68.0608 63.6585 68.5311L64.1911 69.1999Z" fill="#71323E"/>
<path fill-rule="evenodd" clip-rule="evenodd" d="M72.2403 72.8428L75.0905 73.2938C75.1845 73.3087 75.2386 73.4107 75.1992 73.4989L75.158 73.5917C75.1361 73.6403 75.0899 73.6733 75.0374 73.6771L73.503 73.7873L72.5126 74.4424C72.3354 74.5594 72.1271 74.6178 71.9162 74.6101L71.2164 74.5836L71.7691 72.8747L72.2403 72.8428Z" fill="#71323E"/>
<path fill-rule="evenodd" clip-rule="evenodd" d="M65.594 65.5386C65.594 65.7481 65.5596 65.9501 65.4964 66.1383L65.4946 66.1411C65.4695 66.2197 65.4379 66.2948 65.402 66.3672L64.2265 69.2364C63.1848 68.269 61.9187 67.931 60.9618 67.8275L61.876 65.0418L61.8776 65.0382C62.0963 64.2373 62.83 63.6494 63.7015 63.6494C64.7463 63.6494 65.594 64.4953 65.594 65.5386Z" fill="#87BEC6"/>
<path fill-rule="evenodd" clip-rule="evenodd" d="M152.376 44.6962C154.591 43.6489 155.076 41.1292 155.133 40.8234C155.246 40.1976 155.029 39.521 154.572 39.0771C154.5 39.3848 154.428 39.6923 154.355 40.0001C154.222 39.7014 154.267 39.3602 154.258 39.0342C154.25 38.708 154.156 38.3409 153.865 38.1872C153.529 38.0084 153.116 38.2116 152.821 38.4529C151.496 39.5368 151.033 41.5403 151.752 43.0889" fill="#F9C927"/>
<path fill-rule="evenodd" clip-rule="evenodd" d="M0 94.6257H8.52192V94.3428H0V94.6257Z" fill="#D8EDEE"/>
<path fill-rule="evenodd" clip-rule="evenodd" d="M7.67322 92.61H16.1951V92.3271H7.67322V92.61Z" fill="#D8EDEE"/>
</svg>
