<svg width="42" height="42" viewBox="0 0 42 42" fill="none" xmlns="http://www.w3.org/2000/svg">
<path fill-rule="evenodd" clip-rule="evenodd" d="M5.43516 39.4306H18.9246C19.4981 39.4306 19.9622 39.8947 19.9622 40.4682C19.9622 41.0418 19.4981 41.5059 18.9246 41.5059H4.39751C3.82397 41.5059 3.35986 41.0418 3.35986 40.4682V1.03765C3.35986 0.464104 3.82397 0 4.39751 0H20.9512C20.9552 0 20.959 0.00113922 20.9628 0.00227918C20.9665 0.003388 20.9702 0.00449752 20.974 0.00456004C20.9774 0.00445058 20.9804 0.00358477 20.9838 0.00263648L20.9838 0.00263488C20.9882 0.00138835 20.9932 0 20.9999 0C21.3525 0 21.6489 0.186959 21.8365 0.455617L32.0621 10.6812C32.2752 10.872 32.4151 11.1415 32.414 11.4496C32.4139 11.4644 32.4099 11.478 32.4059 11.4915C32.4025 11.5031 32.3991 11.5147 32.3981 11.5271L32.414 15.5607C32.416 16.1342 31.9539 16.6003 31.3804 16.6024C30.898 16.5983 30.3407 16.1423 30.3387 15.5688L30.3268 12.4809L21.0445 12.4518C20.475 12.4497 20.0129 11.9887 20.0109 11.4192L19.967 2.07529H5.43516V39.4306ZM28.8472 10.4009L22.0498 3.60352L22.0821 10.3795L28.8472 10.4009ZM19.9622 30.0918C19.9622 24.942 24.1513 20.7529 29.301 20.7529C34.4508 20.7529 38.6399 24.942 38.6399 30.0918C38.6399 35.2415 34.4508 39.4306 29.301 39.4306C24.1513 39.4306 19.9622 35.2415 19.9622 30.0918ZM22.0375 30.0918C22.0375 34.0964 25.2964 37.3553 29.3011 37.3553C33.3057 37.3553 36.5646 34.0964 36.5646 30.0918C36.5646 26.0871 33.3057 22.8282 29.3011 22.8282C25.2964 22.8282 22.0375 26.0871 22.0375 30.0918ZM28.2938 31.9553L31.8546 26.841C32.1829 26.3708 32.8315 26.2543 33.2976 26.5826C33.7698 26.9099 33.8853 27.5564 33.557 28.0266L29.145 34.366C28.9525 34.6446 28.6343 34.8108 28.2938 34.8108C27.9533 34.8108 27.6351 34.6446 27.4426 34.365L25.0005 30.8497C24.6722 30.3796 24.7897 29.733 25.2599 29.4057C25.728 29.0784 26.3766 29.195 26.7029 29.6662L28.2938 31.9553Z" fill="#444444"/>
</svg>
