<svg width="222" height="170" viewBox="0 0 222 170" fill="none" xmlns="http://www.w3.org/2000/svg">
<path fill-rule="evenodd" clip-rule="evenodd" d="M85.8892 146.74C85.307 146.158 84.7359 145.569 84.1759 144.974C72.8994 132.989 57.9596 125.168 41.769 122.228C31.9419 120.443 22.5388 115.754 14.9406 108.158C-4.96065 88.2637 -4.98324 56.1814 14.8912 36.2598C23.6585 27.4719 34.8378 22.5613 46.3011 21.5265C56.1149 20.6404 65.3355 16.3591 72.1442 9.23611C72.232 9.14442 72.3204 9.05338 72.4088 8.96301C84.024 -2.8853 102.813 -3.00253 114.569 8.70496C114.637 8.77177 114.703 8.83922 114.77 8.90668C117.91 12.0936 122.443 13.4853 126.835 12.6326C151.875 7.77038 178.805 15.0355 198.199 34.4292C229.188 65.4178 229.188 115.751 198.199 146.74C167.185 177.753 116.903 177.753 85.8892 146.74Z" fill="#DEEDF2"/>
</svg>
