<svg width="42" height="42" viewBox="0 0 42 42" fill="none" xmlns="http://www.w3.org/2000/svg">
<path fill-rule="evenodd" clip-rule="evenodd" d="M4.41002 8.65723V12.6263C4.41002 13.1337 3.98693 13.545 3.46502 13.545C2.94311 13.545 2.52002 13.1337 2.52002 12.6263V8.65723C2.52002 5.26842 5.34629 2.52002 8.83258 2.52002H12.915C13.4369 2.52002 13.86 2.93136 13.86 3.43877C13.86 3.94618 13.4369 4.35752 12.915 4.35752H8.83258C6.3902 4.35752 4.41002 6.28314 4.41002 8.65723ZM40.32 8.65723V12.6263C40.32 13.1337 39.8969 13.545 39.375 13.545C38.8531 13.545 38.43 13.1337 38.43 12.6263V8.65723C38.43 6.28314 36.4498 4.35752 34.0075 4.35752H29.925C29.4031 4.35752 28.98 3.94618 28.98 3.43877C28.98 2.93136 29.4031 2.52002 29.925 2.52002H34.0075C37.4938 2.52002 40.32 5.26842 40.32 8.65723ZM38.43 30.2138V34.1828C38.43 36.3462 36.7857 38.1372 34.6458 38.438L34.6406 37.2319C34.5094 33.5695 31.4851 30.87 26.6815 30.87L26.4595 30.8952C26.3387 30.923 26.1203 30.9722 25.8304 31.0357C25.3469 31.1415 24.8445 31.2473 24.3498 31.346C24.134 31.389 23.9241 31.4297 23.7213 31.4679C22.6718 31.6653 21.8709 31.781 21.496 31.7837C21.1024 31.7864 20.2461 31.6712 19.1197 31.4702C18.8993 31.4309 18.6709 31.3888 18.4361 31.3442C17.916 31.2455 17.3885 31.1396 16.8815 31.0337C16.5776 30.9702 16.3486 30.9209 16.222 30.8931L16.0093 30.87C11.2305 30.87 8.33232 33.5853 8.20003 37.2676L8.19459 38.4381C6.05448 38.1374 4.41002 36.3463 4.41002 34.1828V30.2138C4.41002 29.7064 3.98693 29.295 3.46502 29.295C2.94311 29.295 2.52002 29.7064 2.52002 30.2138V34.1828C2.52002 37.5716 5.34629 40.32 8.83258 40.32H12.915C13.4369 40.32 13.86 39.9087 13.86 39.4013C13.86 38.8939 13.4369 38.4825 12.915 38.4825H10.0842L10.0895 37.3022C10.1857 34.6345 12.2183 32.7062 15.9048 32.6705C16.0425 32.7003 16.2372 32.7419 16.4766 32.7919C16.9947 32.9001 17.5337 33.0083 18.0667 33.1095C18.3084 33.1554 18.5439 33.1988 18.7718 33.2395C20.0219 33.4625 20.951 33.5875 21.51 33.5836C22.0453 33.5798 22.9189 33.4536 24.0875 33.2337C24.2976 33.1942 24.5145 33.1521 24.737 33.1078C25.2449 33.0065 25.7591 32.8982 26.2538 32.7899C26.4771 32.741 26.6597 32.7002 26.7908 32.6706C30.5208 32.7075 32.6567 34.6385 32.7511 37.2663L32.7562 38.4825H29.925C29.4031 38.4825 28.98 38.8939 28.98 39.4013C28.98 39.9087 29.4031 40.32 29.925 40.32H34.0075C37.4938 40.32 40.32 37.5716 40.32 34.1828V30.2138C40.32 29.7064 39.8969 29.295 39.375 29.295C38.8531 29.295 38.43 29.7064 38.43 30.2138ZM21.4125 8.82002C17.0521 8.82002 13.2539 12.1266 13.9408 16.1097L14.7534 22.2609C15.2811 25.5388 17.9561 27.72 21.4125 27.72C24.87 27.72 27.5532 25.5379 28.0789 22.2879L28.9011 16.073C29.5802 12.1268 25.774 8.82002 21.4125 8.82002ZM21.4125 10.71C24.7188 10.71 27.492 13.1194 27.0331 15.789L26.2094 22.0131C25.8386 24.3024 23.9603 25.83 21.4125 25.83C18.867 25.83 16.9964 24.3048 16.623 21.9867L15.8086 15.8252C15.3425 13.1177 18.1081 10.71 21.4125 10.71Z" fill="#444444"/>
</svg>
