<svg width="80" height="88" viewBox="0 0 80 88" fill="none" xmlns="http://www.w3.org/2000/svg">
<mask id="mask0" mask-type="alpha" maskUnits="userSpaceOnUse" x="11" y="76" width="57" height="12">
<path fill-rule="evenodd" clip-rule="evenodd" d="M67.8912 76.2168V86.8741H66.9144L66.7637 86.2408C66.2079 86.7834 65.3812 87.07 64.7049 87.07C62.7811 87.07 61.5939 85.4876 61.5939 83.3466C61.5939 81.0856 63.187 79.518 64.9002 79.518C65.448 79.518 66.0552 79.6964 66.4789 79.9481L66.6287 80.0457V76.2168H67.8912ZM57.8656 79.4877C58.4368 79.4877 58.9624 79.6537 59.4136 79.9402C60.3305 80.543 60.6915 81.5529 60.6915 82.6534C60.6915 82.94 60.6764 83.2414 60.6309 83.5576C60.2104 83.5679 59.8029 83.5644 59.4044 83.561L58.8126 83.5576H55.912C55.9566 84.8694 56.6929 86.045 58.1062 86.045C58.85 86.045 59.5332 85.8133 60.1772 85.3602L60.3904 85.201L60.5411 86.2408C59.7593 86.8288 58.8726 87.07 57.9256 87.07C55.6561 87.07 54.5141 85.3667 54.5141 83.2414C54.5141 81.2062 55.6868 79.4877 57.8656 79.4877ZM51.6431 77.8748V79.7292H53.6419V80.5732H51.6431V84.2667C51.6431 84.8092 51.6877 85.2161 51.7781 85.4573C51.9134 85.8186 52.1989 86.0301 52.6651 86.0301C52.9991 86.0301 53.3685 85.8988 53.7951 85.6157L53.9578 85.5024L54.1531 86.4219C53.5819 86.859 53.0108 87.07 52.3944 87.07C51.4776 87.07 50.8914 86.7084 50.5755 85.9996C50.4393 85.6847 50.3772 85.1949 50.367 84.4292L50.3655 84.1911V80.588H49.3281V79.7292H50.3655V78.3726L51.6431 77.8748ZM46.5471 79.4877C47.2504 79.4877 47.9177 79.6464 48.526 80.0298L48.7265 80.166L48.4712 81.146C47.8696 80.7389 47.2539 80.513 46.5923 80.513C45.0893 80.513 44.2029 81.7941 44.2029 83.2263C44.2029 84.6735 44.969 86.0604 46.5471 86.0604C47.1754 86.0604 47.7791 85.8934 48.3599 85.5602L48.5767 85.4274L48.8166 86.3766C48.0502 86.8288 47.224 87.07 46.3666 87.07C44.2628 87.07 42.8343 85.4573 42.8343 83.3919C42.8343 81.146 44.2927 79.4877 46.5471 79.4877ZM39.0768 79.4877C39.6482 79.4877 40.1739 79.6537 40.6247 79.9402C41.5416 80.543 41.9021 81.5529 41.9021 82.6534C41.9021 82.94 41.8876 83.2414 41.8421 83.5576C41.4215 83.5679 41.0141 83.5644 40.6156 83.561L40.0241 83.5576H37.1231C37.1681 84.8694 37.9044 86.045 39.3173 86.045C40.0613 86.045 40.7444 85.8133 41.3884 85.3602L41.6016 85.201L41.7523 86.2408C40.9707 86.8288 40.084 87.07 39.1371 87.07C36.8673 87.07 35.7253 85.3667 35.7253 83.2414C35.7253 81.2062 36.8974 79.4877 39.0768 79.4877ZM32.8394 77.8748V79.7292H34.8383V80.5732H32.8394V84.2667C32.8394 84.8092 32.8841 85.2161 32.9742 85.4573C33.1098 85.8186 33.3952 86.0301 33.8612 86.0301C34.1952 86.0301 34.5648 85.8988 34.9911 85.6157L35.1536 85.5024L35.3491 86.4219C34.778 86.859 34.2066 87.07 33.5905 87.07C32.6737 87.07 32.0878 86.7084 31.7719 85.9996C31.6352 85.6847 31.5729 85.1949 31.5627 84.4292L31.5612 84.1911V80.588H30.5244V79.7292H31.5612V78.3726L32.8394 77.8748ZM26.4769 79.4877C28.6864 79.4877 29.9185 81.1759 29.9185 83.2562C29.9185 85.3667 28.6563 87.07 26.4317 87.07C24.1622 87.07 22.9747 85.412 22.9747 83.2562C22.9747 81.1611 24.2824 79.4877 26.4769 79.4877ZM21.9677 79.518C22.1368 79.518 22.2975 79.5348 22.4687 79.5751L22.6441 79.6235L22.5389 80.724C22.3734 80.6787 22.1028 80.6633 21.8625 80.6633C21.2564 80.6633 20.7258 81.0055 20.3638 81.4803L20.2694 81.613V86.8741H19.0068V79.7138H20.0138L20.1491 80.4523C20.5548 79.8801 21.2613 79.518 21.9677 79.518ZM13.7651 76.4581C15.2079 76.4581 16.5756 76.6839 17.2821 78.116C17.5226 78.5831 17.6278 79.0809 17.6278 79.5935C17.6278 81.8243 16.1398 82.9856 14.0204 82.9856L13.5923 82.9779L13.1639 82.9702V86.8741H11.7811V76.6536C12.3974 76.5333 13.1036 76.4581 13.7651 76.4581ZM26.4769 80.4822C24.9738 80.4822 24.3424 81.9298 24.3424 83.2562C24.3424 84.5829 24.9286 86.0749 26.4317 86.0749C27.9347 86.0749 28.5357 84.5829 28.5357 83.2562C28.5357 81.9452 27.9799 80.4822 26.4769 80.4822ZM65.0352 80.588C64.0737 80.588 62.961 81.4172 62.961 83.2864C62.961 85.0351 63.7434 86.0147 64.9002 86.0147C65.534 86.0147 66.1551 85.7234 66.5321 85.3615L66.6287 85.2612V81.1004C66.298 80.8443 65.6817 80.588 65.0352 80.588ZM57.7758 80.513C56.6589 80.513 56.0877 81.4016 55.945 82.4109L55.9268 82.5631H59.3389C59.3389 82.5177 59.3536 82.4724 59.3536 82.4276C59.3536 81.4474 58.828 80.513 57.7758 80.513ZM38.9867 80.513C37.8703 80.513 37.2989 81.4016 37.1561 82.4109L37.1379 82.5631H40.5494C40.5494 82.5177 40.5648 82.4724 40.5648 82.4276C40.5648 81.4474 40.0388 80.513 38.9867 80.513ZM14.0506 77.604C13.8503 77.604 13.6499 77.6106 13.454 77.6238L13.1639 77.6487V81.8095C13.4496 81.8243 13.7501 81.8394 14.0355 81.8394C15.4183 81.8394 16.2152 81.1158 16.2152 79.7138C16.2152 78.2817 15.4635 77.604 14.0506 77.604Z" fill="white"/>
</mask>
<g mask="url(#mask0)">
<path fill-rule="evenodd" clip-rule="evenodd" d="M6.7811 92.0699H72.8912V71.2168H6.7811V92.0699Z" fill="#6F7779"/>
</g>
<mask id="mask1" mask-type="alpha" maskUnits="userSpaceOnUse" x="0" y="0" width="80" height="55">
<path fill-rule="evenodd" clip-rule="evenodd" d="M44.1429 0.251953C44.5735 0.252453 45.0047 0.255953 45.4356 0.261753C47.0366 0.290853 48.6384 0.353353 50.2354 0.487053C51.8326 0.618353 53.4281 0.783753 55.0143 1.02635C56.6002 1.27135 58.1803 1.56845 59.7448 1.94445C62.8689 2.70355 65.9529 3.73525 68.8382 5.26065C70.2812 6.01655 71.6701 6.90795 72.9486 7.96695C74.2311 9.01755 75.4033 10.2431 76.3755 11.6491C77.3523 13.0513 78.1112 14.6393 78.6151 16.3272C79.1121 18.0221 79.3668 19.7902 79.4079 21.5757L79.4146 21.8763L79.4169 22.1773V22.302C79.4091 25.6334 78.7316 28.9574 77.6551 32.1057C77.0813 33.7994 76.3705 35.4414 75.5629 37.0285C74.7562 38.6167 73.8434 40.1477 72.8321 41.6037C70.8081 44.5113 68.4073 47.1501 65.646 49.2998C63.054 51.3254 60.1482 52.9285 57.0573 53.9133L56.4756 54.0907L55.8459 54.2627C55.6121 54.3246 55.4701 54.358 55.2261 54.4159C54.8004 54.5152 54.3733 54.601 53.9442 54.6725C53.0844 54.8076 52.2191 54.8835 51.3556 54.9061C50.4924 54.9334 49.6309 54.8846 48.7792 54.7916C47.9267 54.6998 47.0835 54.5533 46.2568 54.3478C43.635 53.7152 41.1801 52.5905 38.9407 51.1453L38.4642 50.8308L38.4819 50.8488C35.1149 48.5446 32.312 45.9718 30.235 43.3774L29.8956 42.9449L29.9049 42.9373C29.8643 42.8891 29.8371 42.8307 29.8371 42.7638C29.8371 42.6092 29.9666 42.484 30.1272 42.484C30.1979 42.484 30.2599 42.5113 30.31 42.5514C30.3083 42.5485 30.3059 42.5459 30.3042 42.5424L30.3235 42.5573L30.3433 42.5726L30.3474 42.5691L30.3746 42.5964C32.9513 44.5999 35.6131 46.3335 38.3663 47.7473C41.1432 49.1624 44.0212 50.2251 46.9374 50.7012C47.6671 50.8154 48.3967 50.9005 49.1261 50.9459C49.8558 50.99 50.5845 50.9828 51.3107 50.9517C52.0363 50.9157 52.759 50.8328 53.4762 50.707C53.8343 50.648 54.1922 50.5759 54.5475 50.494C54.6575 50.4685 54.8243 50.4286 54.9659 50.3926L55.096 50.3588L55.6286 50.2141C58.5087 49.4041 61.2899 48.0568 63.8886 46.3137C64.5411 45.881 65.1792 45.4183 65.8034 44.931C66.4316 44.4494 67.0439 43.9388 67.6429 43.4064C68.8448 42.3471 69.9874 41.1922 71.0555 39.9506C72.1239 38.7097 73.1213 37.3856 74.0274 35.9837C74.9289 34.5789 75.7327 33.0932 76.423 31.5448C77.7951 28.4497 78.6728 25.0443 78.7102 21.5996C78.7174 19.8864 78.5267 18.1572 78.0628 16.5335C77.6064 14.9026 76.8718 13.3771 75.9283 12.0319C75.4551 11.3605 74.9318 10.7322 74.3682 10.1492C73.802 9.56945 73.1972 9.03495 72.5649 8.54325C71.2943 7.56585 69.915 6.76265 68.4867 6.08665C65.6171 4.75245 62.56 3.92855 59.4707 3.37545C57.9251 3.09735 56.3681 2.88405 54.8051 2.72765C53.2417 2.57045 51.6741 2.44545 50.1018 2.37775C46.9612 2.23745 43.7981 2.21995 40.656 2.32575C37.5109 2.44115 34.3712 2.77245 31.2602 3.29175C29.7061 3.55795 28.1599 3.88405 26.6322 4.28745C25.1051 4.69255 23.5905 5.15435 22.1152 5.73175C20.6406 6.30725 19.2016 6.99015 17.8483 7.82105C16.5026 8.65595 15.2366 9.66555 14.2685 10.9293C13.786 11.559 13.391 12.2591 13.1352 13.0124C12.8793 13.7657 12.7698 14.5698 12.8121 15.3766C12.8532 16.1851 13.0529 16.9878 13.347 17.7527L13.4 17.8811L13.4551 18.009C13.4719 18.0506 13.4823 18.0991 13.4823 18.1499C13.4823 18.3542 13.3114 18.5199 13.0998 18.5199C12.9755 18.5199 12.8671 18.4606 12.797 18.3717C12.7544 18.2862 12.7086 18.2031 12.6678 18.1162C12.2951 17.3095 12.0198 16.4243 11.917 15.489C11.8097 14.5556 11.8926 13.5777 12.1589 12.6639C12.4223 11.7482 12.8518 10.9008 13.3702 10.1498C13.888 9.39475 14.4959 8.73385 15.1404 8.13985C15.7857 7.54435 16.4725 7.01925 17.1784 6.53885C18.5919 5.57805 20.0917 4.81985 21.6157 4.16885C24.6673 2.86865 27.8339 2.02375 31.0159 1.41465C34.1996 0.799453 37.4141 0.481153 40.6242 0.328353C41.3649 0.292686 42.1041 0.271109 42.8423 0.260361L43.9487 0.251953H44.1429ZM31.8064 11.1844C32.9935 11.1844 34.2279 11.4885 35.0525 11.8228L35.2498 11.9069L33.2648 14.9319C32.1753 14.4797 31.2602 14.2513 30.5444 14.2513C27.2683 14.2513 24.518 16.7849 22.3656 21.7838L22.2129 22.1451L21.9701 22.7278H28.381L27.0509 25.3308H21.0399L17.2413 34.5725C13.9184 42.0611 9.22441 45.8589 3.28931 45.8589C2.21633 45.8589 1.30332 45.7103 0.568446 45.4162L0.330109 45.3128L1.87611 42.1309C2.96331 42.5775 3.84041 42.7955 4.55181 42.7955C7.78552 42.7955 10.5152 40.2611 12.6677 35.2602L12.8205 34.8988L14.2746 31.3745H0.875209L2.20931 28.7886H15.207L16.6701 25.3308L5.43501 25.3358L6.77001 22.7263L17.7379 22.7278L17.8495 22.4778C21.1738 14.9837 25.8695 11.1844 31.8064 11.1844ZM36.0127 22.4918C37.1273 22.4918 38.4341 22.822 39.9385 23.4795L40.2892 23.6371L38.8264 26.3567C37.8742 25.4285 36.8157 24.9664 35.6554 24.9664C34.8846 24.9664 34.2095 25.1637 33.6282 25.561C33.0469 25.9568 32.7392 26.4782 32.7 27.1268C32.6734 27.6 32.8096 28.0071 33.1104 28.3434C33.3747 28.6471 33.823 28.9793 34.4511 29.3467L34.6951 29.4861L36.787 30.6576C37.4338 31.017 37.907 31.4823 38.2034 32.0479C38.5019 32.6125 38.6314 33.2295 38.5917 33.8994C38.4938 35.6681 37.7751 37.0671 36.4375 38.0956C35.1002 39.1264 33.4459 39.6413 31.4737 39.6413C29.8529 39.6413 28.4113 39.2624 27.1463 38.5092L26.8779 38.3421L28.5601 35.5603C28.9368 35.9599 29.4923 36.3298 30.2228 36.664C30.9568 37.0003 31.5914 37.1694 32.1269 37.1694C33.0397 37.1694 33.811 36.9189 34.4352 36.4257C35.0602 35.9326 35.3946 35.265 35.443 34.4211C35.4659 33.9883 35.3297 33.603 35.0376 33.2653C34.7765 32.964 34.337 32.621 33.7191 32.2393L33.479 32.0944L31.3735 30.8898C30.725 30.509 30.2512 30.0272 29.9507 29.4463C29.6502 28.8668 29.5154 28.2472 29.5531 27.5872C29.6389 26.053 30.3033 24.8217 31.5479 23.8931C32.7907 22.9602 34.2808 22.4918 36.0127 22.4918ZM51.5167 22.4926C52.9835 22.4926 54.1468 22.7329 55.0037 23.2049L55.196 23.318L54.5307 25.8257C53.8196 25.2526 52.845 24.9673 51.5967 24.9673C49.7028 24.9673 48.1313 25.7168 46.8798 27.2129C45.6256 28.7124 44.9386 30.5509 44.8163 32.734C44.7389 34.0723 45.0557 35.1412 45.7682 35.9387C46.4808 36.7367 47.3202 37.1331 48.2875 37.1331C49.6732 37.1331 51.0277 36.7356 52.3507 35.9399L52.6555 35.7492L52.1563 38.7489C50.7787 39.3438 49.2892 39.6414 47.6885 39.6414C45.6552 39.6414 44.1252 39.0573 43.1026 37.8896C42.08 36.7216 41.6227 35.1691 41.7326 33.2359C41.9102 30.0862 42.9148 27.5093 44.754 25.502C46.5935 23.4964 48.8459 22.4926 51.5167 22.4926ZM64.6278 22.4918C65.7415 22.4918 67.0503 22.822 68.5548 23.4795L68.9054 23.6371L67.4423 26.3567C66.4852 25.4285 65.4293 24.9664 64.2719 24.9664C63.5006 24.9664 62.8263 25.1637 62.2453 25.561C61.6634 25.9568 61.3531 26.4782 61.318 27.1268C61.2905 27.6 61.4267 28.0071 61.7257 28.3434C61.9923 28.6471 62.4396 28.9793 63.0656 29.3467L63.3087 29.4861L65.4038 30.6576C66.0494 31.017 66.5214 31.4823 66.8199 32.0479C67.1175 32.6125 67.2465 33.2295 67.2076 33.8994C67.1097 35.6681 66.389 37.0671 65.0535 38.0956C63.7193 39.1264 62.0613 39.6413 60.0899 39.6413C58.4705 39.6413 57.0275 39.2624 55.7618 38.5092L55.4933 38.3421L57.1763 35.5603C57.5539 35.9599 58.1079 36.3298 58.8387 36.664C59.5721 37.0003 60.2038 37.1694 60.7402 37.1694C61.6559 37.1694 62.4273 36.9189 63.0482 36.4257C63.6712 35.9326 64.0088 35.265 64.0578 34.4211C64.0821 33.9883 63.9483 33.603 63.6521 33.2653C63.3899 32.964 62.9505 32.621 62.3337 32.2393L62.094 32.0944L59.9877 30.8898C59.3406 30.509 58.8657 30.0272 58.5657 29.4463C58.2658 28.8668 58.1311 28.2472 58.1702 27.5872C58.2568 26.053 58.919 24.8217 60.1641 23.8931C61.4046 22.9602 62.8955 22.4918 64.6278 22.4918Z" fill="white"/>
</mask>
<g mask="url(#mask1)">
<path fill-rule="evenodd" clip-rule="evenodd" d="M-4.66989 59.9137H84.4169V-4.74805H-4.66989V59.9137Z" fill="#6F7779"/>
</g>
</svg>
