<svg width="25" height="24" viewBox="0 0 25 24" fill="none" xmlns="http://www.w3.org/2000/svg">
<path fill-rule="evenodd" clip-rule="evenodd" d="M0 12C0 5.38301 5.6073 0 12.5 0C19.3927 0 25 5.38301 25 12C25 18.617 19.3927 24 12.5 24C5.6073 24 0 18.617 0 12ZM1.25 12C1.25 17.9549 6.297 22.8 12.5 22.8C18.703 22.8 23.75 17.9549 23.75 12C23.75 6.04512 18.703 1.2 12.5 1.2C6.297 1.2 1.25 6.04512 1.25 12ZM12.5 4.8C12.1545 4.8 11.875 5.06836 11.875 5.4V6.6C11.875 6.93164 12.1545 7.2 12.5 7.2C12.8455 7.2 13.125 6.93164 13.125 6.6V5.4C13.125 5.06836 12.8455 4.8 12.5 4.8ZM11.875 10.2C11.875 9.86836 12.1545 9.6 12.5 9.6C12.8455 9.6 13.125 9.86836 13.125 10.2V18.6C13.125 18.9316 12.8455 19.2 12.5 19.2C12.1545 19.2 11.875 18.9316 11.875 18.6V10.2Z" fill="black"/>
</svg>
