<svg width="196" height="170" viewBox="0 0 196 170" fill="none" xmlns="http://www.w3.org/2000/svg">
<g clip-path="url(#clip0)">
<g clip-path="url(#clip1)">
<path fill-rule="evenodd" clip-rule="evenodd" d="M39.5624 114.989C39.2942 114.677 39.0311 114.361 38.7732 114.042C33.579 107.613 26.6974 103.418 19.2397 101.841C14.7131 100.884 10.3818 98.368 6.88195 94.2936C-2.28498 83.6222 -2.29538 66.413 6.85918 55.7269C10.8976 51.013 16.047 48.3789 21.3273 47.8238C25.8477 47.3485 30.0949 45.052 33.2311 41.2312C33.2716 41.182 33.3123 41.1332 33.353 41.0847C38.7032 34.7292 47.3579 34.6663 52.7729 40.9463C52.804 40.9821 52.8348 41.0183 52.8652 41.0545C54.3118 42.7639 56.3997 43.5105 58.4227 43.0531C69.9569 40.445 82.3611 44.342 91.2945 54.745C105.569 71.3675 105.569 98.3668 91.2945 114.99C77.0088 131.625 53.8478 131.625 39.5624 114.989Z" fill="#DEEDF2"/>
</g>
<g clip-path="url(#clip2)">
<path fill-rule="evenodd" clip-rule="evenodd" d="M127.844 115.339C127.383 115.231 126.925 115.116 126.468 114.994C117.276 112.549 108.125 113.328 100.289 116.934C95.5332 119.122 89.8614 119.729 83.8477 118.321C68.0969 114.632 56.029 98.6371 56.8036 82.4745C57.1453 75.3447 59.9471 69.3933 64.3238 65.286C68.0705 61.7697 70.2946 56.7457 70.4479 51.0599C70.4499 50.9867 70.4524 50.9136 70.4552 50.8408C70.8306 41.2924 78.5977 35.3478 87.8853 37.5045C87.9384 37.5167 87.9915 37.5294 88.0444 37.5424C90.5477 38.1481 92.9552 37.4223 94.4605 35.6211C103.043 25.3515 116.969 20.5391 132.321 24.1367C156.851 29.8853 175.769 54.9908 174.534 80.1555C173.297 105.34 152.394 121.092 127.844 115.339Z" fill="#C3DEE7"/>
</g>
<g clip-path="url(#clip3)">
<path fill-rule="evenodd" clip-rule="evenodd" d="M116.887 67.1759C98.2635 64.7002 78.6572 75.8865 68.7174 84.3775C62.7624 89.4639 61.1266 98.8025 54.8974 101.33C42.3868 106.405 13.0106 107.908 12.4298 115.387C11.2862 130.111 21.197 137.979 44.0555 144.787C43.5619 145.796 46.8396 164.219 65.2684 168.379C72.5605 170.025 84.7917 168.385 89.4825 164.788C96.6926 159.258 104.182 156.286 111.726 155.862C138.559 154.353 159.6 146.788 159.847 135.35C159.93 131.527 158.38 126.227 155.953 123.146C154.441 121.225 156.662 119.607 157.177 119.146C163.509 113.488 167.061 107.17 167.191 102.153C167.596 86.4128 144.224 70.8106 116.887 67.1759Z" fill="#9BC3D3"/>
</g>
</g>
<rect x="46" y="135.424" width="94" height="8.64407" fill="#6F7779"/>
<g clip-path="url(#clip4)">
<g clip-path="url(#clip5)">
<g clip-path="url(#clip6)">
<g clip-path="url(#clip7)">
<path fill-rule="evenodd" clip-rule="evenodd" d="M68.2113 32.474C68.3928 31.2059 68.9359 27.2478 68.7932 26.4835C68.6215 25.5643 68.1061 22.1099 68.4211 20.7152C68.5626 20.0883 68.6689 19.602 68.7429 19.2572C68.8275 18.864 68.5969 18.465 68.2363 18.404C67.959 18.357 67.7666 18.3336 67.4765 18.6239C67.0432 19.0571 66.389 22.3002 66.3604 23.156C66.3318 24.0113 65.1295 21.5395 64.9864 20.2718C64.8631 19.1799 63.6788 14.3517 63.3522 13.0317C63.2775 12.7298 63.0416 12.4973 62.7586 12.4865C62.6206 12.4811 62.437 12.5067 62.382 12.6973C62.1923 13.352 63.212 21.286 63.212 21.286C63.212 21.286 63.3187 21.9998 62.8617 21.9291C62.6148 21.891 62.3618 21.3782 62.205 21.0605C62.17 20.9897 62.1398 20.9285 62.1156 20.8845C61.6933 20.1183 61.3122 19.324 60.9371 18.5285C60.2001 16.9673 59.4933 15.3862 58.8135 13.7928C58.7288 13.5946 58.6525 13.4206 58.4675 13.3126C58.306 13.2187 58.1088 13.2039 57.9372 13.2714C57.7896 13.3299 57.6563 13.4603 57.6265 13.6307C57.6089 13.7322 57.6288 13.8365 57.65 13.9369C58.0149 15.6634 58.6506 17.3516 59.2735 19.0056C59.4242 19.406 59.5742 19.8043 59.7194 20.2006C60.0113 20.9975 60.3063 21.7926 60.6071 22.5851C60.6071 22.5851 60.855 23.1534 60.464 23.1874C60.1019 23.2188 56.3042 18.5267 55.3885 17.3749C55.2431 17.1922 55.0228 17.0994 54.8061 17.1417C54.6052 17.181 54.3965 17.2915 54.3677 17.5779C54.3151 18.101 57.9227 23.7434 58.5203 24.6739C58.6203 24.8299 58.7028 24.9974 58.7558 25.1794C58.8185 25.3942 58.854 25.6636 58.7469 25.8813C58.3778 26.6297 56.8099 26.1638 56.326 26.0201C56.3115 26.0157 56.2979 26.0117 56.2854 26.008C55.9257 25.9019 53.56 24.8179 52.7993 24.4681C52.5975 24.3753 52.3611 24.3901 52.1853 24.5341C52.0207 24.6692 51.9062 24.8988 52.1066 25.279C52.4777 25.9835 57.563 28.6456 58.3114 29.0345C58.3736 29.0666 58.4282 29.1085 58.4778 29.1605C59.0358 29.7486 62.5453 33.4516 62.7825 33.7727C62.7825 33.7727 62.7825 33.7727 62.7825 33.7727L65.1319 52.3907C65.1319 52.3907 66.3916 54.0956 68.4212 54.0956C70.451 54.0956 73.6005 52.3907 73.6005 52.3907L68.2114 32.4743C68.2114 32.4743 68.2114 32.4742 68.2113 32.474Z" fill="#723846"/>
<path fill-rule="evenodd" clip-rule="evenodd" d="M82.2831 82.6438C80.8388 78.5464 79.6894 75.6608 79.6894 75.6608C79.6894 75.6608 73.2636 49.9049 73.0535 50.37C72.8437 50.8347 71.9206 51.9258 70.0311 52.3934C68.1415 52.8603 65.1318 52.3909 65.1318 52.3909L69.5254 76.0359L70.2783 81.7296C70.2783 81.7296 71.2775 91.0216 71.6946 92.5742C71.8069 92.992 72.0711 93.6506 72.3796 94.3552C72.3342 94.354 72.3057 94.3885 72.3057 94.3885L72.3882 94.3748C72.4948 94.618 72.6066 94.8665 72.7191 95.1122C72.8911 96.0078 73.0371 97.93 72.9707 102.002C72.8307 110.591 72.4107 121.276 71.8508 122.753C71.8307 122.806 71.8083 122.869 71.7839 122.942C69.9635 128.382 73.6236 134.164 78.8622 134.202C82.3855 134.227 86.3215 134.266 90.2842 134.306C103.255 134.435 116.512 134.567 116.512 134.226C116.512 134.04 116.75 133.549 117.072 132.886C117.825 131.334 119.037 128.834 118.743 127.065C118.323 124.54 118.323 122.36 118.323 116.708C118.323 111.056 117.903 102.565 115.804 97.9753C113.802 93.6012 111.165 92.8235 109.953 92.466C109.893 92.4485 109.837 92.4319 109.785 92.416C109.428 92.3078 108.175 91.7847 106.589 91.1221C103.198 89.7056 98.2804 87.6518 97.3264 87.6518C97.0382 87.6518 96.7344 87.6445 96.4141 87.6368C95.1789 87.6071 93.6962 87.5714 91.8987 87.9255C90.3795 88.2248 86.9774 88.5386 84.9032 88.7122C84.4346 88.7515 83.972 88.8389 83.521 88.9724C83.5634 88.0196 83.4525 85.961 82.2831 82.6438Z" fill="#137E84"/>
<path fill-rule="evenodd" clip-rule="evenodd" d="M99.5579 89.9688C97.9431 98.0642 92.4003 97.9035 89.8447 94.3163C89.0471 93.1934 88.5453 91.7401 88.541 90.0991C89.74 90.6013 91.2078 90.9035 92.9879 90.9313C95.6191 90.9732 97.7944 90.6223 99.5579 89.9688Z" fill="#C3DEE7"/>
<path fill-rule="evenodd" clip-rule="evenodd" d="M86.5965 101.889C86.5965 102.969 86.0285 103.845 85.3274 103.845C84.6266 103.845 84.0581 102.969 84.0581 101.889C84.0581 100.808 84.6266 99.9321 85.3274 99.9321C86.0285 99.9321 86.5965 100.808 86.5965 101.889Z" fill="#FFCC33"/>
</g>
</g>
<path fill-rule="evenodd" clip-rule="evenodd" d="M61.9807 132.532L62.1275 135.187L82.5137 133.803L82.3667 131.148C75.5713 131.609 68.7758 132.071 61.9807 132.532Z" fill="#FFCC33"/>
<path fill-rule="evenodd" clip-rule="evenodd" d="M77.9631 134.437L117.965 134.523C118.725 134.524 119.382 133.936 119.541 133.11L125.506 102.171C125.72 101.06 124.958 100.012 123.935 100.01L83.9358 99.9248C83.1759 99.9234 82.5183 100.512 82.3592 101.338L76.3929 132.276C76.1785 133.387 76.9398 134.435 77.9631 134.437Z" fill="white"/>
<path fill-rule="evenodd" clip-rule="evenodd" d="M83.6646 101.342L77.6988 132.281C77.4849 133.39 78.2459 134.436 79.2686 134.441L96.0184 134.475L117.258 134.523L119.269 134.526C120.029 134.528 120.688 133.938 120.847 133.111L126.812 102.176C126.914 101.634 126.789 101.106 126.512 100.711C126.222 100.291 125.766 100.014 125.24 100.014L108.898 99.9767L85.2428 99.9268C84.4826 99.9252 83.823 100.515 83.6646 101.342Z" fill="#FFCC33"/>
<path fill-rule="evenodd" clip-rule="evenodd" d="M108.898 99.9766L117.257 134.522L119.269 134.526C120.029 134.527 120.689 133.938 120.847 133.111L126.812 102.175C126.914 101.633 126.788 101.106 126.511 100.711C126.221 100.291 125.766 100.014 125.239 100.014L108.898 99.9766Z" fill="#D39E00"/>
<path fill-rule="evenodd" clip-rule="evenodd" d="M89.1793 64.4607C90.9411 60.9874 93.9242 58.7021 97.3048 58.7021C100.387 58.7021 103.14 60.6023 104.936 63.5706C104.936 63.5706 105.15 63.9181 105.378 64.3461C105.577 64.7212 105.825 65.405 105.848 65.9795L106.112 70.4828C106.118 70.5839 106.127 70.683 106.14 70.7834C106.208 71.3174 106.571 73.0425 106.682 73.7385C106.82 74.5983 107.946 85.0907 101.696 87.89C100.555 88.4012 99.4188 88.6116 98.3187 88.5946L98.3188 88.6905C98.3188 88.8115 98.3165 88.9327 98.3145 89.0565C98.3082 89.2386 98.3059 89.4228 98.3102 89.6069C98.3502 91.0206 97.9332 92.271 97.2548 93.2272C95.1712 96.1502 90.6418 96.2693 89.3567 89.6069C88.9859 87.6801 88.8656 85.7068 89.1059 83.78C89.1438 83.4741 89.1907 83.1692 89.2471 82.866C88.9129 82.297 88.6798 81.7553 88.5646 81.2809C88.4632 80.8625 88.3631 80.2901 88.2656 79.6113C87.0516 79.8224 85.7075 78.6199 85.1652 76.7695C84.5812 74.7798 85.1446 72.7943 86.4236 72.3343C86.7826 72.2052 87.1599 72.2101 87.53 72.3281L87.5238 72.253C87.307 69.4964 87.9038 66.7704 89.1793 64.4607Z" fill="#723846"/>
<path fill-rule="evenodd" clip-rule="evenodd" d="M98.3632 88.6161C98.3642 88.706 98.3646 88.797 98.3649 88.889C98.3652 89.0633 98.3652 89.2406 98.3652 89.1793C98.3652 89.0813 98.3652 88.9846 98.3649 88.889C98.3647 88.7728 98.3644 88.658 98.3639 88.6161L98.3632 88.6161ZM89.3495 82.8903C89.3313 82.947 89.313 83.0405 89.2915 83.2169C90.1462 86.2512 93.8119 89.0519 98.3329 88.6154C94.3415 88.5103 90.8407 85.4279 89.3495 82.8903ZM101.469 78.5516L99.6782 73.3237L99.8012 77.1558C99.8314 78.1013 100.639 78.7769 101.469 78.5516Z" fill="#3B101C"/>
<path fill-rule="evenodd" clip-rule="evenodd" d="M106.46 66.014C106.526 65.2027 106.514 64.3883 106.428 63.5845C106.416 63.4789 106.404 63.3733 106.39 63.2684C106.169 61.5911 105.619 59.9703 104.762 58.5318C104.055 57.3432 103.139 56.2791 102.024 55.4111C97.262 51.7037 90.6879 52.9721 87.3397 58.2437C86.6979 59.2532 86.2218 60.3379 85.9055 61.4557C85.766 61.9428 85.6584 62.4362 85.5791 62.9332C85.4216 63.9319 85.3828 64.9458 85.4601 65.9445C85.5234 66.7614 85.6636 67.5697 85.8788 68.3549C85.869 68.4131 85.8596 68.4711 85.8511 68.529C85.2945 70.0789 84.7355 71.481 84.2709 72.337C80.6748 78.9599 80.8835 87.0074 88.3055 89.7461C88.3036 89.7385 88.302 89.7308 88.3003 89.7231C88.302 89.7308 88.3039 89.7385 88.3055 89.7461C88.7001 89.8923 89.1152 90.0235 89.5512 90.1385C89.4576 89.8008 89.3735 89.4417 89.2998 89.0603C88.929 87.1335 88.8087 85.1602 89.049 83.2334C89.0868 82.9275 89.1338 82.6226 89.1902 82.3194C88.856 81.7504 88.6228 81.2087 88.5077 80.7343C88.4689 80.5731 88.4298 80.3892 88.3913 80.1851C88.3708 80.0771 88.3505 79.9634 88.3303 79.8447C88.3205 79.8199 88.3121 79.796 88.3055 79.7741C88.3121 79.7959 88.3205 79.8198 88.3303 79.8445C88.3209 79.7889 88.3114 79.7321 88.302 79.6742C88.2706 79.4827 88.2393 79.279 88.2087 79.0647C86.995 79.2758 85.6505 78.0733 85.1083 76.2229C84.5402 74.2872 85.058 72.3555 86.2642 71.8286C88.0196 74.3406 99.6203 60.5585 99.6203 60.5585L99.9932 61.7691C100.999 65.1331 104.679 66.2197 105.853 66.4848L105.867 66.7344L106.055 69.9362C106.061 70.0373 106.07 70.1365 106.083 70.2368C106.151 70.7709 106.514 72.4959 106.625 73.1919C106.751 73.9766 107.7 82.7851 103.114 86.4456L103.073 86.4774L103.069 86.4807L103.031 86.5107L102.995 86.5382L102.988 86.5438L102.954 86.5695L102.936 86.5826L102.904 86.6063L102.886 86.6198L102.86 86.6382L102.832 86.6587L102.806 86.677L102.779 86.6962L102.738 86.7247L102.731 86.7297L102.71 86.7442L102.676 86.7672L102.653 86.7831L102.613 86.8093L102.598 86.8192L102.592 86.8232L102.545 86.854L102.524 86.8673L102.483 86.893L102.466 86.9038L102.411 86.9378L102.393 86.9484L102.35 86.9745L102.332 86.9851L102.274 87.0188L102.262 87.0257L102.213 87.0536L102.196 87.0636L102.139 87.0951L102.135 87.0973L102.074 87.1301L102.057 87.1392L102.006 87.1661L101.994 87.1724L101.932 87.204L101.917 87.2117L101.866 87.2369L101.85 87.2446L101.787 87.2751L101.776 87.2804L101.722 87.3058L101.704 87.3139L101.639 87.3435L101.567 87.3755C100.828 87.6982 100.092 87.8955 99.3661 87.9873C98.9947 88.0342 98.6263 88.0536 98.2618 88.048L98.2618 88.1439C98.2618 88.2649 98.2596 88.3861 98.2576 88.5099C98.2513 88.692 98.249 88.8762 98.2533 89.0603C98.2652 89.4836 98.2363 89.8922 98.1715 90.2826C98.5938 90.1678 98.9893 90.0318 99.3592 89.8768C99.361 89.8126 99.3611 89.8126 99.3593 89.8768C100.291 89.4848 101.062 88.9707 101.691 88.3668C101.735 88.6382 101.788 88.9087 101.849 89.1777C101.923 89.4958 102.008 89.8153 102.106 90.1317C102.424 91.1669 102.874 92.1728 103.46 93.1201C106.925 98.7266 113.825 100.171 118.873 96.3458C119.764 95.6704 120.538 94.876 121.189 93.9925C124.225 89.885 124.592 83.8868 121.739 79.2703C119.834 76.1884 116.891 74.365 113.788 73.9843C113.779 73.9833 113.77 73.982 113.761 73.9811C112.285 73.8026 111.047 72.7184 110.542 71.1733C110.302 70.4412 109.976 69.7298 109.56 69.0569C108.739 67.7282 107.665 66.7055 106.46 66.014Z" fill="#1BB3BC"/>
</g>
</g>
<defs>
<clipPath id="clip0">
<rect width="196" height="170" fill="white"/>
</clipPath>
<clipPath id="clip1">
<rect width="102" height="91.2429" fill="white" transform="translate(0 36.2769)"/>
</clipPath>
<clipPath id="clip2">
<rect width="116" height="106.61" fill="white" transform="translate(36.9844 69.0537) rotate(-37)"/>
</clipPath>
<clipPath id="clip3">
<rect width="155" height="102.768" fill="white" transform="translate(12.3413 66.8262)"/>
</clipPath>
<clipPath id="clip4">
<rect width="75" height="123.898" fill="white" transform="translate(52 12.4858)"/>
</clipPath>
<clipPath id="clip5">
<rect width="75" height="123.898" fill="white" transform="translate(52 12.4858)"/>
</clipPath>
<clipPath id="clip6">
<rect width="67" height="121.977" fill="white" transform="translate(52 12.4858)"/>
</clipPath>
<clipPath id="clip7">
<rect width="67" height="121.977" fill="white" transform="translate(52 12.4858)"/>
</clipPath>
</defs>
</svg>
