<svg width="198" height="180" viewBox="0 0 198 180" fill="none" xmlns="http://www.w3.org/2000/svg">
<path fill-rule="evenodd" clip-rule="evenodd" d="M133.674 0.616062C109.862 -3.74465 84.7928 15.9584 72.0836 30.9141C64.4695 39.873 62.3779 56.3217 54.4131 60.7731C38.4168 69.7132 0.855812 72.3596 0.113108 85.5327C-1.34904 111.466 11.3231 125.326 40.5504 137.317C39.9193 139.093 44.1102 171.544 67.6736 178.871C76.9974 181.77 92.6365 178.881 98.6343 172.545C107.853 162.806 117.429 157.57 127.075 156.823C161.384 154.166 188.288 140.841 188.604 120.695C188.709 113.961 186.728 104.627 183.625 99.1985C181.692 95.8162 184.531 92.9655 185.19 92.1536C193.286 82.1872 197.828 71.0591 197.993 62.2236C198.512 34.499 168.628 7.01793 133.674 0.616062Z" fill="#EFF6F9"/>
</svg>
