<svg width="139" height="133" viewBox="0 0 139 133" fill="none" xmlns="http://www.w3.org/2000/svg">
<path d="M61.918 129.321C61.918 127.776 73.9595 126.522 88.8131 126.522C103.667 126.522 115.707 127.776 115.707 129.321C115.707 130.867 103.667 132.12 88.8131 132.12C73.9595 132.12 61.918 130.867 61.918 129.321Z" fill="#CEDEE7"/>
<path d="M103.95 51.4115C103.953 56.203 100.206 60.0902 95.5798 60.0932C90.9552 60.0954 87.204 56.2134 87.2012 51.4219C87.199 46.6296 90.9459 42.7432 95.5713 42.7402C100.196 42.7373 103.947 46.6201 103.95 51.4115Z" fill="#F4B551"/>
<path fill-rule="evenodd" clip-rule="evenodd" d="M88.3689 51.4042C88.371 55.5134 91.5975 58.8541 95.5622 58.8541H95.5665C97.4887 58.8526 99.2948 58.0759 100.652 56.6678C102.011 55.2597 102.758 53.3869 102.758 51.3969C102.755 47.2869 99.5283 43.9463 95.5636 43.9463H95.5593C93.6371 43.9478 91.831 44.7245 90.4733 46.1333C89.115 47.5414 88.3682 49.4134 88.3689 51.4042ZM95.5593 45.0859H95.5636C98.9225 45.0859 101.656 47.9161 101.658 51.3969C101.659 53.0838 101.025 54.6696 99.875 55.8623C98.7246 57.0558 97.1939 57.7137 95.5665 57.7145H95.5622C93.9362 57.7145 92.4062 57.0587 91.2558 55.8682C90.1039 54.6763 89.4688 53.0904 89.4681 51.4042C89.4674 49.7173 90.1003 48.1315 91.2508 46.938C92.402 45.7438 93.9319 45.0866 95.5593 45.0859Z" fill="#F9D96D"/>
<path d="M90.6726 121.581C87.3728 125 82.0227 125 78.7229 121.581L49.4415 91.0416C46.1417 87.6228 47.1242 83.2989 50.4239 79.8801L93.8528 34.8854C97.1518 31.4666 102.502 31.4666 105.802 34.8854L134.101 64.2053C137.401 67.6241 137.401 73.1664 134.101 76.586L90.6726 121.581Z" fill="#9BC3D3"/>
<path d="M51.2285 84.4455C50.6084 85.0886 50.6084 86.1309 51.2285 86.7733C51.8493 87.4165 52.8545 87.4165 53.4753 86.7733L95.7145 43.0104C98.9189 39.6904 102.644 38.1688 107.039 42.722L130.38 66.9052C130.984 67.5314 131.964 67.5314 132.568 66.9052C133.172 66.2789 133.172 65.264 132.568 64.6385L107.432 38.5951C104.132 35.1763 99.6921 34.2344 95.2041 38.8842L51.2285 84.4455Z" fill="#34466B"/>
<path d="M127.212 57.0684L126.578 62.9663L116.788 52.8227L117.422 46.9248L127.212 57.0684Z" fill="#34466B"/>
<path d="M136.006 84.7553L95.3947 126.831C92.1904 130.151 86.9954 130.151 83.7911 126.831L49.4414 91.0411L96.9133 41.8561C99.479 39.1977 103.638 39.1977 106.203 41.8561L136.006 72.733C139.21 76.053 139.21 81.4353 136.006 84.7553Z" fill="#9BC3D3"/>
<path fill-rule="evenodd" clip-rule="evenodd" d="M98.649 44.651C98.5124 44.651 98.3792 44.5772 98.3066 44.4466C98.1977 44.2504 98.2632 44.0011 98.4518 43.8883C99.1773 43.456 100.005 43.2141 100.845 43.1898C101.044 43.1809 101.245 43.3609 101.25 43.5866C101.257 43.8116 101.085 43.9997 100.867 44.0063C100.158 44.0269 99.4585 44.2313 98.8448 44.5971C98.7829 44.634 98.7153 44.651 98.649 44.651ZM105.98 47.1507C105.879 47.1507 105.778 47.1109 105.701 47.0312L104.063 45.3333C103.909 45.1739 103.909 44.9143 104.063 44.7557C104.216 44.5956 104.465 44.5956 104.62 44.7557L106.258 46.4529C106.412 46.6123 106.412 46.8719 106.258 47.0312C106.181 47.1109 106.08 47.1507 105.98 47.1507ZM93.8948 48.9298C93.9724 49.0095 94.0728 49.0493 94.1739 49.0493C94.2743 49.0493 94.3754 49.0095 94.4522 48.9298L96.0911 47.2319C96.2449 47.0725 96.2449 46.8136 96.0911 46.6543C95.9366 46.4942 95.6881 46.4942 95.5337 46.6543L93.8948 48.3523C93.741 48.5109 93.741 48.7705 93.8948 48.9298ZM110.35 51.6781C110.249 51.6781 110.148 51.6391 110.071 51.5587L108.432 49.8614C108.279 49.7021 108.279 49.4425 108.432 49.2831C108.587 49.1238 108.836 49.1238 108.99 49.2831L110.629 50.9811C110.782 51.1404 110.782 51.3993 110.629 51.5587C110.552 51.6391 110.451 51.6781 110.35 51.6781ZM89.525 53.458C89.6019 53.5376 89.703 53.5775 89.8034 53.5775C89.9045 53.5775 90.0049 53.5376 90.0825 53.458L91.7213 51.76C91.8744 51.6007 91.8744 51.3411 91.7213 51.1825C91.5668 51.0224 91.3176 51.0224 91.1632 51.1825L89.525 52.8797C89.3712 53.039 89.3712 53.2987 89.525 53.458ZM114.719 56.2063C114.619 56.2063 114.518 56.1665 114.441 56.0868L112.802 54.3881C112.648 54.228 112.648 53.9699 112.802 53.8106C112.957 53.6505 113.205 53.6505 113.36 53.8106L114.998 55.5093C115.152 55.6693 115.152 55.9275 114.998 56.0868C114.921 56.1665 114.82 56.2063 114.719 56.2063ZM85.1552 57.9847C85.2321 58.0651 85.3332 58.1042 85.4336 58.1042C85.5347 58.1042 85.6358 58.0651 85.7127 57.9847L87.3515 56.2867C87.5053 56.1281 87.5053 55.8685 87.3515 55.7092C87.197 55.5491 86.9479 55.5491 86.7941 55.7092L85.1552 57.4071C85.0014 57.5665 85.0014 57.8254 85.1552 57.9847ZM119.09 60.7337C118.989 60.7337 118.888 60.6939 118.811 60.6142L117.173 58.9163C117.019 58.757 117.019 58.4973 117.173 58.3387C117.326 58.1787 117.576 58.1787 117.73 58.3387L119.369 60.036C119.522 60.1953 119.522 60.4549 119.369 60.6142C119.291 60.6939 119.191 60.7337 119.09 60.7337ZM80.7847 62.5128C80.8623 62.5925 80.9627 62.6323 81.0638 62.6323C81.1642 62.6323 81.2653 62.5925 81.3422 62.5128L82.981 60.8149C83.1348 60.6556 83.1348 60.3967 82.981 60.2373C82.8265 60.0773 82.5781 60.0773 82.4236 60.2373L80.7847 61.9353C80.6309 62.0939 80.6309 62.3535 80.7847 62.5128ZM123.46 65.2612C123.359 65.2612 123.257 65.2221 123.181 65.1417L121.542 63.4444C121.388 63.2851 121.388 63.0255 121.542 62.8662C121.696 62.7068 121.945 62.7068 122.099 62.8662L123.738 64.5641C123.892 64.7235 123.892 64.9824 123.738 65.1417C123.661 65.2221 123.56 65.2612 123.46 65.2612ZM76.4156 67.0403C76.4925 67.1199 76.5936 67.1598 76.694 67.1598C76.7951 67.1598 76.8955 67.1199 76.9731 67.0403L78.6112 65.3423C78.765 65.183 78.765 64.9233 78.6112 64.7648C78.4574 64.6047 78.2083 64.6047 78.0538 64.7648L76.4156 66.462C76.2619 66.6213 76.2619 66.881 76.4156 67.0403ZM127.829 69.7886C127.728 69.7886 127.627 69.7488 127.55 69.6691L125.911 67.9711C125.758 67.8118 125.758 67.5529 125.911 67.3936C126.066 67.2335 126.314 67.2335 126.469 67.3936L128.108 69.0916C128.262 69.2509 128.262 69.5098 128.108 69.6691C128.031 69.7488 127.93 69.7886 127.829 69.7886ZM72.0451 71.5677C72.122 71.6481 72.2231 71.6872 72.3235 71.6872C72.4246 71.6872 72.5257 71.6481 72.6026 71.5677L74.2414 69.8697C74.3952 69.7111 74.3952 69.4515 74.2414 69.2922C74.0869 69.1321 73.8378 69.1321 73.684 69.2922L72.0451 70.9902C71.8914 71.1495 71.8914 71.4084 72.0451 71.5677ZM132.199 74.3168C132.098 74.3168 131.998 74.2769 131.92 74.1973L130.282 72.4993C130.128 72.34 130.128 72.0811 130.282 71.9218C130.436 71.7617 130.685 71.7617 130.839 71.9218L132.478 73.619C132.631 73.7783 132.631 74.0379 132.478 74.1973C132.401 74.2769 132.3 74.3168 132.199 74.3168ZM67.6753 76.0951C67.7529 76.1748 67.8533 76.2146 67.9544 76.2146C68.0548 76.2146 68.1559 76.1748 68.2328 76.0951L69.8716 74.3972C70.0254 74.2378 70.0254 73.9789 69.8716 73.8196C69.7171 73.6596 69.4687 73.6596 69.3142 73.8196L67.6753 75.5176C67.5216 75.6769 67.5216 75.9358 67.6753 76.0951ZM135.478 79.5191C135.268 79.5191 135.094 79.348 135.085 79.1289C135.053 78.392 134.844 77.6714 134.482 77.043C134.371 76.849 134.433 76.5982 134.619 76.4824C134.808 76.3658 135.049 76.4307 135.159 76.6247C135.588 77.3675 135.834 78.2209 135.872 79.0913C135.883 79.317 135.714 79.508 135.497 79.5184L135.478 79.5191ZM63.3048 80.045C63.1518 80.2043 63.1518 80.464 63.3048 80.6233C63.3824 80.703 63.7854 80.703 63.863 80.6233L65.5018 78.9246C65.6556 78.7653 65.6556 78.5056 65.5018 78.347C65.3481 78.187 65.0989 78.187 64.9444 78.347L63.3048 80.045ZM132.466 84.8867C132.365 84.8867 132.265 84.8468 132.187 84.7672C132.034 84.6079 132.034 84.3482 132.187 84.1896L133.826 82.4917C133.978 82.3331 134.242 82.3132 134.396 82.4695C134.551 82.6244 134.573 82.8619 134.426 83.0242L134.376 83.0781L132.745 84.7672C132.668 84.8468 132.567 84.8867 132.466 84.8867ZM58.9357 85.15C59.0126 85.2304 59.1137 85.2695 59.2141 85.2695C59.3152 85.2695 59.4163 85.2304 59.4932 85.15L61.132 83.4528C61.2858 83.2934 61.2858 83.0338 61.132 82.8745C60.9775 82.7152 60.7284 82.7152 60.5746 82.8745L58.9357 84.5724C58.782 84.7318 58.782 84.9907 58.9357 85.15ZM128.096 89.4148C127.996 89.4148 127.895 89.375 127.818 89.2946C127.664 89.136 127.664 88.8764 127.818 88.7171L129.456 87.0191C129.611 86.8598 129.86 86.8598 130.014 87.0191C130.167 87.1784 130.167 87.438 130.014 87.5974L128.375 89.2946C128.298 89.375 128.197 89.4148 128.096 89.4148ZM55.6552 90.359L55.705 90.3619C55.9008 90.3619 56.0703 90.2107 56.0959 90.0034C56.1834 89.2725 56.4461 88.571 56.8548 87.9743C56.9815 87.7899 56.9395 87.5354 56.7622 87.4049C56.5857 87.2743 56.3386 87.3171 56.2126 87.5007C55.7278 88.2074 55.4167 89.0379 55.3128 89.9031C55.2864 90.1266 55.4395 90.3309 55.6552 90.359ZM123.727 93.9415C123.626 93.9415 123.524 93.9024 123.448 93.822C123.294 93.6627 123.294 93.4038 123.448 93.2445L125.086 91.5465C125.241 91.3865 125.489 91.3865 125.644 91.5465C125.798 91.7058 125.798 91.9655 125.644 92.1241L124.005 93.822C123.928 93.9024 123.827 93.9415 123.727 93.9415ZM58.1106 95.6852C58.1875 95.7649 58.2886 95.8047 58.389 95.8047C58.4901 95.8047 58.5905 95.7649 58.6681 95.6852C58.8218 95.5259 58.8218 95.2663 58.6681 95.1069L57.3254 93.7166C57.2335 93.6214 57.1467 93.5233 57.0655 93.4223C56.926 93.2497 56.6768 93.2268 56.5102 93.3714C56.3429 93.5159 56.3208 93.7741 56.4604 93.9467C56.5572 94.0662 56.6597 94.1812 56.7679 94.2941L58.1106 95.6852ZM119.357 98.4697C119.256 98.4697 119.155 98.4299 119.078 98.3502C118.924 98.1909 118.924 97.9312 119.078 97.7727L120.717 96.0747C120.871 95.9146 121.12 95.9146 121.274 96.0747C121.428 96.234 121.428 96.4929 121.274 96.6522L119.636 98.3502C119.558 98.4299 119.458 98.4697 119.357 98.4697ZM62.4797 100.212C62.5573 100.292 62.6577 100.331 62.7588 100.331C62.8599 100.331 62.9603 100.292 63.0379 100.212C63.1909 100.053 63.1909 99.7937 63.0379 99.6344L61.399 97.9364C61.2445 97.7763 60.9953 97.7763 60.8416 97.9364C60.6878 98.0957 60.6878 98.3554 60.8416 98.5139L62.4797 100.212ZM114.986 102.997C114.886 102.997 114.785 102.957 114.708 102.877C114.554 102.718 114.554 102.459 114.708 102.299L116.346 100.602C116.501 100.442 116.75 100.442 116.904 100.602C117.057 100.761 117.057 101.02 116.904 101.18L115.265 102.877C115.188 102.957 115.087 102.997 114.986 102.997ZM66.8495 104.739C66.9264 104.819 67.0275 104.859 67.1286 104.859C67.229 104.859 67.3301 104.819 67.4069 104.739C67.5607 104.58 67.5607 104.321 67.4069 104.162L65.7681 102.464C65.6143 102.304 65.3651 102.304 65.2107 102.464C65.0569 102.623 65.0569 102.882 65.2107 103.041L66.8495 104.739ZM110.617 107.525C110.516 107.525 110.415 107.485 110.338 107.405C110.184 107.246 110.184 106.987 110.338 106.828L111.977 105.13C112.131 104.969 112.38 104.969 112.534 105.13C112.688 105.289 112.688 105.549 112.534 105.707L110.896 107.405C110.819 107.485 110.718 107.525 110.617 107.525ZM71.22 109.268C71.2969 109.347 71.398 109.387 71.4984 109.387C71.5995 109.387 71.6998 109.347 71.7774 109.268C71.9312 109.108 71.9312 108.849 71.7774 108.689L70.1386 106.992C69.9841 106.832 69.7356 106.832 69.5812 106.992C69.4274 107.151 69.4274 107.41 69.5812 107.57L71.22 109.268ZM106.247 112.052C106.146 112.052 106.045 112.012 105.968 111.932C105.814 111.773 105.814 111.514 105.968 111.355L107.606 109.657C107.761 109.497 108.009 109.497 108.164 109.657C108.318 109.816 108.318 110.075 108.164 110.235L106.525 111.932C106.448 112.012 106.347 112.052 106.247 112.052ZM75.5891 113.794C75.6667 113.875 75.7671 113.914 75.8682 113.914C75.9693 113.914 76.0696 113.875 76.1472 113.794C76.3003 113.635 76.3003 113.376 76.1472 113.217L74.5084 111.519C74.3539 111.359 74.1047 111.359 73.951 111.519C73.7972 111.678 73.7972 111.938 73.951 112.097L75.5891 113.794ZM101.877 116.58C101.777 116.58 101.675 116.54 101.599 116.461C101.445 116.301 101.445 116.042 101.599 115.882L103.237 114.185C103.391 114.025 103.64 114.025 103.795 114.185C103.948 114.344 103.948 114.603 103.795 114.763L102.156 116.461C102.078 116.54 101.978 116.58 101.877 116.58ZM79.9596 118.322C80.0365 118.402 80.1376 118.442 80.2387 118.442C80.3391 118.442 80.4401 118.402 80.517 118.322C80.6708 118.163 80.6708 117.904 80.517 117.745L78.8782 116.047C78.7244 115.887 78.4752 115.887 78.3207 116.047C78.167 116.206 78.167 116.465 78.3207 116.624L79.9596 118.322ZM97.5071 121.107C97.4067 121.107 97.3056 121.068 97.2288 120.987C97.075 120.828 97.075 120.569 97.2288 120.41L98.8676 118.712C99.0214 118.552 99.2706 118.552 99.425 118.712C99.5788 118.871 99.5788 119.131 99.425 119.289L97.7862 120.987C97.7093 121.068 97.6082 121.107 97.5071 121.107ZM84.3294 122.85C84.4063 122.929 84.5074 122.969 84.6078 122.969C84.7088 122.969 84.8099 122.929 84.8868 122.85C85.0406 122.69 85.0406 122.431 84.8868 122.272L83.248 120.574C83.0935 120.414 82.845 120.414 82.6905 120.574C82.5368 120.733 82.5368 120.993 82.6905 121.152L84.3294 122.85ZM93.1202 125.616C93.0063 125.616 92.8931 125.564 92.8155 125.466C92.6774 125.291 92.7016 125.035 92.8711 124.891C92.9871 124.792 93.1003 124.687 93.2092 124.574L94.4971 123.24C94.6516 123.08 94.9001 123.08 95.0545 123.24C95.2083 123.399 95.2083 123.658 95.0545 123.818L93.7674 125.152C93.6399 125.283 93.5068 125.407 93.3701 125.524C93.2968 125.586 93.2085 125.616 93.1202 125.616ZM89.4453 126.648L89.5008 126.652C89.6945 126.652 89.8632 126.505 89.8909 126.3C89.9208 126.078 89.7706 125.87 89.5556 125.839C88.8515 125.737 88.1788 125.454 87.6092 125.02C87.4348 124.887 87.1871 124.925 87.0582 125.107C86.9293 125.289 86.9671 125.545 87.1422 125.679C87.8164 126.192 88.613 126.528 89.4453 126.648Z" fill="#34466B"/>
<path d="M126.578 62.9658L111.846 78.2291C111.171 78.9291 110.077 78.9291 109.402 78.2291L102.055 70.6185C101.381 69.9192 101.381 68.7855 102.055 68.0856L116.788 52.8223L126.578 62.9658Z" fill="#34466B"/>
<path d="M113.234 66.6479C114.631 68.0951 114.631 70.4421 113.234 71.8893C111.837 73.3365 109.573 73.3365 108.176 71.8893C106.779 70.4421 106.779 68.0951 108.176 66.6479C109.573 65.2007 111.837 65.2007 113.234 66.6479Z" fill="#9BC3D3"/>
<path d="M86.5207 29.2136C80.1525 37.3952 74.3624 45.8378 69.1632 54.4774C52.2735 43.6855 32.9512 34.9736 11.6667 29.2122C15.4136 19.3814 19.7741 9.62282 24.7477 0C47.5748 6.98808 68.3231 17.0166 86.5207 29.2136Z" fill="#3A8340"/>
<path d="M78.7876 34.946C76.3009 38.4379 73.9166 41.9702 71.6342 45.5395C68.2461 43.4034 63.7105 44.5231 61.7605 47.9663C49.6834 41.0335 36.5085 35.1319 22.3847 30.5373C23.9744 26.7977 22.0693 22.6568 17.8867 21.422C19.6224 17.3718 21.4641 13.3378 23.412 9.32599C27.6921 10.6397 32.6008 8.84065 34.6177 5.18359C49.65 10.5357 63.6856 17.2309 76.5735 24.995C74.2099 28.2958 75.317 32.7207 78.7876 34.946Z" fill="#63BA68"/>
<path d="M54.0711 17.9494C59.1728 20.3451 60.7903 26.0225 58.107 30.4732C55.4124 34.9313 49.6359 36.6691 44.7905 34.5101C39.9558 32.346 37.6769 26.9342 40.1153 22.2423C42.5429 17.5525 48.9795 15.5499 54.0711 17.9494Z" fill="#3A8340"/>
<path d="M80.6872 29.2136C74.319 37.3952 68.5289 45.8378 63.3297 54.4774C46.44 43.6855 27.1177 34.9736 5.83325 29.2122C9.58011 19.3814 13.9407 9.62282 18.9142 0C41.7413 6.98808 62.4896 17.0166 80.6872 29.2136Z" fill="#3A8340"/>
<path d="M72.9541 34.946C70.4674 38.4379 68.0831 41.9702 65.8007 45.5395C62.4126 43.4034 57.877 44.5231 55.927 47.9663C43.8499 41.0335 30.675 35.1319 16.5512 30.5373C18.1409 26.7977 16.2358 22.6568 12.0532 21.422C13.7889 17.3718 15.6306 13.3378 17.5785 9.32599C21.8586 10.6397 26.7673 8.84065 28.7842 5.18359C43.8165 10.5357 57.8521 17.2309 70.74 24.995C68.3764 28.2958 69.4835 32.7207 72.9541 34.946Z" fill="#63BA68"/>
<path d="M48.2376 17.9494C53.3393 20.3451 54.9568 26.0225 52.2735 30.4732C49.5789 34.9313 43.8024 36.6691 38.957 34.5101C34.1223 32.346 31.8434 26.9342 34.2818 22.2423C36.7094 17.5525 43.146 15.5499 48.2376 17.9494Z" fill="#3A8340"/>
<path d="M74.8539 31.2283C68.4857 39.4098 62.6957 47.8525 57.4965 56.4921C40.6068 45.7001 21.2844 36.9883 0 31.2268C3.74686 21.396 8.1074 11.6375 13.0809 2.01465C35.9081 9.00273 56.6564 19.0312 74.8539 31.2283Z" fill="#3A8340"/>
<path d="M67.1209 36.9607C64.6341 40.4525 62.2499 43.9849 59.9674 47.5542C56.5794 45.4181 52.0437 46.5378 50.0938 49.9809C38.0167 43.0481 24.8418 37.1465 10.7179 32.552C12.3076 28.8123 10.4025 24.6714 6.21997 23.4367C7.95564 19.3865 9.79739 15.3525 11.7452 11.3406C16.0253 12.6543 20.934 10.8553 22.9509 7.19824C37.9832 12.5503 52.0188 19.2456 64.9068 27.0096C62.5432 30.3104 63.6502 34.7353 67.1209 36.9607Z" fill="#63BA68"/>
<path d="M42.4044 19.964C47.506 22.3598 49.1235 28.0371 46.4403 32.4879C43.7457 36.9459 37.9691 38.6837 33.1237 36.5248C28.2891 34.3606 26.0102 28.9488 28.4485 24.2569C30.8762 19.5672 37.3127 17.5646 42.4044 19.964Z" fill="#3A8340"/>
</svg>
