<svg width="24" height="24" viewBox="0 0 24 24" fill="none" xmlns="http://www.w3.org/2000/svg">
<path fill-rule="evenodd" clip-rule="evenodd" d="M2 12C2 6.48584 6.48584 2 12 2C17.5142 2 22 6.48584 22 12C22 17.5142 17.5142 22 12 22C6.48584 22 2 17.5142 2 12ZM3 12C3 16.9624 7.0376 21 12 21C16.9624 21 21 16.9624 21 12C21 7.0376 16.9624 3 12 3C7.0376 3 3 7.0376 3 12ZM12 16C11.7236 16 11.5 16.2236 11.5 16.5V17.5C11.5 17.7764 11.7236 18 12 18C12.2764 18 12.5 17.7764 12.5 17.5V16.5C12.5 16.2236 12.2764 16 12 16ZM9.75049 6.75293C10.5444 6.08594 11.5938 5.80811 12.6304 5.98975C14.0396 6.23682 15.1968 7.39404 15.4448 8.8042C15.7061 10.2925 14.9995 11.7783 13.687 12.5015C12.9438 12.9111 12.5 13.6016 12.5 14.3477V14.5981C12.5 14.8745 12.2764 15.0981 12 15.0981C11.7236 15.0981 11.5 14.8745 11.5 14.5981V14.3477C11.5 13.2314 12.1372 12.2139 13.2046 11.6255C14.1572 11.1006 14.6499 10.061 14.4595 8.97705C14.2837 7.97412 13.4604 7.15039 12.4575 6.9751C11.7041 6.84277 10.9697 7.03613 10.3936 7.51904C9.82568 7.99561 9.5 8.69385 9.5 9.43457C9.5 9.71094 9.27637 9.93457 9 9.93457C8.72363 9.93457 8.5 9.71094 8.5 9.43457C8.5 8.39795 8.95557 7.42041 9.75049 6.75293Z" fill="black"/>
</svg>
