<?xml version="1.0" encoding="UTF-8"?>
<svg width="200px" height="60px" viewBox="0 0 200 60" version="1.1" xmlns="http://www.w3.org/2000/svg" xmlns:xlink="http://www.w3.org/1999/xlink">
    <!-- Generator: sketchtool 63.1 (101010) - https://sketch.com -->
    <title>8131ADCD-B241-465C-A74E-2E62579DF554@1x</title>
    <desc>Created with sketchtool.</desc>
    <g id="Symbols" stroke="none" stroke-width="1" fill="none" fill-rule="evenodd">
        <g id="New-SBB-logo" fill="#D9292A">
            <path d="M69.2476159,55.6785675 L71.373926,55.6785675 L71.373926,0 L69.2476159,0 L69.2476159,55.6785675 Z M35.5546673,21.7020007 C35.4803439,19.9945838 35.0046741,18.3004311 34.1243546,16.7700895 L26.3570629,3.26494971 C25.7647879,2.23532663 25.355844,1.13142478 25.1289098,0 L24.8041991,0.564054383 C22.8817003,3.90693047 22.8817003,8.02442799 24.8038688,11.3673041 L31.0176361,22.1715486 C32.9398046,25.5140931 32.9398046,29.6325854 31.0176361,32.9751299 L30.6925951,33.5391843 C30.4656609,32.4077595 30.0563867,31.3041892 29.464442,30.2742346 L20.1439562,14.068531 C19.5516812,13.0389079 19.142407,11.9350061 18.9151425,10.8035813 L18.5907621,11.3679673 C16.6745394,14.6992373 16.6685936,18.8011496 18.5716032,22.137062 L18.5712728,22.1377252 L24.8041991,32.9751299 C26.7263676,36.3176744 26.7263676,40.4361667 24.8041991,43.7787112 L24.4794884,44.3427656 C24.2518936,43.2113408 23.8429497,42.1077705 23.2506747,41.0778159 L15.4837133,27.5730076 C14.4421946,25.7621311 13.9661944,23.7231126 14.0534005,21.7029955 C5.73875817,23.8839394 0,28.5140931 0,33.8754283 C0,41.3338123 11.1049083,47.3795733 24.8041991,47.3795733 C38.5031596,47.3795733 49.6083982,41.3338123 49.6083982,33.8754283 C49.6083982,28.5140931 43.86964,23.882613 35.5546673,21.7020007 Z M140.733192,53.7174754 L142.859833,53.7174754 L142.859833,32.309937 C142.160862,32.309937 141.431832,32.4011274 140.733192,32.6143473 L140.733192,53.7174754 Z M117.949599,50.7595888 C116.947059,51.7351608 115.671339,52.3148005 114.091718,52.3148005 C110.780198,52.3148005 109.079017,49.905383 109.079017,45.9715928 C109.079017,41.8855974 110.932148,39.5066873 115.003089,39.5066873 C116.096468,39.5066873 117.038229,39.6283851 117.949599,39.8724439 L117.949599,50.7595888 Z M106.922317,45.9715928 C106.922317,51.1866917 109.595648,54.0835636 113.909378,54.0835636 C115.610559,54.0835636 117.007839,53.4429093 118.040769,52.5283519 L118.101549,53.7174754 L120.075909,53.7174754 L120.075909,38.469769 C118.465899,37.859622 116.886279,37.6155632 115.003089,37.6155632 C109.565258,37.6155632 106.922317,40.6042887 106.922317,45.9715928 Z M129.918641,37.6155632 C128.21746,37.6155632 126.24277,37.9206367 124.20763,38.469769 L124.20763,53.7174754 L126.33394,53.7174754 L126.33394,39.9334586 C127.48843,39.6588925 128.76415,39.5066873 129.857861,39.5066873 C133.594511,39.5066873 134.657832,40.9703769 134.657832,43.8065657 L134.657832,53.7174754 L136.784142,53.7174754 L136.784142,43.4099702 C136.784142,39.7199072 135.052571,37.6155632 129.918641,37.6155632 Z M152.763014,37.981983 L150.180854,37.981983 L143.649312,45.0875428 L143.649312,45.3007627 L150.606314,53.7174754 L153.248924,53.7174754 L146.140303,45.1787333 L152.763014,37.981983 Z M167.131216,37.6155632 C165.430035,37.6155632 163.455345,37.9206367 161.420205,38.469769 L161.420205,53.7174754 L163.546845,53.7174754 L163.546845,39.9334586 C164.701005,39.6588925 165.976725,39.5066873 167.070766,39.5066873 C170.807086,39.5066873 171.870406,40.9703769 171.870406,43.8065657 L171.870406,53.7174754 L173.996717,53.7174754 L173.996717,43.4099702 C173.996717,39.7199072 172.265146,37.6155632 167.131216,37.6155632 Z M156.225824,32.6756936 C155.405294,32.6756936 154.797824,33.2851774 154.797824,34.1092075 C154.797824,34.9322427 155.405294,35.5118824 156.225824,35.5118824 C157.045694,35.5118824 157.623104,34.9322427 157.623104,34.1092075 C157.623104,33.2851774 157.045694,32.6756936 156.225824,32.6756936 Z M155.162504,53.7174754 L157.288814,53.7174754 L157.288814,37.981983 L155.162504,37.981983 L155.162504,53.7174754 Z M96.4420558,51.7351608 L92.6753454,51.7351608 L92.6753454,43.8065657 L96.6243959,43.8065657 C100.452217,43.8065657 102.335737,45.3309384 102.335737,47.8013706 C102.335737,50.4548469 100.482607,51.7351608 96.4420558,51.7351608 Z M92.6753454,34.4444567 C93.7386657,34.3220957 94.7104855,34.2614126 95.6826357,34.2614126 C100.178707,34.2614126 101.393647,35.8779706 101.393647,38.073505 C101.393647,40.2690395 99.7535766,41.8239195 96.4724458,41.8239195 L92.6753454,41.8239195 L92.6753454,34.4444567 Z M99.9963664,42.7086327 C102.274627,41.9462805 103.550677,39.963966 103.550677,37.8291146 C103.550677,34.4136178 101.302807,32.2787664 95.652576,32.2787664 C93.9510655,32.2787664 92.1587152,32.4316348 90.548705,32.706201 L90.548705,53.7174754 L96.6547859,53.7174754 C102.153397,53.7174754 104.522827,51.521941 104.522827,47.7098486 C104.522827,45.1485575 102.791257,43.2269261 99.9963664,42.7086327 Z M188.152849,50.7595888 C187.150639,51.7351608 185.874588,52.3148005 184.294968,52.3148005 C180.983778,52.3148005 179.282267,49.905383 179.282267,45.9715928 C179.282267,41.8855974 181.135728,39.5066873 185.206338,39.5066873 C186.300049,39.5066873 187.241478,39.6283851 188.152849,39.8724439 L188.152849,50.7595888 Z M177.125567,45.9715928 C177.125567,51.1866917 179.798897,54.0835636 184.112628,54.0835636 C185.783418,54.0835636 187.150639,53.4734166 188.152849,52.5893666 L188.152849,53.4124019 C188.152849,56.8282304 186.269659,58.169559 182.988528,58.169559 C181.743198,58.169559 180.042018,57.895656 178.644737,57.2248259 C178.523177,57.773295 178.431677,58.5969935 178.431677,59.1152868 C179.859677,59.7254338 181.439298,60 182.988528,60 C188.062009,60 190.279159,57.3770311 190.279159,53.1378357 L190.279159,38.469769 C188.669149,37.859622 187.089528,37.6155632 185.206338,37.6155632 C179.768507,37.6155632 177.125567,40.6042887 177.125567,45.9715928 Z M166.462965,8.9791091 C169.470256,8.9791091 170.928316,11.02277 170.928316,14.0413397 L170.928316,14.1637007 L161.693385,14.1637007 C161.936505,10.9922626 163.424955,8.9791091 166.462965,8.9791091 Z M167.282835,23.5864928 C169.014406,23.5864928 170.594356,23.3119266 172.113196,22.4278766 C172.264816,21.7570465 172.386376,20.9336797 172.447156,20.3845474 C170.806756,21.3299436 168.984346,21.6960318 167.343946,21.6960318 C163.880475,21.6960318 161.966564,19.743893 161.693385,16.084669 L172.933396,16.084669 C173.024566,15.4745219 173.054956,14.8341992 173.054956,14.194208 C173.054956,10.2604178 171.110656,7.11915552 166.553805,7.11915552 C161.571824,7.11915552 159.536354,10.7176965 159.536354,15.2616337 C159.536354,20.5062452 162.209685,23.5864928 167.282835,23.5864928 Z M156.529724,23.2207362 L156.529724,12.9132309 C156.529724,9.2234995 154.797824,7.11915552 149.663893,7.11915552 C147.962713,7.11915552 145.988022,7.42422903 143.952882,7.97269813 L143.952882,23.2207362 L146.079523,23.2207362 L146.079523,9.43638775 C147.233683,9.1624848 148.509403,9.00961645 149.603443,9.00961645 C153.339764,9.00961645 154.403084,10.4733061 154.403084,13.3094949 L154.403084,23.2207362 L156.529724,23.2207362 Z M195.747049,14.5599646 L194.319379,14.071847 C192.435859,13.4318559 191.251309,12.9132309 191.251309,11.2051509 C191.251309,9.71095391 192.435859,8.94893335 194.775229,8.94893335 C196.26368,8.94893335 197.81291,9.19299215 199.21052,9.71095391 C199.39253,9.1011385 199.4837,8.42997679 199.51376,7.91201503 C198.11648,7.36255112 196.476079,7.11915552 194.714119,7.11915552 C191.281699,7.11915552 189.215838,8.55233779 189.215838,11.2661656 C189.215838,13.7057588 190.704619,15.078258 193.408009,15.9019564 L194.80562,16.3287278 C196.26368,16.7860064 197.93414,17.4266608 197.93414,19.2564386 C197.93414,20.9946944 196.506469,21.7265392 194.167429,21.7265392 C192.617869,21.7265392 190.643509,21.360451 189.215838,20.5374157 C189.063888,20.964187 188.942659,21.5431635 188.911938,22.3973693 C190.339608,23.2207362 192.101569,23.5864928 194.228209,23.5864928 C197.87369,23.5864928 200,21.970598 200,19.1954239 C200,16.5419476 198.1472,15.3833315 195.747049,14.5599646 Z M186.724848,19.1954239 C186.724848,16.5419476 184.871718,15.3833315 182.471897,14.5599646 L181.043897,14.071847 C179.160377,13.4318559 177.975827,12.9132309 177.975827,11.2051509 C177.975827,9.71095391 179.160377,8.94893335 181.499747,8.94893335 C182.988197,8.94893335 184.537758,9.19299215 185.935038,9.71095391 C186.117378,9.1011385 186.208218,8.42997679 186.238608,7.91201503 C184.841328,7.36255112 183.200928,7.11915552 181.438967,7.11915552 C178.006217,7.11915552 175.940356,8.55233779 175.940356,11.2661656 C175.940356,13.7057588 177.429137,15.078258 180.132857,15.9019564 L181.530137,16.3287278 C182.988197,16.7860064 184.658988,17.4266608 184.658988,19.2564386 C184.658988,20.9946944 183.231318,21.7265392 180.891947,21.7265392 C179.342717,21.7265392 177.368026,21.360451 175.940356,20.5374157 C175.788406,20.964187 175.667176,21.5431635 175.636456,22.3973693 C177.064457,23.2207362 178.826417,23.5864928 180.952727,23.5864928 C184.598208,23.5864928 186.724848,21.970598 186.724848,19.1954239 Z M118.010379,20.0184592 C116.855889,21.1163922 115.397828,21.7570465 113.696648,21.7570465 C110.962538,21.7570465 109.686818,20.4150547 109.686818,17.2432851 L109.686818,7.48524373 L107.560177,7.48524373 L107.560177,17.6700564 C107.560177,21.7265392 109.504478,23.5864928 113.028398,23.5864928 C115.337048,23.5864928 116.886279,23.0075163 118.071159,21.848237 L118.131609,23.2207362 L120.137019,23.2207362 L120.137019,7.48524373 L118.010379,7.48524373 L118.010379,20.0184592 Z M134.596721,19.1954239 C134.596721,16.5419476 132.743921,15.3833315 130.343771,14.5599646 L128.9161,14.071847 C127.03258,13.4318559 125.84803,12.9132309 125.84803,11.2051509 C125.84803,9.71095391 127.03258,8.94893335 129.371951,8.94893335 C130.860401,8.94893335 132.409631,9.19299215 133.806911,9.71095391 C133.989251,9.1011385 134.080421,8.42997679 134.110481,7.91201503 C132.713201,7.36255112 131.072801,7.11915552 129.31084,7.11915552 C125.87842,7.11915552 123.81256,8.55233779 123.81256,11.2661656 C123.81256,13.7057588 125.30101,15.078258 128.00473,15.9019564 L129.40201,16.3287278 C130.860401,16.7860064 132.530861,17.4266608 132.530861,19.2564386 C132.530861,20.9946944 131.103191,21.7265392 128.76415,21.7265392 C127.21459,21.7265392 125.24023,21.360451 123.81256,20.5374157 C123.66061,20.964187 123.53905,21.5431635 123.50866,22.3973693 C124.93633,23.2207362 126.69829,23.5864928 128.8246,23.5864928 C132.470411,23.5864928 134.596721,21.970598 134.596721,19.1954239 Z M138.758502,2.17895435 C137.937971,2.17895435 137.330501,2.78876976 137.330501,3.61213662 C137.330501,4.43517188 137.937971,5.01481154 138.758502,5.01481154 C139.578372,5.01481154 140.155782,4.43517188 140.155782,3.61213662 C140.155782,2.78876976 139.578372,2.17895435 138.758502,2.17895435 Z M137.695182,23.2207362 L139.821492,23.2207362 L139.821492,7.48524373 L137.695182,7.48524373 L137.695182,23.2207362 Z M96.4420558,21.2387532 L92.6753454,21.2387532 L92.6753454,13.3094949 L96.6243959,13.3094949 C100.452217,13.3094949 102.335737,14.8341992 102.335737,17.3042998 C102.335737,19.9577761 100.482607,21.2387532 96.4420558,21.2387532 Z M92.6753454,3.94771748 C93.7386657,3.82502487 94.7104855,3.76434177 95.6826357,3.76434177 C100.178707,3.76434177 101.393647,5.38089975 101.393647,7.57643418 C101.393647,9.77196861 99.7535766,11.3275119 96.4724458,11.3275119 L92.6753454,11.3275119 L92.6753454,3.94771748 Z M99.9963664,12.2115618 C102.274627,11.4495413 103.550677,9.4668951 103.550677,7.33237537 C103.550677,3.91721012 101.302807,1.78235879 95.652576,1.78235879 C93.9510655,1.78235879 92.1587152,1.93456394 90.548705,2.2091301 L90.548705,23.2207362 L96.6547859,23.2207362 C102.153397,23.2207362 104.522827,21.0252017 104.522827,17.2127777 C104.522827,14.6514867 102.791257,12.7305184 99.9963664,12.2115618 L99.9963664,12.2115618 Z"></path>
        </g>
    </g>
</svg>