<svg width="273" height="170" viewBox="0 0 273 170" fill="none" xmlns="http://www.w3.org/2000/svg">
<circle r="71" transform="matrix(-1 0 0 1 169 93)" fill="#BDDBE5"/>
<ellipse rx="63" ry="59.5" transform="matrix(-1 0 0 1 96 110.5)" fill="#BDDBE5"/>
<ellipse rx="57.5" ry="54" transform="matrix(-1 0 0 1 90.5 105)" fill="#DEEDF2"/>
<ellipse rx="57.5" ry="54" transform="matrix(-1 0 0 1 106.5 54)" fill="#DEEDF2"/>
<ellipse rx="41" ry="42.5" transform="matrix(-1 0 0 1 41 93.5)" fill="#DEEDF2"/>
<circle r="71" transform="matrix(-1 0 0 1 186 76)" fill="#DEEDF2"/>
<ellipse rx="41" ry="42.5" transform="matrix(-1 0 0 1 232 93.5)" fill="#DEEDF2"/>
<ellipse cx="103.312" cy="27.6789" rx="3.30688" ry="4.6789" fill="#FFCC33"/>
<ellipse cx="61.6455" cy="121.257" rx="2.6455" ry="3.11927" fill="#FFCC33"/>
<path d="M65.959 80.4141L70.01 85.5559L65.959 90.6978L61.9079 85.5559L65.959 80.4141Z" fill="#1BB3BC"/>
<rect x="76.1958" y="55.752" width="3.96825" height="4.6789" fill="#CC0000"/>
<path d="M98.3774 106.592L101.618 110.705L98.3774 114.819L95.1365 110.705L98.3774 106.592Z" fill="#556082"/>
<path d="M75.0329 106.643C77.036 105.937 80.0234 104.921 83.2615 103.416C91.9428 99.3822 102.426 91.8375 100.574 77.3554C99.0429 65.3807 85.2657 77.9931 92.9916 83.3514C100.717 88.7097 119.231 77.1974 122.89 72.7541" stroke="#C3DEE7" stroke-linecap="square" stroke-dasharray="2 2"/>
<path d="M205.33 75.4787L130.661 76.4188C129.481 76.4336 128.57 77.4616 128.698 78.6347L133.062 118.783C133.215 120.196 134.752 121.003 136.002 120.326L208.935 80.8298L205.33 75.4787Z" fill="#137E84"/>
<path d="M212.108 75.5899C209.902 75.0506 119.769 50.635 116.228 49.6469C112.687 48.6589 110.665 50.7256 112.927 54.3264C115.188 57.9272 124.844 72.5134 125.883 74.0517C126.922 75.5899 127.69 78.7682 125.883 80.5807C124.077 82.3931 107.183 104.185 104.306 108.054C101.429 111.924 102.371 115.471 106.595 114.07C110.818 112.669 209.902 80.8316 212.108 79.5803C214.313 78.3289 214.313 76.1292 212.108 75.5899Z" fill="#1BB3BC"/>
<path d="M114.151 49.4004C111.897 49.532 110.961 51.4808 112.761 54.4419C114.226 56.8517 119.687 65.4888 123.477 71.3592C125.585 74.625 126.834 76.8982 126.755 78.2514C126.731 78.6539 133.114 74.8442 130.771 74.8442C128.948 74.8442 128.257 73.9672 127.976 73.5611C126.621 71.6035 116.941 57.2012 114.631 53.5583C113.551 51.8555 113.008 50.1251 114.151 49.4004Z" fill="#137E84"/>
<path d="M125.56 73.9492C126.161 74.9522 126.724 76.6973 126.694 78.2813C129.401 78.2813 202.631 78.1636 206.22 78.2813C207.112 78.2813 207.112 76.7296 206.22 76.7296C205.806 76.698 132.782 74.0985 125.56 73.9492Z" fill="#137E84"/>
</svg>
