<?xml version="1.0" encoding="UTF-8"?>
<svg width="182px" height="170px" viewBox="0 0 182 170" version="1.1" xmlns="http://www.w3.org/2000/svg" xmlns:xlink="http://www.w3.org/1999/xlink">
    <!-- Generator: sketchtool 63.1 (101010) - https://sketch.com -->
    <title>413E8F8A-AAC0-4C33-A52F-567F3415CA91</title>
    <desc>Created with sketchtool.</desc>
    <defs>
        <polygon id="path-1" points="0.0578189779 0.104850684 32.5799946 0.104850684 32.5799946 64.5902415 0.0578189779 64.5902415"></polygon>
    </defs>
    <g id="Page-1" stroke="none" stroke-width="1" fill="none" fill-rule="evenodd">
        <g id="2.0-Device-registration_Magic-link" transform="translate(-72.000000, -128.000000)">
            <g id="Group-17" transform="translate(64.000000, 128.000000)">
                <g id="Backgrounds/Scenenarios/Outdoors/Park">
                    <g id="Group-173">
                        <path d="M137.261091,88.9971006 C138.83446,87.2184724 140.694436,85.6601313 142.818585,84.4054869 C153.829572,77.9010898 167.783186,81.989718 173.984896,93.5375796 C177.733952,100.518714 177.792719,108.627727 174.818205,115.385852 C174.081297,113.014607 173.110988,110.68497 171.899306,108.429021 C164.702632,95.0292319 150.976856,87.913164 137.261091,88.9971006" id="Fill-6" fill="#DEEDF2"></path>
                        <path d="M137.261091,88.9971006 C137.922362,86.6719351 138.933642,84.411903 140.309945,82.3013862 C147.44396,71.3611123 161.682698,68.5578482 172.114168,76.0394409 C178.420435,80.5624214 181.891413,87.8085617 182.072905,95.2493245 C180.412405,93.4646691 178.559475,91.825057 176.521715,90.3633467 C164.417694,81.6821327 149.106314,81.6640509 137.261091,88.9971006" id="Fill-7" fill="#DEEDF2"></path>
                        <path d="M137.261091,88.9971006 C136.999141,86.5861923 137.083492,84.0914856 137.559006,81.5835577 C140.025564,68.5846793 152.0723,60.1441673 164.466635,62.7308385 C171.959557,64.2942347 177.864093,69.5297942 180.815805,76.2986135 C178.620652,75.3406663 176.302959,74.5954235 173.881821,74.0901049 C159.49978,71.0887186 145.410834,77.376134 137.261091,88.9971006" id="Fill-8" fill="#DEEDF2"></path>
                        <path d="M177.065266,102.110692 L176.940686,102.338367 L175.531569,104.895485 L168.230522,118.160341 C162.551971,128.476695 152.056913,134.83216 140.698514,134.83216 L129.880143,134.83216 C121.271014,146.603031 108.98754,154.758706 95.2797471,157.934494 C92.3061597,158.625103 89.2643503,159.080453 86.1797168,159.286547 C84.9092683,159.372873 83.6319605,159.415647 82.3479788,159.415647 L58.2954756,159.415647 C37.0317302,159.415647 21.8142113,141.110438 21.8142113,121.154922 C21.8142113,116.487093 22.6469641,111.729632 24.4301896,107.094078 C25.0747758,105.413636 25.8475934,103.74797 26.7485681,102.110692 L177.065266,102.110692 Z" id="Fill-10" fill="#DEEDF2"></path>
                        <path d="M81.4453356,159.4159 L58.2954756,159.4159 C37.0319156,159.4159 21.8141186,141.110243 21.8141186,121.154922 C21.8141186,116.486899 22.6468714,111.729438 24.4302823,107.094078 L52.639171,107.094078 L81.4453356,159.4159 Z" id="Fill-11" fill="#C3DEE7"></path>
                        <path d="M117.045517,69.5290165 C101.877997,69.5290165 89.5822869,82.4244592 89.5822869,98.3319817 C89.5822869,98.5085224 89.5856238,98.6842854 89.5887754,98.8600484 L19.7169794,98.8600484 L19.7169794,115.962526 L95.3288743,115.962526 C100.352457,122.758954 108.21133,127.134753 117.045517,127.134753 C132.213037,127.134753 144.508933,114.23931 144.508933,98.3319817 C144.508933,82.4244592 132.213037,69.5290165 117.045517,69.5290165" id="Fill-12" fill="#FFFFFF"></path>
                        <path d="M22.770431,164.173886 C23.3988887,161.917354 24.3664169,159.722066 25.6881617,157.669489 C32.5409459,147.028829 46.3204832,144.229259 56.4659037,151.416098 C62.5993912,155.760788 66.0008489,162.760199 66.2166379,169.967843 C64.5982203,168.248126 62.794417,166.670926 60.8126433,165.266766 C49.0400921,156.927551 34.2066368,157.000267 22.770431,164.173886" id="Fill-19" fill="#FFFFFF"></path>
                        <path d="M22.770431,164.173886 C22.382604,161.858636 22.324949,159.440534 22.645481,156.986463 C24.3056104,144.265228 35.4845008,135.363921 47.6144757,137.105025 C54.947409,138.157658 60.9490872,142.858346 64.1812877,149.223144 C62.0050444,148.431238 59.7220189,147.853204 57.3526037,147.512955 C43.2777469,145.492069 30.0035711,152.436457 22.770431,164.173886" id="Fill-20" fill="#FFFFFF"></path>
                        <path d="M22.770431,164.173886 C21.5472558,162.203941 20.5891823,160.004181 19.9651738,157.615049 C16.7307487,145.230758 23.6804896,132.442056 35.4885793,129.049869 C42.6268575,126.999042 49.9062143,128.851164 55.2612671,133.374533 C52.9632253,133.54213 50.6472012,133.950235 48.3406317,134.612846 C34.6389564,138.549042 25.0297271,150.4006 22.770431,164.173886" id="Fill-21" fill="#FFFFFF"></path>
                        <path d="M22.770431,164.173886 C20.9898009,162.746006 19.385658,161.008597 18.0362351,158.975851 C11.0407039,148.437849 13.5150475,133.94829 23.5627697,126.611547 C29.6366927,122.176253 37.0879021,121.370154 43.5765887,123.755787 C41.4639327,124.719567 39.4109709,125.916077 37.4484774,127.349207 C25.7893823,135.862435 20.5100225,150.400795 22.770431,164.173886" id="Fill-22" fill="#FFFFFF"></path>
                        <g id="Objects/Cloud-01" transform="translate(25.531250, 46.578755)" fill="#DEEDF2">
                            <path d="M15.6703479,0.369754997 C16.1348528,0.16134965 19.3505,0 23.2479052,0 C27.4644289,0 30.882785,0.188863208 30.882785,0.421847867 C30.882785,0.460071062 30.7908388,0.497106807 30.6182771,0.532314678 C30.6831038,0.532361888 30.7473733,0.532489152 30.8112713,0.532695442 L30.8831565,0.532368046 L30.8831565,0.532959206 C33.0699906,0.542036997 34.79375,0.642966226 34.79375,0.766130655 C34.79375,0.889295083 33.0699906,0.990224312 30.8831565,0.999302103 L30.8831565,1 L3.08539938,1 L3.08539938,0.999976395 L3.0853065,0.999976395 C1.3814223,0.999976395 0,0.923638793 0,0.829484295 C0,0.735329797 1.3814223,0.659002459 3.0853065,0.659002459 L3.08539938,0.659002459 L3.08539938,0.658995275 L10.1280898,0.626913572 C10.0959179,0.615291536 10.0792375,0.603388289 10.0792375,0.591270542 C10.0792375,0.462128832 11.9738869,0.357434038 14.3111784,0.357434038 C14.786624,0.357434038 15.2437546,0.361766131 15.6703479,0.369754997 Z" id="Primary-color"></path>
                        </g>
                        <polygon id="Fill-28" fill="#DEEDF2" points="64.7279903 74.8378753 71.3119652 74.8378753 71.3119652 49.4683156 64.7279903 49.4683156"></polygon>
                        <polygon id="Fill-29" fill="#DEEDF2" points="35.6048161 78.6910511 45.9801149 78.6910511 45.9801149 49.4683156 35.6048161 49.4683156"></polygon>
                        <polygon id="Fill-30" fill="#DEEDF2" points="25.7259803 81.2911379 36.1012792 81.2911379 36.1012792 52.0682079 25.7259803 52.0682079"></polygon>
                        <path d="M68.4942872,74.8380697 L77.1773849,74.8380697 L77.1773849,49.12515 C77.1773849,44.0956844 73.2898457,40.0185274 68.4942872,40.0185274 L68.4942872,74.8380697 Z" id="Fill-31" fill="#DEEDF2"></path>
                        <path d="M65.8660734,74.8380697 L68.4942872,74.8380697 L68.4942872,40.0185274 C66.9103514,40.6607234 65.8660734,42.258339 65.8660734,44.0391058 L65.8660734,74.8380697 Z" id="Fill-32" fill="#FFFFFF"></path>
                        <polygon id="Fill-33" fill="#FFFFFF" points="53.1938452 70.3199499 55.8218736 70.3199499 55.8218736 37.8444326 53.1938452 38.9100929"></polygon>
                        <polygon id="Fill-34" fill="#FFFFFF" points="44.6659154 74.8380697 47.2941291 74.8380697 47.2941291 46.4616797 44.6659154 47.5271456"></polygon>
                        <polygon id="Fill-35" fill="#FFFFFF" points="32.9766024 74.8380697 35.6048161 74.8380697 35.6048161 49.46851 32.9766024 50.5341704"></polygon>
                        <polygon id="Fill-36" fill="#DEEDF2" points="22.0773849 91.0287404 24.0961349 91.0287404 24.0961349 66.7468114 22.0773849 66.7468114"></polygon>
                        <polygon id="Fill-37" fill="#DEEDF2" points="55.8216882 70.3197555 61.3923445 70.3197555 61.3923445 37.8442382 55.8216882 37.8442382"></polygon>
                        <polygon id="Fill-38" fill="#DEEDF2" points="50.2193309 74.8380697 57.4328757 74.8380697 57.4328757 50.5565296 50.2193309 50.5565296"></polygon>
                        <polygon id="Fill-39" fill="#DEEDF2" points="47.2939437 74.8378753 54.5074886 74.8378753 54.5074886 46.4614853 47.2939437 46.4614853"></polygon>
                        <polygon id="Fill-40" fill="#DEEDF2" points="38.2304345 74.8380697 44.6659154 74.8380697 44.6659154 58.5216649 38.2304345 58.5216649"></polygon>
                        <polygon id="Fill-41" fill="#DEEDF2" points="25.7259803 83.8095648 80.9898428 83.8095648 80.9898428 68.2945926 25.7259803 68.2945926"></polygon>
                        <path d="M73.6726673,33.3980567 L73.4537267,33.3980567 L73.4537267,79.5572282 L86.6394735,79.5572282 L86.6394735,46.9971347 C86.6394735,39.4867666 80.8341188,33.3980567 73.6726673,33.3980567" id="Fill-42" fill="#DEEDF2"></path>
                        <polygon id="Fill-43" fill="#DEEDF2" points="90.2906458 99.0554486 90.2906458 92.8716634 49.0701246 92.8716634 49.0701246 99.0554486 49.0701246 102.645952 189.994809 102.645952 189.994809 99.0554486"></polygon>
                        <path d="M108.010001,51.757123 L89.4323098,51.757123 C69.6516504,51.757123 51.3739133,62.8245529 41.4835836,80.7902911 L23.231096,80.7902911 L8.17758784,108.134657 L27.4558148,108.134657 C36.6859858,108.134657 45.215028,102.970064 49.8303916,94.5865191 C50.6520212,93.094478 52.1699597,92.175222 53.8124774,92.175222 L70.8429392,92.175222 C80.0732957,92.175222 88.6025232,87.0108232 93.2177014,78.6272787 L108.010001,51.757123 Z" id="Fill-44" fill="#DEEDF2"></path>
                        <path d="M31.5189142,108.687222 C31.5189142,108.687222 27.7099786,87.4418703 45.680717,85.0770415 C63.6514553,82.7124072 62.0704856,68.2656228 74.6583633,70.3782784 C87.2464264,72.4913228 95.0200217,90.9365207 95.0200217,90.9365207 L70.8429392,92.175222 L58.6193445,106.679168 L31.5189142,108.687222 Z" id="Fill-45" fill="#FFFFFF"></path>
                        <path d="M81.1540946,54.4503408 L96.9372811,54.4503408 C113.741758,54.4503408 129.270039,63.8526886 137.672833,79.1158765 L153.179053,79.1158765 L165.968075,102.346533 L149.590171,102.346533 C141.748353,102.346533 134.502366,97.9588742 130.581458,90.8367791 C129.88348,89.569108 128.593752,88.7880904 127.198168,88.7880904 L112.729922,88.7880904 C104.88829,88.7880904 97.6421177,84.4006262 93.7212091,77.2783366 L81.1540946,54.4503408 Z" id="Fill-46" fill="#DEEDF2"></path>
                        <g id="Nature/Plants/Tree-03" transform="translate(82.531250, 0.000000)">
                            <g id="Group-5">
                                <path d="M50.726685,0.000729047301 C46.7845394,0.0286576995 43.0229615,0.850225552 39.5790418,2.32074667 C36.5519447,3.61283473 33.2519611,3.97222218 30.0233905,3.43944435 C29.1379433,3.29340077 28.2288151,3.22319125 27.3017412,3.23521608 C18.5841751,3.34983993 11.4840764,10.8457738 11.4334802,19.9850374 C11.4058181,25.0566091 13.5150917,29.6116947 16.8727977,32.7193391 C19.4187451,35.0758191 21.2608675,38.1502982 22.3296574,41.5298591 C26.3041793,54.1020195 37.6087091,63.1716553 50.9346337,63.1716553 C67.5938434,63.1716553 81.0949704,48.9980583 81.064127,31.5265529 C81.0335478,14.0851096 67.3636937,-0.117191929 50.726685,0.000729047301" id="Fill-1" fill="#DEEDF2"></path>
                                <g id="Group" transform="translate(17.626615, 33.461047)" fill="#9BC3D3">
                                    <path d="M4.69832785,8.04901203 C5.40785096,10.2946038 6.35240244,12.4295056 7.50202589,14.4194055 C4.84145292,11.2656129 2.77593999,7.55197324 1.48504063,3.46652374 C1.11668775,2.30263103 0.657725964,1.17440726 0.108710037,0.0998807302 C2.20991178,2.32221018 3.75488587,5.06677929 4.69832785,8.04901203" id="Fill-3"></path>
                                </g>
                                <path d="M33.4199886,54.7569349 C37.6738722,57.1646175 42.5421667,58.5313759 47.7157239,58.5313759 C64.3749336,58.5313759 77.8758756,44.3583607 77.8453493,26.8868553 C77.8348039,20.962296 76.2498423,15.4114764 73.5108023,10.669424 C78.1918689,16.2272258 81.0448737,23.5131129 81.0586153,31.4716151 C81.0889055,48.9433144 67.5883335,63.1161357 50.9289389,63.1161357 C43.9855973,63.1161357 37.5904337,60.6529837 32.4951347,56.5135308 L33.4199886,54.7569349 Z" id="Fill-2" fill="#9BC3D3"></path>
                                <polygon id="Fill-3" fill="#C3DEE7" points="53.2729873 46.7577035 65.8916273 36.7415966 67.3944454 38.8222812 54.7758054 48.838388"></polygon>
                                <path d="M27.1611757,99.4765256 L0,99.4765256 L30.9338541,43.3025025 C35.8088089,34.4493137 44.8194273,28.9954685 54.5706318,28.9954685 L65.9734007,28.9954685 L27.1611757,99.4765256 Z" id="Fill-4" fill="#C3DEE7"></path>
                            </g>
                        </g>
                        <polygon id="Fill-50" fill="#FFFFFF" points="157.616447 99.2226568 165.847203 99.2226568 165.847203 74.1404618 157.616447 74.1404618"></polygon>
                        <path d="M137.261091,88.9971006 C136.245734,86.8165896 135.530145,84.4358177 135.179395,81.9055306 C133.360761,68.7896065 142.024393,56.611409 154.53033,54.7044583 C162.090546,53.5513054 169.324298,56.4156199 174.263901,61.7604479 C171.889481,61.6270703 169.467416,61.7371166 167.024588,62.1096408 C152.512962,64.3228157 141.238543,75.1878459 137.261091,88.9971006" id="Fill-9" fill="#DEEDF2"></path>
                        <path d="M150.992799,78.9198929 C146.687957,78.9198929 143.197885,82.5800016 143.197885,87.0950106 L143.197885,110.016137 L150.992799,110.016137 L150.992799,78.9198929 Z" id="Fill-51" fill="#FFFFFF"></path>
                        <polygon id="Fill-52" fill="#DEEDF2" points="157.496317 91.0823418 165.877977 91.0823418 165.877977 79.3243034 157.496317 79.3243034"></polygon>
                        <polygon id="Fill-53" fill="#DEEDF2" points="157.496317 94.8281932 165.877977 94.8281932 165.877977 92.1796939 157.496317 92.1796939"></polygon>
                        <polygon id="Fill-54" fill="#FFFFFF" points="173.673077 109.339333 176.513001 109.339333 176.513001 66.763277 173.673077 67.9146801"></polygon>
                        <polygon id="Fill-55" fill="#FFFFFF" points="164.458293 109.339333 167.298032 109.339333 167.298032 76.0744379 164.458293 77.2260355"></polygon>
                        <polygon id="Fill-56" fill="#9BC3D3" points="176.512816 109.339139 184.707237 109.339139 184.707237 66.763277 176.512816 66.763277"></polygon>
                        <polygon id="Fill-57" fill="#DEEDF2" points="178.087483 109.339139 184.707237 109.339139 184.707237 66.763277 178.087483 66.763277"></polygon>
                        <polygon id="Fill-58" fill="#C3DEE7" points="167.298217 109.339528 175.093132 109.339528 175.093132 76.0744379 167.298217 76.0744379"></polygon>
                        <polygon id="Fill-59" fill="#FFFFFF" points="150.398453 109.339917 159.055411 109.339917 159.055411 80.3475784 150.398453 80.3475784"></polygon>
                        <polygon id="Fill-60" fill="#9BC3D3" points="167.298217 76.0744379 173.673262 109.339333 167.298217 109.339333"></polygon>
                        <g id="Nature/Plants/Tree-01" transform="translate(162.713104, 66.296844)">
                            <g id="Group">
                                <polygon id="Secondary-color" fill="#DEEDF2" points="0.399832336 42.8110556 0.499832336 42.8110556 0.499832336 16.7349782 0.399832336 16.7349782"></polygon>
                                <path d="M0.152749853,14.8773998 C0.162841885,11.9730383 0.209412921,11.0689364 0.0998159135,8.43807979 C0.0186242845,6.48855555 -0.0500015338,3.86430813 0.0489988397,1.70212264 C0.131175057,-0.0916962585 0.331292669,-0.59302471 0.443203459,0.805213192 C0.579556659,2.50883574 0.480974736,6.19755567 0.877936203,8.93921386 C1.03661495,10.0353717 1.05514983,13.212655 0.825014572,14.3766545 C0.729718712,14.8587385 0.586079558,15.242073 0.494820511,21.5499862 C0.436446721,25.5851068 0.133587299,20.3867643 0.152749853,14.8773998" id="Primary-color" fill="#C3DEE7"></path>
                            </g>
                        </g>
                        <polygon id="Fill-62" fill="#C3DEE7" points="178.087483 73.473379 184.707793 66.763277 176.512445 66.763277"></polygon>
                        <g id="Objects/Windmill-02" transform="translate(17.930220, 31.234764)" fill="#DEEDF2">
                            <g id="Group">
                                <polygon id="Tertiary-color" points="1.25521099 39.1537793 1.42827567 39.1537793 1.42827567 13.0968914 1.25521099 13.0968914"></polygon>
                                <g id="Primary-color" transform="translate(-0.000000, -0.000000)">
                                    <path d="M0.0111709453,13.3333335 C-0.00362542478,13.3212505 -0.00377221417,13.0589769 0.0110241559,13.0447615 L1.18733558,11.923524 L1.33717818,13.0557784 C1.33973232,13.0749692 1.33976167,13.1190368 1.3372369,13.1389383 L1.18848053,14.2914496 L0.0111709453,13.3333335 Z" id="Fill-49"></path>
                                    <path d="M2.02653049,30.5925717 C2.03313602,30.7532054 2.01449376,30.8871853 2.00600934,30.7400562 L1.33212863,15.1927042 L1.33717818,13.0557784 C1.33726626,13.0195292 1.34043691,12.9967846 1.34310847,13.0134877 L1.50040798,13.9858191 L2.02653049,30.5925717 Z" id="Fill-50"></path>
                                    <path d="M2.01355431,0.209346989 C2.02001305,0.0476471356 2.001224,-0.0834896684 1.99291573,0.0647055816 L1.33013229,10.919208 L1.33717818,13.055423 C1.33732497,13.0920276 1.34049562,13.1140614 1.34313783,13.0973584 L1.49949788,12.1033485 L2.01355431,0.209346989 Z" id="Fill-51"></path>
                                </g>
                                <path d="M1.42839646,13.0868572 C1.42839646,13.6746628 1.38902754,14.1512332 1.34049897,14.1512332 C1.29194104,14.1512332 1.25260149,13.6746628 1.25260149,13.0868572 C1.25260149,12.499407 1.29194104,12.0224813 1.34049897,12.0224813 C1.38902754,12.0224813 1.42839646,12.499407 1.42839646,13.0868572" id="Secondary-color"></path>
                            </g>
                        </g>
                        <g id="Objects/Solar-Cell" transform="translate(18.168750, 63.335921)">
                            <g id="Group-5">
                                <path d="M1,0.0439020785 L0.721040522,11.043728 L0.427,11.0429021 L0.427686552,36.6876292 L0.327686552,36.6876292 L0.327,11.0429021 L5.55111512e-17,11.043728 L0.278967755,0.0439020785 L1,0.0439020785 Z" id="Primary-color" fill="#DEEDF2"></path>
                                <path d="M1.00001983,0.0440904995 L0.721004803,11.0446701 L0.42701983,11.0440905 L0.427687603,15.6948989 L0.327687603,15.6948989 L0.32701983,11.0440905 L1.98297943e-05,11.0446701 L0.0449034452,9.27558593 L0.594597379,9.27558593 L0.828786726,0.0440904995 L1.00001983,0.0440904995 Z" id="Secondary-color" fill="#C3DEE7"></path>
                            </g>
                        </g>
                    </g>
                </g>
                <g id="0316-Santander_library_Characters_6-Uniersity-Student_B" transform="translate(58.425000, 16.315018)">
                    <path d="M43.58125,63.5164835 L34.066065,63.5164835 C30.1394395,63.5164835 26.95625,59.7707428 26.95625,55.150334 L26.95625,30.6397669 C26.95625,24.4480145 31.2218874,19.4285714 36.4839095,19.4285714 L43.58125,19.4285714 L43.58125,63.5164835" id="Fill-1" fill="#2C3C58"></path>
                    <path d="M0,136.249084 C0,135.561621 6.53952099,135.003663 14.60625,135.003663 C22.6730843,135.003663 29.2125,135.561621 29.2125,136.249084 C29.2125,136.937757 22.6730843,137.494505 14.60625,137.494505 C6.53952099,137.494505 0,136.937757 0,136.249084" id="Fill-2" fill="#75829E"></path>
                    <polyline id="Fill-3" fill="#9ABCC4" points="43.7 74.2677178 51.1100998 98.301393 56.0874045 127.432926 55.0551471 133.260073 73.0171414 133.260073 73.15 132.501839 62.6940413 126.461941 56.0874045 66.2564103 43.7 74.2677178"></polyline>
                    <path d="M59.49375,7.96123734 L58.5348272,8.85727818 L53.9839088,5.679677 L51.4919783,9.66324606 L50.2741358,12.9581889 L47.1185716,13.3260073 C46.4411936,12.0779416 46.0562501,10.5933419 46.0757034,9.00633041 C46.1287772,4.6587679 49.1918324,1.18429613 52.9171469,1.24623671 C56.2717907,1.30200791 59.0213722,4.20741602 59.49375,7.96123734" id="Fill-4" fill="#953F64"></path>
                    <path d="M52.0125,21.6850373 L50.3735417,27.5238095 C50.3735417,27.5238095 47.9909545,27.2141926 45.8936021,25.4868625 C44.6246523,24.445737 43.4598106,22.88251 42.9875,20.559829 C42.9875,20.559829 45.9117678,17.2372637 47.3342239,11.8117655 C47.5295858,11.0672075 47.6963712,10.2843629 47.8241691,9.46520147 L52.0125,21.6850373" id="Fill-5" fill="#F3BEB1"></path>
                    <path d="M46.8098735,22.4175824 L44.1194937,19.2691031 C44.1194937,19.2691031 44.1194937,19.2697195 44.1193863,19.2708291 L44.05625,19.030298 C45.0438823,17.5451942 46.4342769,15.0602404 47.2886572,11.8315018 C47.2886572,11.8315018 48.0010882,17.1898837 46.8098735,22.4175824" id="Fill-6" fill="#F3BEB1"></path>
                    <path d="M58.9,8.36101991 L58.8556795,9.09181368 C58.8512996,10.0551384 58.6977944,11.0138794 58.459611,11.9288892 L58.4577339,11.9373133 C58.1955653,12.9427587 57.8327632,13.8915889 57.4554657,14.7221096 L57.4536929,14.7242156 C56.7737648,16.2199953 56.0505591,17.3314856 55.801426,17.6940951 L55.7996532,17.6981833 C55.743653,17.7794514 55.7129936,17.8233065 55.7129936,17.8233065 L55.4293427,18.5310578 L54.9007299,19.8545143 C54.7250123,20.2920738 54.4896445,20.6886276 54.205055,21.0295573 C54.0052479,21.2707602 53.7791614,21.4839651 53.5320096,21.6632258 C53.2421017,21.8734575 52.9277914,22.0346311 52.6035741,22.1409238 C52.4343221,22.1970435 52.2616287,22.2363148 52.0873711,22.26072 C51.9950802,22.2738518 51.9044579,22.2828953 51.8120628,22.2877268 C51.7410458,22.2928061 51.670133,22.2937971 51.5990117,22.2925583 L51.2637404,22.2868596 L47.9559738,15.2387073 L47.7375,14.159303 L48.3926086,13.0930304 L48.7944127,12.4358239 L49.0551213,12.0101573 L49.8171205,10.7687122 L49.9347522,10.5745855 L49.936525,10.5726033 L51.3717781,8.23354291 L51.4205827,8.16280495 L54.10828,4.23443223 L58.8543239,8.32224411 L58.9,8.36101991" id="Fill-7" fill="#F3BEB1"></path>
                    <polyline id="Fill-8" fill="#F3BEB1" points="58.54375 11.8315018 58.534231 11.8823898 58.5323686 11.890892 56.9407285 17.8095238 55.9055364 17.7074978 55.8950862 17.7051222 55.3375 17.6508584 55.3784731 17.464436 55.9278854 14.9249144 58.54375 11.8315018"></polyline>
                    <path d="M49.8746544,10.6703402 C49.8578566,12.0115799 49.2329127,13.0889692 48.4789356,13.0768214 C47.7248516,13.0645521 47.1272978,11.9673619 47.1440956,10.6262437 C47.1610005,9.28500396 47.7857304,8.20761469 48.5398144,8.21988398 C49.2937915,8.23203179 49.8914523,9.32910051 49.8746544,10.6703402" id="Fill-9" fill="#F3BEB1"></path>
                    <path d="M49.8275465,10.6646723 L49.51875,13.3260073 L50.3036463,12.95302 C50.3036463,12.95302 51.5319427,7.96717717 52.25,6.89200783 L51.1782098,5.23076923 L50.4605639,6.89200783 L49.8275465,10.6646723" id="Fill-10" fill="#953F64"></path>
                    <path d="M44.2195752,19.3040293 L47.7850058,23.5766793 C48.7847927,24.7747998 50.3201873,25.0975179 51.6110448,24.3806958 L53.7157654,30.7493465 L55.3423362,40.87662 L56.7625,67.3800181 C56.7625,67.3800181 55.0215388,74.2751699 48.8821664,73.2516853 C42.742899,72.2280772 43.6128543,38.0754067 43.6360686,37.6444983 C43.6592828,37.2135899 44.2195752,19.3040293 44.2195752,19.3040293" id="Fill-11" fill="#75829E"></path>
                    <polyline id="Fill-12" fill="#9ABCC4" points="34.2880042 73.3553114 33.0159099 91.7203359 17.3375 123.780388 29.7122056 136.871795 26.0685685 122.002876 41.5523709 97.7772887 51.0625 73.3553114 34.2880042 73.3553114"></polyline>
                    <path d="M46.8083158,79.175466 C42.6083988,78.7708326 39.1578466,77.9146822 36.6432946,77.1010857 C33.9901262,76.2427087 32.3939987,73.0480715 33.0352953,69.8851023 L36.7469691,51.5773879 L34.3432055,28.0696825 C34.0843853,25.5461356 35.1166321,23.0841929 36.9700106,21.7940914 C38.9974702,20.3858533 41.7036789,18.8158112 44.0020942,18.5567766 L48.3141597,35.4717157 L50.9835435,62.8269642 C50.9835435,62.8269642 56.0484264,80.0656348 46.8083158,79.175466" id="Fill-13" fill="#75829E"></path>
                    <path d="M41.4612717,65.8827839 C41.2957622,65.8827839 41.2031231,65.8778087 41.2031231,65.8778087 L41.2031231,65.0851356 L34.9125,60.6192757 L36.1671756,54.4249084 L40.5550703,60.0187696 L42.2859801,63.4902123 C43.8572689,62.7969188 46.5582074,60.5069607 46.5582074,60.5069607 L48.45,62.4193015 C46.7746106,65.6682286 42.5484399,65.8827839 41.4612717,65.8827839" id="Fill-14" fill="#75829E"></path>
                    <path d="M51.18125,23.9120879 L52.4923719,29.2898637 C53.708853,34.2792529 53.988054,39.521545 53.310669,44.6512433 L52.7601363,48.8208012 L57.1822349,75.8461538 L57.2366901,75.6504139 C58.483494,71.1747493 58.844745,66.4218071 58.2927434,61.7559704 L54.439539,29.1874158 C54.2018877,27.1787922 53.2184413,25.3991919 51.7561249,24.3316544 L51.18125,23.9120879" id="Fill-15" fill="#75829E"></path>
                    <path d="M39.8491999,29.4188205 C39.1023564,32.9604851 37.1374333,35.4291532 35.4602856,34.9328816 C33.7831379,34.4366099 33.0290143,31.1631637 33.7757537,27.6214991 C34.5227012,24.0798345 36.4876243,21.6110432 38.164772,22.107438 C39.8418157,22.6037097 40.5960433,25.8771559 39.8491999,29.4188205" id="Fill-16" fill="#75829E"></path>
                    <path d="M42.2108161,63.6410256 C42.2108161,63.6410256 45.4492512,63.6410256 46.7753427,61.6432328 L49.2874626,63.3188749 C49.5617179,63.5018341 49.9056902,63.4032295 50.0834949,63.0906211 L50.1232284,63.0208981 C50.299775,62.7104527 50.255848,62.288425 50.0212213,62.0410865 L48.3158272,60.2434291 C47.647592,59.538947 46.8596322,59.0220044 46.0080359,58.7292441 L44.7175892,58.2857143 L41.5625,62.6142655 L42.2108161,63.6410256" id="Fill-17" fill="#F3BEB1"></path>
                    <path d="M35.7448905,22.629638 L36.5513966,21.6509798 L35.74375,22.6282838 L35.7448905,22.629638 L36.5513966,21.6509798 L35.74375,22.6282838 L35.77589,22.5893787 L35.74375,22.6281606 L35.74375,22.6282838 L35.77589,22.5893787 L35.74375,22.6281606 C35.7540141,22.6387487 37.2754792,24.4275179 38.7700919,27.4012897 C39.5180203,28.8878063 40.2593134,30.6688191 40.8105658,32.6668874 C41.3621293,34.6658176 41.724067,36.8790947 41.724067,39.2474995 C41.7236523,41.2437211 41.4681913,43.3514868 40.8444683,45.5549146 C40.2201233,47.7580961 39.2264796,50.0596483 37.7329037,52.4335933 L39.6962417,54.1758242 C41.3332034,51.5752205 42.4569622,48.9924687 43.1675667,46.4828486 C43.878586,43.9735978 44.1754143,41.5400641 44.175,39.2474995 C44.175,36.4987858 43.7507518,33.9549391 43.1213266,31.694385 C42.1759966,28.3023842 40.7731383,25.5420975 39.6046946,23.6150678 C38.4354214,21.6884074 37.497245,20.594019 37.4592991,20.5494505 L35.7448905,22.629638" id="Fill-18" fill="#2C3C58"></path>
                    <path d="M41.8344948,26.2783883 C41.8380848,24.6618039 40.9005673,23.1955129 39.7203026,22.3671609 C38.5400379,21.5389332 37.1469075,21.2480349 35.7803852,21.0769987 C34.5697111,20.9253391 33.3528073,21.2803293 32.1365371,21.7146893 C29.8833909,22.5194415 28.1013791,19.2959612 29.7168783,17.280665 C29.8035662,17.1724786 29.8934218,17.0788248 29.985917,17.0021876 C31.0956488,16.0829145 32.4971207,15.8036919 33.8525562,15.7213411 C37.2035027,15.5178862 40.5971069,16.3874757 43.5724762,18.2121107 C44.0004251,18.474565 44.4346038,18.7715494 44.7105057,19.2375828 C45.2838495,20.2057945 44.9637061,21.6138314 44.262495,22.4575853 C43.5612839,23.3013392 42.5782579,23.716571 41.6312375,24.1054704" id="Fill-19" fill="#75829E"></path>
                    <g id="Group-23" transform="translate(26.718750, 0.000000)">
                        <mask id="mask-2" fill="white">
                            <use xlink:href="#path-1"></use>
                        </mask>
                        <g id="Clip-21"></g>
                        <path d="M7.63166028,25.1940157 L0.853065524,41.5782302 C-0.717805444,45.3753052 0.0900680444,49.9348297 2.82139466,52.6864817 L14.6372686,64.5902415 L18.6852742,58.2415943 L7.65336089,45.3289242 L12.3400595,37.7965744 L12.6450267,34.5740812 C13.0341628,30.4643045 10.9584894,26.5806351 7.63166028,25.1940157" id="Fill-20" fill="#75829E" mask="url(#mask-2)"></path>
                        <path d="M32.413435,8.35844979 C31.7192263,8.63809274 30.9893065,8.85433185 30.2276784,8.99853238 C26.3685524,9.73051351 22.5718947,8.46428731 19.832246,5.90543721 C20.127311,3.1106114 22.1320887,0.745179977 24.933995,0.213278626 C28.3955575,-0.443086654 31.7631542,1.94763229 32.4548347,5.5542491 C32.6392898,6.51653167 32.6151663,7.46808246 32.413435,8.35844979" id="Fill-22" fill="#D7232A" mask="url(#mask-2)"></path>
                    </g>
                    <path d="M59.3726439,7.34798535 L61.7384769,8.6958492 C62.2881434,9.00888713 62.2025138,9.95860818 61.6094028,10.129558 L59.4359217,10.7556338 C57.5940454,11.2862442 55.6470211,10.7688312 54.1785151,9.35843381 L52.36875,7.62032094 L59.3726439,7.34798535" id="Fill-24" fill="#D7232A"></path>
                </g>
            </g>
        </g>
    </g>
</svg>