<svg width="40" height="40" viewBox="0 0 40 40" fill="none" xmlns="http://www.w3.org/2000/svg">
<path fill-rule="evenodd" clip-rule="evenodd" d="M3.72226 34.776C3.97604 34.923 4.26409 35.0003 4.55732 35.0003H35.4425C36.363 35.0003 37.1092 34.2541 37.1092 33.3337C37.1092 33.0404 37.0318 32.7524 36.8849 32.4986L21.4423 5.82505C20.9811 5.02844 19.9615 4.75654 19.1649 5.21773C18.9128 5.36364 18.7034 5.57303 18.5575 5.82505L3.11495 32.4986C2.65376 33.2952 2.92566 34.3149 3.72226 34.776ZM19.9999 9.98655L32.5518 31.667H7.44807L19.9999 9.98655Z" fill="#EC0000"/>
<path fill-rule="evenodd" clip-rule="evenodd" d="M21.6666 29.0003C21.6666 29.5526 21.2189 30.0003 20.6666 30.0003H19.3333C18.781 30.0003 18.3333 29.5526 18.3333 29.0003V27.667C18.3333 27.1147 18.781 26.667 19.3333 26.667H20.6666C21.2189 26.667 21.6666 27.1147 21.6666 27.667V29.0003Z" fill="#EC0000"/>
<path fill-rule="evenodd" clip-rule="evenodd" d="M21.6666 22.3337C21.6666 22.8859 21.2189 23.3337 20.6666 23.3337H19.3333C18.781 23.3337 18.3333 22.8859 18.3333 22.3337V17.667C18.3333 17.1147 18.781 16.667 19.3333 16.667H20.6666C21.2189 16.667 21.6666 17.1147 21.6666 17.667V22.3337Z" fill="#EC0000"/>
</svg>
